<?xml version="1.0" standalone="no"?>
<!DOCTYPE svg PUBLIC "-//W3C//DTD SVG 1.1//EN" "http://www.w3.org/Graphics/SVG/1.1/DTD/svg11.dtd">
<svg xmlns="http://www.w3.org/2000/svg">
<defs >
<font id="Niramit" horiz-adv-x="562" ><font-face
    font-family="Niramit SemiBold"
    units-per-em="1000"
    panose-1="0 0 7 0 0 0 0 0 0 0"
    ascent="1105"
    descent="-195"
    alphabetic="0" />
<glyph unicode=" " glyph-name="space" horiz-adv-x="258" />
<glyph unicode="!" glyph-name="exclam" horiz-adv-x="254" d="M66 700H185L177 206H77L66 700ZM93 0T72 20T50 74Q50 107 71 127T127 148Q161 148 182 128T204 74Q204 41 183 21T127 0Q93 0 72 20Z" />
<glyph unicode="&quot;" glyph-name="quotedbl" horiz-adv-x="352" d="M38 693H155L147 503H48L38 693ZM198 693H314L306 503H207L198 693Z" />
<glyph unicode="#" glyph-name="numbersign" horiz-adv-x="710" d="M562 417L545 270H645V176H534L514 0H399L419 176H267L247 0H132L152 176H38V270H163L180 417H63V511H191L211 690H326L306 511H458L478 690H593L573 511H671V417H562ZM447 417H295L278 270H430L447
417Z" />
<glyph unicode="$" glyph-name="dollar" horiz-adv-x="596" d="M558 89T497 42T329 -10V-98H279V-9Q205 -3 143 26T38 105L109 176Q147 135 188 115T279 89V301L276 302Q160 344 109 395T57 524Q57 607 117 656T279 710V799H329V709Q389 705 443 683T538 626L476
547Q440 578 406 593T329 612V398L340 394Q423 362 469 333T537 266T558 172Q558 89 497 42ZM177 490T199 467T279 419V612Q177 606 177 525Q177 490 199 467ZM382 90T410 112T438 172Q438 197 430 214T398 247T329 282V87Q382 90 410 112Z" />
<glyph unicode="%" glyph-name="percent" horiz-adv-x="791" d="M126 366T82 411T38 538Q38 619 82 664T201 710Q276 710 320 665T364 538Q364 456 320 411T201 366Q126 366 82 411ZM508 710H628L283 -10H163L508 710ZM225 458T238 479T251 538Q251 575 238 596T201
617Q177 617 164 596T151 538Q151 500 164 479T201 458Q225 458 238 479ZM514 -10T470 35T426 162Q426 243 470 288T589 334Q664 334 708 289T752 162Q752 80 708 35T589 -10Q514 -10 470 35ZM613 82T626 103T639 162Q639 199 626 220T589 241Q565 241 552 220T539
162Q539 124 552 103T589 82Q613 82 626 103Z" />
<glyph unicode="&amp;" glyph-name="ampersand" horiz-adv-x="740" d="M211 -10T155 16T69 90T38 197Q38 260 77 315T189 414Q153 454 136 486T118 561Q118 627 164 668T288 710Q364 710 410 668T457 560Q457 510 433 475T351 397L487 248Q497 292 496 345H612Q613
334 613 314Q613 222 570 150L701 0H564L500 73Q420 -10 286 -10Q211 -10 155 16ZM313 489T327 509T342 559Q342 584 327 600T288 617Q264 617 249 601T234 559Q234 534 245 514T283 468Q313 489 327 509ZM334 87T372 102T434 147L259 338Q207 306 183 274T158
198Q158 148 193 118T289 87Q334 87 372 102Z" />
<glyph unicode="&apos;" glyph-name="quotesingle" horiz-adv-x="196" d="M38 693H158L150 503H48L38 693Z" />
<glyph unicode="(" glyph-name="parenleft" horiz-adv-x="333" d="M103 -21T71 80T38 305Q38 428 70 529T176 730H294Q220 628 189 528T158 305Q158 181 189 82T295 -118H176Q103 -21 71 80Z" />
<glyph unicode=")" glyph-name="parenright" horiz-adv-x="333" d="M112 -17T143 82T175 305Q175 428 144 528T39 730H157Q230 631 262 530T295 305Q295 182 263 81T157 -118H38Q112 -17 143 82Z" />
<glyph unicode="*" glyph-name="asterisk" horiz-adv-x="436" d="M193 341T177 354T160 389Q160 396 161 400L171 457L128 423Q112 410 93 410Q78 410 66 417T45 439Q38 452 38 465Q38 480 47 492T74 510L143 537L74 564Q57 570 48 582T39 609Q39 635 55 649T93
664Q115 664 129 651L171 617L161 674Q160 678 160 685Q160 706 176 719T217 733Q242 733 258 720T275 685Q275 678 274 674L265 617L307 651Q321 664 342 664Q357 664 369 657T389 637Q397 621 397 609Q397 594 388 582T362 564L293 537L362 510Q379 504 388 492T398
466Q398 452 391 439Q383 425 371 418T343 410Q324 410 308 423L265 457L274 400Q275 396 275 389Q275 368 259 355T217 341Q193 341 177 354Z" />
<glyph unicode="+" glyph-name="plus" horiz-adv-x="548" d="M511 238H333V56H215V238H37V332H215V514H333V332H511V238Z" />
<glyph unicode="," glyph-name="comma" horiz-adv-x="239" d="M38 -60Q62 -49 81 -32T108 4Q82 4 64 22T46 65Q46 98 67 117T122 137Q159 137 180 115T201 56Q201 2 167 -43T69 -117L38 -60Z" />
<glyph unicode="-" glyph-name="hyphen" horiz-adv-x="513" d="M38 332H474V238H38V332Z" />
<glyph unicode="." glyph-name="period" horiz-adv-x="217" d="M78 0T58 19T38 68Q38 97 58 116T109 136Q139 136 159 117T179 68Q179 39 159 20T109 0Q78 0 58 19Z" />
<glyph unicode="/" glyph-name="slash" horiz-adv-x="467" d="M310 710H428L157 -2H38L310 710Z" />
<glyph unicode="0" glyph-name="zero" horiz-adv-x="645" d="M233 -10T170 33T72 157T38 352Q38 464 72 544T170 667T322 710Q456 710 531 616T606 352Q606 181 531 86T322 -10Q233 -10 170 33ZM400 87T443 155T486 352Q486 479 443 546T322 613Q244 613 201 546T158
352Q158 224 201 156T322 87Q400 87 443 155Z" />
<glyph unicode="1" glyph-name="one" horiz-adv-x="370" d="M188 521L96 444L28 521L231 690Q256 710 278 710Q298 710 316 691Q335 671 335 653Q335 636 316 620L306 611V0H188V521Z" />
<glyph unicode="2" glyph-name="two" horiz-adv-x="631" d="M62 0T50 8T38 39L39 52Q42 82 52 91T86 100Q111 149 154 186T270 274Q329 315 361 342T416 403T439 480Q439 613 316 613Q243 613 207 574T163 445L51 456Q55 574 126 642T316 710Q431 710 495 648T559
480Q559 423 532 378T466 298T365 221Q311 182 281 157T231 102H462L489 164L593 129L536 0H94Q62 0 50 8Z" />
<glyph unicode="3" glyph-name="three" horiz-adv-x="659" d="M224 -10T148 42T38 196L147 232Q184 87 337 87Q420 87 460 124T501 227Q501 289 471 321T387 353Q363 353 339 346L324 326Q309 306 292 306Q273 306 246 326Q228 338 228 354Q228 368 241 388L383
606H203L173 517L81 576L124 700H534Q560 700 572 694T584 671Q584 662 579 645Q571 621 560 614T524 606H503L392 436Q416 444 442 444Q492 444 532 419T597 345T621 227Q621 156 588 103T490 20T337 -10Q224 -10 148 42Z" />
<glyph unicode="4" glyph-name="four" horiz-adv-x="628" d="M385 145H81Q57 145 43 157T28 189Q28 209 42 224L421 685Q442 709 465 709Q483 709 500 696Q526 675 526 656Q526 644 516 631L503 613V239H593V145H503V0H385V145ZM391 239V496L180 239H391Z" />
<glyph unicode="5" glyph-name="five" horiz-adv-x="632" d="M228 -10T158 21T38 111L111 182Q159 130 204 109T313 87Q387 87 430 127T473 250Q473 330 433 369T324 408Q267 408 227 383T154 303L66 334L104 613Q85 619 85 640Q85 652 87 659Q91 684 100 692T133
700H548V602H206L186 454Q248 505 335 505Q453 505 523 439T593 250Q593 167 558 109T459 20T314 -10Q228 -10 158 21Z" />
<glyph unicode="6" glyph-name="six" horiz-adv-x="632" d="M189 -10T114 78T38 334Q38 454 74 538T176 666T333 710Q433 710 491 666T568 541L470 508Q454 561 423 587T331 613Q275 613 233 583T168 495T144 362H148Q180 412 231 439T348 467Q423 467 478 438T563
356T593 232Q593 160 562 106T471 21T329 -10Q189 -10 114 78ZM397 87T435 125T473 232Q473 297 436 333T331 370Q262 370 222 332T181 228Q181 163 221 125T329 87Q397 87 435 125Z" />
<glyph unicode="7" glyph-name="seven" horiz-adv-x="607" d="M189 116T212 206T285 375T418 548Q434 566 434 602H147L156 552L51 508L29 632Q28 636 28 644Q28 669 43 684T86 700H535Q561 700 570 692T579 655Q579 626 570 616T544 605Q542 571 536 551T507
504Q424 407 382 338T324 193T309 0H191Q189 116 212 206Z" />
<glyph unicode="8" glyph-name="eight" horiz-adv-x="631" d="M184 -10T111 44T38 197Q38 254 73 298T166 364Q122 384 95 424T67 510Q67 602 133 656T315 710Q430 710 496 656T563 510Q563 464 536 424T464 364Q522 342 557 299T592 197Q592 98 520 44T315 -10Q184
-10 111 44ZM373 404T408 432T443 510Q443 560 409 586T315 613Q256 613 222 587T187 510Q187 460 222 432T315 404Q373 404 408 432ZM391 87T431 116T472 197Q472 253 432 284T315 315Q240 315 199 284T158 197Q158 145 199 116T315 87Q391 87 431 116Z" />
<glyph unicode="9" glyph-name="nine" horiz-adv-x="632" d="M210 -10T148 34T68 156L165 190Q181 139 217 113T313 87Q396 87 442 154T488 338H484Q416 233 293 233Q216 233 159 262T70 344T38 468Q38 540 70 594T162 679T304 710Q444 710 518 622T593 364Q593
182 520 86T311 -10Q210 -10 148 34ZM371 330T410 367T450 472Q450 537 411 575T304 613Q236 613 197 575T158 468Q158 403 196 367T302 330Q371 330 410 367Z" />
<glyph unicode=":" glyph-name="colon" horiz-adv-x="226" d="M81 370T60 391T38 442Q38 473 59 494T113 516Q145 516 166 495T187 442Q187 412 166 391T113 370Q81 370 60 391ZM81 3T60 24T39 75Q39 106 60 127T113 149Q145 149 166 128T188 75Q188 45 166 24T113
3Q81 3 60 24Z" />
<glyph unicode=";" glyph-name="semicolon" horiz-adv-x="235" d="M89 369T68 390T47 441Q47 472 68 493T121 515Q153 515 174 494T196 441Q196 412 174 391T121 369Q89 369 68 390ZM38 -60Q63 -49 82 -32T108 4Q82 4 64 22T46 65Q46 98 67 117T122 137Q159 137
178 115T197 55Q197 1 165 -44T69 -118L38 -60Z" />
<glyph unicode="&lt;" glyph-name="less" horiz-adv-x="615" d="M76 217Q56 226 47 236T38 266Q38 291 49 306T82 321Q90 321 94 320L105 318L577 521V410L209 261L577 112V1L76 217Z" />
<glyph unicode="=" glyph-name="equal" horiz-adv-x="548" d="M65 422H483V328H65V422ZM65 242H483V148H65V242Z" />
<glyph unicode="&gt;" glyph-name="greater" horiz-adv-x="615" d="M38 112L406 261L38 410V521L510 318L521 320Q525 321 533 321Q554 321 565 306T577 266Q577 247 568 237T539 217L38 1V112Z" />
<glyph unicode="?" glyph-name="question" horiz-adv-x="526" d="M200 244Q200 280 213 308T244 357T294 406Q332 440 350 464T368 520Q368 565 344 589T272 613Q222 613 189 587T135 505L38 550Q64 626 127 668T275 710Q374 710 431 658T488 520Q488 469 465
437T396 366Q356 331 337 306T318 244V206H200V244ZM226 0T205 20T183 74Q183 107 204 127T260 148Q294 148 315 128T337 74Q337 41 316 21T260 0Q226 0 205 20Z" />
<glyph unicode="@" glyph-name="at" horiz-adv-x="870" d="M305 -34T219 10T85 137T38 333Q38 454 87 544T226 684T435 734Q557 734 646 693T783 573T831 390Q831 311 805 251T731 158T623 125Q589 125 559 145T515 199H513Q493 163 459 144T382 124Q309 124 264
175T219 315Q219 398 246 458T319 549T425 580Q459 580 485 566T527 528L535 566H624L573 279Q572 273 572 263Q572 240 583 227T612 214Q658 214 684 261T711 390Q711 515 642 576T435 637Q304 637 231 557T158 333Q158 204 227 134T422 63Q534 63 618 101V11Q540
-34 422 -34Q305 -34 219 10ZM430 215T452 244T486 342Q491 377 491 398Q491 446 475 471T429 497Q384 497 357 449T330 317Q330 268 347 242T396 215Q430 215 452 244Z" />
<glyph unicode="A" glyph-name="A" horiz-adv-x="697" d="M283 664Q303 718 353 718Q385 718 404 704T423 668Q423 662 419 650L660 0H536L470 187H226L160 0H37L283 664ZM444 281L349 554L254 281H444Z" />
<glyph unicode="B" glyph-name="B" horiz-adv-x="612" d="M67 587Q67 607 62 617T48 636Q41 644 39 648T40 661Q46 681 63 699T99 718Q117 718 135 700H335Q436 700 494 649T553 512Q553 456 529 422T455 367V364Q573 316 573 209Q573 110 511 55T338 0H67V587ZM321
411Q374 411 403 437T433 512Q433 556 406 581T328 606H183V411H321ZM334 94Q453 94 453 209Q453 261 421 289T328 317H183V94H334Z" />
<glyph unicode="C" glyph-name="C" horiz-adv-x="643" d="M267 -10T192 33T78 158T38 351Q38 462 76 543T188 667T364 710Q432 710 489 687T583 621L537 540Q502 577 463 595T364 613Q266 613 212 544T158 351Q158 227 214 157T374 87Q425 87 464 104T535 157L605
91Q565 44 503 17T372 -10Q267 -10 192 33Z" />
<glyph unicode="D" glyph-name="D" horiz-adv-x="653" d="M67 587Q67 607 62 617T48 636T39 653Q39 658 40 661Q47 682 63 700T99 718Q117 718 135 700H272Q378 700 455 658T573 537T614 352Q614 186 527 93T277 0H67V587ZM277 102Q387 102 440 164T494 352Q494
473 437 535T269 598H185V102H277Z" />
<glyph unicode="E" glyph-name="E" horiz-adv-x="543" d="M68 587Q68 607 63 617T48 637Q42 644 40 648T40 661Q47 682 63 700T99 718Q117 718 135 700H496V598H186V416H412V318H186V102H505V0H68V587Z" />
<glyph unicode="F" glyph-name="F" horiz-adv-x="534" d="M68 587Q68 607 63 617T48 637Q42 644 40 648T40 661Q47 682 63 700T99 718Q117 718 135 700H496V598H186V403H412V306H186V0H68V587Z" />
<glyph unicode="G" glyph-name="G" horiz-adv-x="666" d="M262 -10T189 33T77 158T38 351Q38 462 76 543T188 667T364 710Q434 710 491 687T584 621L538 540Q503 578 464 595T364 613Q266 613 212 544T158 351Q158 227 212 157T365 87Q405 87 431 93T482 114V288H325V386H533Q548
403 568 403Q587 403 604 385T627 346Q630 337 628 333T619 322Q610 313 605 303T600 273V63Q537 23 484 7T363 -10Q262 -10 189 33Z" />
<glyph unicode="H" glyph-name="H" horiz-adv-x="625" d="M50 700H168V418H457V700H575V0H457V318H168V0H50V700Z" />
<glyph unicode="I" glyph-name="I" horiz-adv-x="298" d="M90 700H208V0H90V700Z" />
<glyph unicode="J" glyph-name="J" horiz-adv-x="444" d="M148 -10T105 3T28 42L75 124Q130 89 190 89Q236 89 258 112T280 185V700H398V188Q398 97 343 44T192 -10Q148 -10 105 3Z" />
<glyph unicode="K" glyph-name="K" horiz-adv-x="614" d="M50 700H168V441L401 700H545L241 366L576 0H430L168 290V0H50V700Z" />
<glyph unicode="L" glyph-name="L" horiz-adv-x="521" d="M77 -10T62 5T40 40Q37 49 39 53T48 65Q57 74 62 84T67 114V700H185V102H486V0H133Q119 -10 96 -10Q77 -10 62 5Z" />
<glyph unicode="M" glyph-name="M" horiz-adv-x="790" d="M377 -10T363 -1T343 24L200 467L157 -1H38L107 637L102 646Q97 656 97 667Q97 687 112 702T158 718Q194 718 210 704T237 659L395 172L553 659Q564 691 580 704T633 718Q663 718 678 703T694 668Q694
655 688 646L684 638L752 -1H633L590 468L459 60L462 50Q464 40 464 36Q464 15 445 3T398 -10Q377 -10 363 -1Z" />
<glyph unicode="N" glyph-name="N" horiz-adv-x="623" d="M61 604Q61 615 58 622T48 636Q38 648 38 657Q38 659 40 669Q47 692 65 705T106 718Q141 718 158 691L455 213V700H573V0H473L179 470V0H61V604Z" />
<glyph unicode="O" glyph-name="O" horiz-adv-x="683" d="M246 -10T178 34T74 160T38 350Q38 459 73 540T177 665T341 710Q437 710 505 666T608 540T644 350Q644 241 609 160T505 35T341 -10Q246 -10 178 34ZM432 87T478 157T524 350Q524 473 478 543T341 613Q251
613 205 543T158 350Q158 227 204 157T341 87Q432 87 478 157Z" />
<glyph unicode="P" glyph-name="P" horiz-adv-x="603" d="M64 601Q64 614 61 620T50 634Q43 641 40 647T39 665Q44 687 61 702T100 718Q124 718 144 700H282Q418 700 491 640T565 467Q565 355 493 294T288 233H182V0H64V601ZM285 335Q363 335 404 368T445 467Q445
532 404 565T284 598H182V335H285Z" />
<glyph unicode="Q" glyph-name="Q" horiz-adv-x="683" d="M644 217T592 126T441 4L574 -162H432L319 -9Q230 -4 167 41T71 166T38 350Q38 459 73 540T177 665T341 710Q437 710 505 666T608 540T644 350Q644 217 592 126ZM158 227T204 157T341 87Q432 87 478 157T524
350Q524 473 478 543T341 613Q251 613 205 543T158 350Q158 227 204 157Z" />
<glyph unicode="R" glyph-name="R" horiz-adv-x="603" d="M64 601Q64 613 60 620T49 634Q43 640 41 644T38 656Q38 662 39 665Q45 687 61 702T100 718Q124 718 144 700H282Q420 700 492 646T564 481Q564 390 513 337T370 273L549 0H415L241 264H182V0H64V601ZM285
365Q366 365 405 391T444 481Q444 544 405 571T285 598H182V365H285Z" />
<glyph unicode="S" glyph-name="S" horiz-adv-x="596" d="M229 -10T158 20T38 105L109 176Q153 128 203 108T316 87Q375 87 406 109T438 172Q438 201 426 220T379 258T276 302Q160 344 109 395T57 524Q57 612 123 661T299 710Q367 710 429 688T538 626L476 547Q433
583 394 598T299 613Q240 613 209 591T177 525Q177 496 192 476T241 437T340 394Q423 362 469 333T537 266T558 172Q558 86 493 38T314 -10Q229 -10 158 20Z" />
<glyph unicode="T" glyph-name="T" horiz-adv-x="588" d="M235 598H35V700H553V598H353V0H235V598Z" />
<glyph unicode="U" glyph-name="U" horiz-adv-x="640" d="M191 -10T118 60T45 256V700H163V250Q163 172 204 130T320 87Q394 87 435 129T477 250V700H595V256Q595 130 522 60T320 -10Q191 -10 118 60Z" />
<glyph unicode="V" glyph-name="V" horiz-adv-x="682" d="M270 12T270 37Q270 49 277 62L38 700H160L342 185L523 700H644L398 36Q390 14 373 2T335 -10Q317 -10 302 -3Q270 12 270 37Z" />
<glyph unicode="W" glyph-name="W" horiz-adv-x="839" d="M147 7T147 40Q147 49 150 58L153 68L38 700H157L234 216L367 675Q371 692 385 701T419 710Q452 710 470 699T489 668Q489 664 487 656L484 646L606 217L682 700H801L684 68L688 58Q691 49 691 40Q691
7 651 -4Q636 -9 618 -9Q595 -9 580 5T557 49L420 526L281 49Q273 19 258 5T220 -9Q202 -9 187 -4Q147 7 147 40Z" />
<glyph unicode="X" glyph-name="X" horiz-adv-x="690" d="M279 375L60 700H192L345 466L499 700H631L411 375L652 0H520L345 285L170 0H38L279 375Z" />
<glyph unicode="Y" glyph-name="Y" horiz-adv-x="653" d="M270 269L38 700H166L327 377L487 700H615L384 269V0H270V269Z" />
<glyph unicode="Z" glyph-name="Z" horiz-adv-x="628" d="M108 -11T98 -11Q78 -11 47 23Q38 34 38 42Q38 50 45 60T55 74L420 598H63V700H491L498 708Q509 719 528 719Q548 719 564 706Q589 687 589 665Q589 649 573 625L207 102H590V0H125L113 -7Q108 -11 98 -11Z" />
<glyph unicode="[" glyph-name="bracketleft" horiz-adv-x="265" d="M47 746H250V652H165V-40H250V-134H47V746Z" />
<glyph unicode="\" glyph-name="backslash" horiz-adv-x="470" d="M38 710H157L432 -12H313L38 710Z" />
<glyph unicode="]" glyph-name="bracketright" horiz-adv-x="265" d="M15 -40H100V652H15V746H218V-134H15V-40Z" />
<glyph unicode="^" glyph-name="asciicircum" horiz-adv-x="477" d="M188 697Q196 712 208 719T242 726Q266 726 281 715T297 685Q297 675 293 667L291 662L439 433H317L234 591L160 433H38L188 697Z" />
<glyph unicode="_" glyph-name="underscore" horiz-adv-x="583" d="M38 -48H544V-142H38V-48Z" />
<glyph unicode="`" glyph-name="grave" horiz-adv-x="293" d="M39 726H170L254 540H159L39 726Z" />
<glyph unicode="a" glyph-name="a" horiz-adv-x="579" d="M189 -10T141 20T65 105T38 235Q38 314 65 372T144 463T264 495Q350 495 405 428V485H517V132Q517 96 522 73T541 27L447 -10Q419 21 415 68H412Q384 31 344 11T253 -10Q189 -10 141 20ZM337 83T370 123T403
229V255Q403 315 371 358T278 402Q219 402 187 358T155 235Q155 163 186 123T275 83Q337 83 370 123Z" />
<glyph unicode="b" glyph-name="b" horiz-adv-x="583" d="M38 27Q51 49 57 72T63 133V734H179V430Q206 459 245 477T329 495Q430 495 487 428T545 243Q545 170 517 112T438 22T324 -10Q224 -10 166 69Q163 21 133 -11L38 27ZM366 83T397 126T429 243Q429 320 398
361T304 402Q244 402 211 359T177 255V229Q177 165 211 124T307 83Q366 83 397 126Z" />
<glyph unicode="c" glyph-name="c" horiz-adv-x="528" d="M178 -10T108 57T38 242Q38 360 106 427T295 495Q349 495 396 478T474 431L433 353Q407 375 373 387T300 400Q233 400 195 361T156 242Q156 165 195 125T304 85Q379 85 427 133L489 69Q457 33 407 12T300
-10Q178 -10 108 57Z" />
<glyph unicode="d" glyph-name="d" horiz-adv-x="583" d="M421 21T418 69Q358 -10 260 -10Q195 -10 145 19T66 104T38 235Q38 314 66 373T145 463T266 495Q349 495 405 430V734H521V133Q521 96 526 72T545 27L450 -11Q421 21 418 69ZM339 83T372 124T406 229V255Q406
316 374 359T281 402Q218 402 187 358T155 235Q155 163 185 123T277 83Q339 83 372 124Z" />
<glyph unicode="e" glyph-name="e" horiz-adv-x="554" d="M213 -10T156 20T69 107T38 239Q38 312 64 370T145 461T276 495Q353 495 407 462T489 374T516 256Q516 226 497 210T443 194H154Q154 145 191 115T291 85Q376 85 429 136L487 73Q455 34 405 12T291 -10Q213
-10 156 20ZM401 286Q401 336 367 369T276 402Q222 402 188 369T154 286H401Z" />
<glyph unicode="f" glyph-name="f" horiz-adv-x="418" d="M116 391H28L53 485H116V575Q116 647 163 691T289 736Q313 736 341 729T389 712L368 626Q355 632 336 636T300 641Q267 641 250 624T232 573V485H375L351 391H232V0H116V391Z" />
<glyph unicode="g" glyph-name="g" horiz-adv-x="583" d="M174 -218T92 -177L127 -92Q186 -123 260 -123Q338 -123 371 -84T404 30V65Q378 34 342 17T261 0Q158 0 98 66T38 250Q38 365 97 430T255 496Q352 496 417 418Q420 465 449 497L544 460Q531 438 526 415T520
354V37Q520 -88 453 -153T260 -218Q174 -218 92 -177ZM339 93T372 136T405 240V258Q405 322 372 362T276 403Q216 403 186 363T155 250Q155 93 279 93Q339 93 372 136Z" />
<glyph unicode="h" glyph-name="h" horiz-adv-x="549" d="M374 44T374 120V291Q374 400 282 400Q229 400 196 359T163 255V0H47V734H163V427Q190 459 228 477T311 495Q490 495 490 291V122Q490 69 511 29L406 -10Q374 44 374 120Z" />
<glyph unicode="i" glyph-name="i" horiz-adv-x="268" d="M99 557T76 578T53 633Q53 667 76 688T134 710Q169 710 192 689T215 633Q215 600 192 579T134 557Q99 557 76 578ZM76 485H192V0H76V485Z" />
<glyph unicode="j" glyph-name="j" horiz-adv-x="441" d="M272 557T250 578T227 633Q227 667 249 688T307 710Q342 710 365 689T388 633Q388 600 365 579T307 557Q272 557 250 578ZM140 -218T97 -204T28 -166L71 -87Q120 -123 175 -123Q214 -123 231 -102T249
-29V485H365V-22Q365 -119 319 -168T183 -218Q140 -218 97 -204Z" />
<glyph unicode="k" glyph-name="k" horiz-adv-x="503" d="M50 734H166V334L317 485H460L226 258L486 0H337L166 174V0H50V734Z" />
<glyph unicode="l" glyph-name="l" horiz-adv-x="216" d="M50 734H166V0H50V734Z" />
<glyph unicode="m" glyph-name="m" horiz-adv-x="798" d="M623 46T623 120V293Q623 348 605 374T547 400Q503 400 481 371T458 291V0H344V294Q344 348 326 374T270 400Q223 400 200 366T176 268V0H60V354Q60 387 56 409T38 455L137 495Q146 479 153 458T162 417Q182
454 218 474T294 495Q378 495 415 415Q444 456 482 475T571 495Q653 495 696 447T739 320V122Q739 69 760 29L655 -10Q623 46 623 120Z" />
<glyph unicode="n" glyph-name="n" horiz-adv-x="563" d="M387 46T387 120V291Q387 347 365 373T296 400Q242 400 209 358T176 255V0H60V354Q60 386 56 408T38 455L141 495Q150 480 157 458T166 416Q194 451 237 473T329 495Q503 495 503 291V122Q503 69 524 29L419
-10Q387 46 387 120Z" />
<glyph unicode="o" glyph-name="o" horiz-adv-x="561" d="M206 -11T151 21T67 110T38 242Q38 316 67 373T151 463T281 495Q356 495 410 463T494 374T523 242Q523 168 494 111T411 21T281 -11Q206 -11 151 21ZM342 84T373 126T405 242Q405 316 374 358T281 400Q220
400 188 358T156 242Q156 169 188 127T281 84Q342 84 373 126Z" />
<glyph unicode="p" glyph-name="p" horiz-adv-x="583" d="M63 353Q63 391 57 414T38 459L134 497Q163 465 166 418Q231 496 329 496Q393 496 442 466T518 378T545 244Q545 126 485 59T321 -9Q277 -9 241 8T179 56V-219H63V353ZM366 85T397 126T429 244Q429 318
398 360T307 403Q245 403 211 362T177 257V231Q177 171 210 128T303 85Q366 85 397 126Z" />
<glyph unicode="q" glyph-name="q" horiz-adv-x="585" d="M405 -172T405 -97V56Q379 26 343 9T262 -9Q159 -9 99 58T38 244Q38 321 65 378T141 465T255 496Q354 496 417 418Q422 467 450 497L545 460Q532 438 527 415T521 353V-97Q521 -152 547 -192L445 -232Q405
-172 405 -97ZM341 85T373 128T406 231V257Q406 321 373 362T277 403Q217 403 186 361T155 244Q155 167 186 126T281 85Q341 85 373 128Z" />
<glyph unicode="r" glyph-name="r" horiz-adv-x="409" d="M60 354Q60 386 56 408T38 455L141 495Q150 480 157 458T166 416Q192 456 222 475T293 495Q321 495 342 488T388 463L344 382Q315 400 284 400Q230 400 203 364T176 262V0H60V354Z" />
<glyph unicode="s" glyph-name="s" horiz-adv-x="500" d="M202 -10T142 14T38 83L105 154Q137 119 180 101T272 82Q308 82 327 93T346 126Q346 142 339 152T309 173T237 200Q140 231 100 266T60 360Q60 423 110 459T252 495Q353 495 435 438L394 360Q354 384 321
393T251 403Q213 403 195 392T176 360Q176 344 186 334T217 314T285 290Q352 268 389 247T444 196T462 124Q462 63 412 27T272 -10Q202 -10 142 14Z" />
<glyph unicode="t" glyph-name="t" horiz-adv-x="389" d="M187 -9T152 28T116 136V391H28L53 485H118V593L230 645V485H358L335 391H232V133Q232 106 242 95T277 84Q306 84 326 94L353 10Q338 2 310 -3T255 -9Q187 -9 152 28Z" />
<glyph unicode="u" glyph-name="u" horiz-adv-x="548" d="M148 -10T97 45T45 194V485H161V194Q161 139 186 112T263 85Q316 85 344 122T372 218V485H488V131Q488 99 492 77T510 30L407 -10Q398 4 391 27T382 69Q331 -10 233 -10Q148 -10 97 45Z" />
<glyph unicode="v" glyph-name="v" d="M245 -10T230 2T214 32Q214 40 216 45L218 51L38 485H160L282 154L403 485H524L334 23Q327 6 313 -2T270 -10Q245 -10 230 2Z" />
<glyph unicode="w" glyph-name="w" horiz-adv-x="719" d="M187 -10T173 2T158 35Q158 43 159 47L161 54L38 485H158L229 172L315 468Q323 495 368 495Q425 495 425 455Q425 446 424 441L420 420L491 172L560 485H680L558 54L559 47Q560 42 560 34Q560 13 546 2T505
-10Q476 -10 462 -1T442 30L359 319L276 30Q270 9 257 0T214 -10Q187 -10 173 2Z" />
<glyph unicode="x" glyph-name="x" horiz-adv-x="539" d="M194 251L38 485H169L269 322L370 485H500L345 251L500 0H368L269 175L171 0H38L194 251Z" />
<glyph unicode="y" glyph-name="y" horiz-adv-x="582" d="M74 -135Q140 -112 180 -72T237 37L38 485H173L297 163L410 485H544L346 -6Q309 -97 256 -147T108 -229L74 -135Z" />
<glyph unicode="z" glyph-name="z" horiz-adv-x="539" d="M106 -10T98 -10Q85 -10 71 0T44 32Q39 41 39 52Q39 68 58 81Q65 86 74 95L339 391H64V485H397Q418 485 425 490Q432 495 442 495Q466 495 487 471Q501 454 501 439Q501 423 487 408L205 94H498V0H145Q128
0 114 -6Q106 -10 98 -10Z" />
<glyph unicode="{" glyph-name="braceleft" horiz-adv-x="358" d="M171 -134T141 -105T110 -29V216Q110 259 75 259H38V353H75Q110 353 110 396V641Q110 688 140 717T222 746H319V652H252Q228 652 228 626V406Q228 368 219 346T182 306Q210 289 219 267T228 206V-14Q228
-40 252 -40H319V-134H222Q171 -134 141 -105Z" />
<glyph unicode="|" glyph-name="bar" horiz-adv-x="211" d="M47 800H165V-140H47V800Z" />
<glyph unicode="}" glyph-name="braceright" horiz-adv-x="358" d="M38 -40H106Q117 -40 123 -33T129 -14V206Q129 243 138 266T176 306Q148 323 139 346T129 406V626Q129 638 123 645T106 652H38V746H135Q186 746 216 717T247 641V396Q247 353 283 353H319V259H283Q247
259 247 216V-29Q247 -76 217 -105T135 -134H38V-40Z" />
<glyph unicode="~" glyph-name="asciitilde" horiz-adv-x="598" d="M38 238Q64 285 103 309T191 333Q216 333 240 326T301 304Q333 291 356 284T401 277Q436 277 457 291T494 336L560 275Q537 226 499 202T412 177Q387 177 361 184T299 207Q266 220 243 227T198
234Q142 234 108 172L38 238Z" />
<glyph unicode="&#xa0;" glyph-name="uni00A0" horiz-adv-x="258" />
<glyph unicode="&#xa1;" glyph-name="exclamdown" horiz-adv-x="254" d="M93 316T72 336T50 390Q50 423 71 443T127 464Q161 464 182 444T204 390Q204 357 183 337T127 316Q93 316 72 336ZM77 258H177L185 -236H66L77 258Z" />
<glyph unicode="&#xa2;" glyph-name="cent" horiz-adv-x="528" d="M460 36T416 16T322 -9V-98H270V-9Q161 -1 100 65T38 242Q38 354 100 420T270 494V588H322V494Q369 490 408 473T474 431L433 353Q386 393 322 399V86Q385 91 427 133L489 69Q460 36 416 16ZM156
175T186 136T270 88V398Q216 389 186 350T156 242Q156 175 186 136Z" />
<glyph unicode="&#xa3;" glyph-name="sterling" horiz-adv-x="586" d="M46 83Q86 93 119 123T172 196T192 281Q192 288 190 304H38L61 398H160Q125 455 125 513Q125 569 154 613T235 684T354 710Q414 710 465 688T548 627L505 548Q447 613 354 613Q299 613 272
587T245 513Q245 449 282 398H455L430 304H309Q311 248 290 194T220 94H543V0H46V83Z" />
<glyph unicode="&#xa4;" glyph-name="currency" horiz-adv-x="607" d="M31 127L115 215Q69 264 69 337Q69 404 107 450L25 537L99 608L186 516Q243 543 304 543Q364 543 421 516L508 608L582 537L500 450Q538 404 538 337Q538 263 493 215L576 127L502 56L410
153Q356 130 304 130Q251 130 197 153L105 56L31 127ZM362 224T395 253T428 337Q428 390 395 419T304 449Q245 449 212 420T179 337Q179 283 212 254T304 224Q362 224 395 253Z" />
<glyph unicode="&#xa5;" glyph-name="yen" horiz-adv-x="653" d="M385 270H534V224H384V157H534V111H384V0H270V111H122V157H270V224H122V270H269L38 700H166L327 377L487 700H615L385 270Z" />
<glyph unicode="&#xa6;" glyph-name="brokenbar" horiz-adv-x="211" d="M47 800H165V406H47V800ZM47 254H165V-140H47V254Z" />
<glyph unicode="&#xa7;" glyph-name="section" horiz-adv-x="503" d="M199 -58T141 -35T40 31L104 102Q135 69 177 52T267 34Q304 34 324 50T344 92Q344 119 322 137T231 179Q136 210 95 249T54 349Q54 416 114 466Q86 486 74 513T61 577Q61 642 112 682T253 722Q356
722 437 665L396 588Q358 610 324 620T252 630Q216 630 197 615T177 577Q177 557 186 545T219 522T289 496Q385 466 425 430T465 329Q465 295 450 263T407 206Q460 165 460 89Q460 47 437 14T370 -39T267 -58Q199 -58 141 -35ZM350 286T350 322Q350 367 282 395Q251
406 206 421Q169 398 169 353Q169 331 182 315T231 285L284 264L321 250Q350 286 350 322Z" />
<glyph unicode="&#xa8;" glyph-name="dieresis" horiz-adv-x="418" d="M76 555T56 574T36 623Q36 652 56 671T106 691Q136 691 155 672T174 623Q174 594 155 575T106 555Q76 555 56 574ZM284 555T264 574T244 623Q244 652 264 671T314 691Q344 691 363 672T382
623Q382 594 363 575T314 555Q284 555 264 574Z" />
<glyph unicode="&#xa9;" glyph-name="copyright" horiz-adv-x="846" d="M315 -11T227 34T89 161T38 349Q38 455 88 537T227 665T423 710Q532 710 619 665T757 538T808 349Q808 243 758 161T620 34T423 -11Q315 -11 227 34ZM500 86T562 115T661 204T698 349Q698
434 662 493T563 583T423 613Q347 613 285 583T185 494T148 349Q148 264 184 205T283 116T423 86Q500 86 562 115ZM366 133T315 158T234 232T205 348Q205 415 233 464T313 538T428 564Q476 564 520 547T597 498L551 428Q500 473 431 473Q379 473 349 441T318 348Q318
289 351 257T441 224Q471 224 497 234T547 269L608 207Q534 133 431 133Q366 133 315 158Z" />
<glyph unicode="&#xaa;" glyph-name="ordfeminine" horiz-adv-x="425" d="M120 384T79 427T38 546Q38 625 81 671T193 718Q249 718 284 676V712H371V475Q371 452 375 437T387 408L312 384Q294 406 291 434H290Q272 410 245 397T186 384Q120 384 79 427ZM242 453T263
476T284 542V559Q284 597 264 623T206 649Q169 649 149 623T128 546Q128 453 203 453Q242 453 263 476Z" />
<glyph unicode="&#xab;" glyph-name="guillemotleft" horiz-adv-x="498" d="M46 236Q38 247 38 260Q38 273 46 284L173 477H288L149 260L288 43H173L46 236ZM218 236Q210 247 210 260Q210 273 218 284L345 477H460L321 260L460 43H345L218 236Z" />
<glyph unicode="&#xac;" glyph-name="logicalnot" horiz-adv-x="477" d="M320 238H38V332H438V105H320V238Z" />
<glyph unicode="&#xad;" glyph-name="uni00AD" horiz-adv-x="513" d="M38 332H474V238H38V332Z" />
<glyph unicode="&#xae;" glyph-name="registered" horiz-adv-x="846" d="M315 -11T227 34T89 161T38 349Q38 455 88 537T227 665T423 710Q532 710 619 665T757 538T808 349Q808 243 758 161T620 34T423 -11Q315 -11 227 34ZM500 86T562 115T661 204T698 349Q698
434 662 493T563 583T423 613Q347 613 285 583T185 494T148 349Q148 264 184 205T283 116T423 86Q500 86 562 115ZM272 479Q272 486 269 491T262 500Q253 509 253 518Q253 523 256 530Q263 548 276 558T308 569Q326 569 338 553H445Q520 553 562 518T605 415Q605
366 575 336T493 293L590 150H480L398 280H370V150H272V479ZM431 355Q507 355 507 415Q507 478 434 478H370V355H431Z" />
<glyph unicode="&#xaf;" glyph-name="overscore" horiz-adv-x="414" d="M39 637H375V548H39V637Z" />
<glyph unicode="&#xb0;" glyph-name="degree" horiz-adv-x="342" d="M109 473T67 509T25 604Q25 662 67 699T171 736Q233 736 275 699T317 604Q317 546 275 510T171 473Q109 473 67 509ZM194 552T209 566T224 604Q224 628 209 643T171 658Q148 658 133 643T118
604Q118 580 133 566T171 552Q194 552 209 566Z" />
<glyph unicode="&#xb1;" glyph-name="plusminus" horiz-adv-x="548" d="M496 369V275H333V133H215V275H52V369H215V512H333V369H496ZM52 94H496V0H52V94Z" />
<glyph unicode="&#xb2;" glyph-name="uni00B2" horiz-adv-x="497" d="M61 414T50 422T39 453Q39 486 48 497T76 509Q96 546 128 571T212 628Q265 659 291 683T317 742Q317 781 299 801T246 822Q200 822 178 799T151 711L46 721Q48 807 101 859T245 911Q334 911
381 866T429 742Q429 704 412 676T369 628T302 582Q267 561 246 545T213 510H342L363 557L459 524L412 414H88Q61 414 50 422Z" />
<glyph unicode="&#xb3;" glyph-name="uni00B3" horiz-adv-x="516" d="M178 403T120 441T38 554L140 586Q153 536 184 514T264 492Q366 492 366 575Q366 610 347 628T294 647Q290 647 272 644L264 632Q249 614 235 614Q220 614 191 633Q174 645 174 657Q174 668
186 687L270 813H175L155 752L71 807L103 900H405Q428 900 439 894T451 872Q451 863 446 848Q439 826 429 820T396 813H382L322 725Q336 730 357 730Q389 730 416 712T461 659T478 575Q478 497 421 450T264 403Q178 403 120 441Z" />
<glyph unicode="&#xb4;" glyph-name="acute" horiz-adv-x="293" d="M124 726H254L135 540H39L124 726Z" />
<glyph unicode="&#xb6;" glyph-name="paragraph" horiz-adv-x="669" d="M279 286Q167 286 103 340T38 489Q38 588 102 644T278 700H631V606H578V-180H460V606H397V-180H279V286Z" />
<glyph unicode="&#xb7;" glyph-name="middot" horiz-adv-x="217" d="M78 272T58 291T38 340Q38 369 58 388T109 408Q139 408 159 389T179 340Q179 311 159 292T109 272Q78 272 58 291Z" />
<glyph unicode="&#xb8;" glyph-name="cedilla" horiz-adv-x="316" d="M91 -224T39 -184L69 -128Q105 -153 139 -153Q175 -153 175 -121Q175 -90 137 -90Q132 -90 116 -92L93 -68L138 6H224L192 -45Q269 -60 269 -130Q269 -171 238 -197T152 -224Q91 -224 39 -184Z" />
<glyph unicode="&#xb9;" glyph-name="uni00B9" horiz-adv-x="312" d="M146 740L94 695L32 766L181 891Q208 913 226 913Q245 913 260 891Q273 872 273 861Q273 853 265 843L257 835V412H146V740Z" />
<glyph unicode="&#xba;" glyph-name="ordmasculine" horiz-adv-x="413" d="M131 384T85 430T38 551Q38 625 84 671T206 718Q282 718 328 672T375 551Q375 477 329 431T206 384Q131 384 85 430ZM283 453T283 551Q283 649 206 649Q129 649 129 551Q129 453 206 453Q283
453 283 551Z" />
<glyph unicode="&#xbb;" glyph-name="guillemotright" horiz-adv-x="498" d="M177 260L38 477H153L280 284Q288 273 288 260Q288 247 280 236L153 43H38L177 260ZM349 260L210 477H325L452 284Q460 273 460 260Q460 247 452 236L325 43H210L349 260Z" />
<glyph unicode="&#xbc;" glyph-name="onequarter" horiz-adv-x="885" d="M153 571L100 526L38 597L188 722Q215 744 233 744Q251 744 267 722Q280 703 280 692Q280 683 271 674L263 667L264 243H153V571ZM531 710H651L306 -10H186L531 710ZM675 94H475Q452 94
439 105T426 135Q426 151 439 167L703 474Q722 496 745 496Q761 496 775 485Q801 465 801 447Q801 438 792 424L785 415V181H847V94H785V0H675V94ZM681 181V312L569 181H681Z" />
<glyph unicode="&#xbd;" glyph-name="onehalf" horiz-adv-x="967" d="M153 571L100 526L38 597L188 722Q215 744 233 744Q251 744 267 722Q280 703 280 692Q280 683 271 674L263 667L264 243H153V571ZM531 710H651L306 -10H186L531 710ZM530 -1T519 7T508 38Q508
72 517 82T546 94Q566 131 598 156T681 213Q736 246 761 269T786 328Q786 407 716 407Q670 407 648 384T621 296L516 307Q517 392 570 444T715 496Q804 496 851 451T899 328Q899 290 882 262T839 214T773 168Q735 144 715 129T683 95H812L832 143L929 109L882 -1H558Q530
-1 519 7Z" />
<glyph unicode="&#xbe;" glyph-name="threequarters" horiz-adv-x="1043" d="M689 710H809L464 -10H344L689 710ZM178 211T120 249T38 362L140 394Q153 344 184 322T264 300Q366 300 366 383Q366 418 347 436T294 455Q290 455 272 452L264 440Q249 422 235 422Q220
422 191 441Q174 453 174 465Q174 476 186 495L270 621H175L155 560L71 615L103 708H405Q428 708 439 702T451 680Q451 671 446 656Q439 634 429 628T396 621H382L322 533Q336 538 357 538Q389 538 416 520T461 467T478 383Q478 305 421 258T264 211Q178 211 120
249ZM833 94H633Q610 94 597 105T584 135Q584 151 597 167L861 474Q880 496 903 496Q919 496 933 485Q959 465 959 447Q959 438 950 424L943 415V181H1005V94H943V0H833V94ZM839 181V312L727 181H839Z" />
<glyph unicode="&#xbf;" glyph-name="questiondown" horiz-adv-x="526" d="M232 312T211 332T189 386Q189 419 210 439T266 460Q300 460 321 440T343 386Q343 353 322 333T266 312Q232 312 211 332ZM152 -250T95 -198T38 -60Q38 -9 61 23T130 94Q170 129 189 154T208
216V254H326V216Q326 180 313 152T282 103T232 54Q194 20 176 -4T158 -60Q158 -105 182 -129T254 -153Q304 -153 337 -127T391 -45L488 -90Q462 -166 399 -208T251 -250Q152 -250 95 -198Z" />
<glyph unicode="&#xc0;" glyph-name="Agrave" horiz-adv-x="697" d="M283 664Q303 718 353 718Q385 718 404 704T423 668Q423 662 419 650L660 0H536L470 187H226L160 0H37L283 664ZM444 281L349 554L254 281H444ZM186 956H317L402 770H306L186 956Z" />
<glyph unicode="&#xc1;" glyph-name="Aacute" horiz-adv-x="697" d="M283 664Q303 718 353 718Q385 718 404 704T423 668Q423 662 419 650L660 0H536L470 187H226L160 0H37L283 664ZM444 281L349 554L254 281H444ZM387 956H518L398 770H303L387 956Z" />
<glyph unicode="&#xc2;" glyph-name="Acircumflex" horiz-adv-x="697" d="M283 664Q303 718 353 718Q385 718 404 704T423 668Q423 662 419 650L660 0H536L470 187H226L160 0H37L283 664ZM444 281L349 554L254 281H444ZM303 929Q317 946 328 952T359 959Q385 959
399 949T413 924Q413 921 411 915L409 910L537 772H417L351 859L290 772H172L303 929Z" />
<glyph unicode="&#xc3;" glyph-name="Atilde" horiz-adv-x="697" d="M283 664Q303 718 353 718Q385 718 404 704T423 668Q423 662 419 650L660 0H536L470 187H226L160 0H37L283 664ZM444 281L349 554L254 281H444ZM181 812Q188 854 217 881T282 908Q307 908 327
900T371 877Q400 859 414 859Q433 859 443 870T458 907L518 877Q517 831 493 805T429 778Q407 778 388 785T344 806Q310 825 294 825Q256 825 247 778L181 812Z" />
<glyph unicode="&#xc4;" glyph-name="Adieresis" horiz-adv-x="697" d="M283 664Q303 718 353 718Q385 718 404 704T423 668Q423 662 419 650L660 0H536L470 187H226L160 0H37L283 664ZM444 281L349 554L254 281H444ZM215 779T195 798T174 847Q174 876 194 895T246
915Q276 915 295 896T315 847Q315 818 296 799T246 779Q215 779 195 798ZM433 779T413 798T393 847Q393 876 413 895T464 915Q494 915 514 896T534 847Q534 818 514 799T464 779Q433 779 413 798Z" />
<glyph unicode="&#xc5;" glyph-name="Aring" horiz-adv-x="697" d="M283 664Q303 718 353 718Q385 718 404 704T423 668Q423 662 419 650L660 0H536L470 187H226L160 0H37L283 664ZM444 281L349 554L254 281H444ZM305 747T270 774T234 852Q234 903 269 931T353
959Q401 959 436 931T472 852Q472 802 437 775T353 747Q305 747 270 774ZM372 811T384 822T397 852Q397 873 385 884T353 896Q334 896 322 885T309 852Q309 833 321 822T353 811Q372 811 384 822Z" />
<glyph unicode="&#xc6;" glyph-name="AE" horiz-adv-x="827" d="M312 700H780V598H490V416H696V318H490V102H789V0H374V187H232L162 0H38L312 700ZM374 281V578L261 281H374Z" />
<glyph unicode="&#xc7;" glyph-name="Ccedilla" horiz-adv-x="643" d="M570 49T516 23T400 -9L377 -45Q454 -60 454 -130Q454 -171 423 -197T337 -224Q276 -224 223 -184L254 -128Q290 -153 324 -153Q360 -153 360 -121Q360 -106 350 -98T321 -90Q316 -90 300
-92L278 -68L315 -6Q183 10 111 104T38 351Q38 462 76 543T188 667T364 710Q432 710 489 687T583 621L537 540Q502 577 463 595T364 613Q266 613 212 544T158 351Q158 227 214 157T374 87Q425 87 464 104T535 157L605 91Q570 49 516 23Z" />
<glyph unicode="&#xc8;" glyph-name="Egrave" horiz-adv-x="543" d="M68 587Q68 607 63 617T48 637Q42 644 40 648T40 661Q47 682 63 700T99 718Q117 718 135 700H496V598H186V416H412V318H186V102H505V0H68V587ZM117 956H248L333 770H237L117 956Z" />
<glyph unicode="&#xc9;" glyph-name="Eacute" horiz-adv-x="543" d="M68 587Q68 607 63 617T48 637Q42 644 40 648T40 661Q47 682 63 700T99 718Q117 718 135 700H496V598H186V416H412V318H186V102H505V0H68V587ZM318 956H449L329 770H234L318 956Z" />
<glyph unicode="&#xca;" glyph-name="Ecircumflex" horiz-adv-x="543" d="M68 587Q68 607 63 617T48 637Q42 644 40 648T40 661Q47 682 63 700T99 718Q117 718 135 700H496V598H186V416H412V318H186V102H505V0H68V587ZM234 929Q248 946 259 952T290 959Q316 959
330 949T344 924Q344 921 342 915L340 910L468 772H348L282 859L221 772H103L234 929Z" />
<glyph unicode="&#xcb;" glyph-name="Edieresis" horiz-adv-x="543" d="M68 587Q68 607 63 617T48 637Q42 644 40 648T40 661Q47 682 63 700T99 718Q117 718 135 700H496V598H186V416H412V318H186V102H505V0H68V587ZM146 779T126 798T105 847Q105 876 125 895T177
915Q207 915 226 896T246 847Q246 818 227 799T177 779Q146 779 126 798ZM364 779T344 798T324 847Q324 876 344 895T395 915Q425 915 445 896T465 847Q465 818 445 799T395 779Q364 779 344 798Z" />
<glyph unicode="&#xcc;" glyph-name="Igrave" horiz-adv-x="298" d="M90 700H208V0H90V700ZM-18 956H113L198 770H102L-18 956Z" />
<glyph unicode="&#xcd;" glyph-name="Iacute" horiz-adv-x="298" d="M90 700H208V0H90V700ZM183 956H314L194 770H99L183 956Z" />
<glyph unicode="&#xce;" glyph-name="Icircumflex" horiz-adv-x="298" d="M90 700H208V0H90V700ZM99 929Q113 946 124 952T155 959Q181 959 195 949T209 924Q209 921 207 915L205 910L333 772H213L147 859L86 772H-32L99 929Z" />
<glyph unicode="&#xcf;" glyph-name="Idieresis" horiz-adv-x="298" d="M90 700H208V0H90V700ZM11 779T-9 798T-30 847Q-30 876 -10 895T42 915Q72 915 91 896T111 847Q111 818 92 799T42 779Q11 779 -9 798ZM229 779T209 798T189 847Q189 876 209 895T260 915Q290
915 310 896T330 847Q330 818 310 799T260 779Q229 779 209 798Z" />
<glyph unicode="&#xd0;" glyph-name="Eth" horiz-adv-x="679" d="M404 700T481 658T600 537T641 352Q641 186 554 93T304 0H94V306H38V392H94V587Q94 607 89 617T74 637Q68 644 66 648T66 661Q73 682 89 700T125 718Q143 718 161 700H299Q404 700 481 658ZM521
102T521 352Q521 472 464 535T296 598H212V392H366V306H212V102H304Q521 102 521 352Z" />
<glyph unicode="&#xd1;" glyph-name="Ntilde" horiz-adv-x="623" d="M61 604Q61 615 58 622T48 636Q38 648 38 657Q38 659 40 669Q47 692 65 705T106 718Q141 718 158 691L455 213V700H573V0H473L179 470V0H61V604ZM152 812Q159 854 188 881T253 908Q278 908 298
900T342 877Q371 859 385 859Q404 859 414 870T429 907L489 877Q488 831 464 805T400 778Q378 778 359 785T315 806Q281 825 265 825Q227 825 218 778L152 812Z" />
<glyph unicode="&#xd2;" glyph-name="Ograve" horiz-adv-x="683" d="M246 -10T178 34T74 160T38 350Q38 459 73 540T177 665T341 710Q437 710 505 666T608 540T644 350Q644 241 609 160T505 35T341 -10Q246 -10 178 34ZM432 87T478 157T524 350Q524 473 478 543T341
613Q251 613 205 543T158 350Q158 227 204 157T341 87Q432 87 478 157ZM174 956H305L390 770H294L174 956Z" />
<glyph unicode="&#xd3;" glyph-name="Oacute" horiz-adv-x="683" d="M246 -10T178 34T74 160T38 350Q38 459 73 540T177 665T341 710Q437 710 505 666T608 540T644 350Q644 241 609 160T505 35T341 -10Q246 -10 178 34ZM432 87T478 157T524 350Q524 473 478 543T341
613Q251 613 205 543T158 350Q158 227 204 157T341 87Q432 87 478 157ZM375 956H506L386 770H291L375 956Z" />
<glyph unicode="&#xd4;" glyph-name="Ocircumflex" horiz-adv-x="683" d="M246 -10T178 34T74 160T38 350Q38 459 73 540T177 665T341 710Q437 710 505 666T608 540T644 350Q644 241 609 160T505 35T341 -10Q246 -10 178 34ZM432 87T478 157T524 350Q524 473 478
543T341 613Q251 613 205 543T158 350Q158 227 204 157T341 87Q432 87 478 157ZM291 929Q305 946 316 952T347 959Q373 959 387 949T401 924Q401 921 399 915L397 910L525 772H405L339 859L278 772H160L291 929Z" />
<glyph unicode="&#xd5;" glyph-name="Otilde" horiz-adv-x="683" d="M246 -10T178 34T74 160T38 350Q38 459 73 540T177 665T341 710Q437 710 505 666T608 540T644 350Q644 241 609 160T505 35T341 -10Q246 -10 178 34ZM432 87T478 157T524 350Q524 473 478 543T341
613Q251 613 205 543T158 350Q158 227 204 157T341 87Q432 87 478 157ZM169 812Q176 854 205 881T270 908Q295 908 315 900T359 877Q388 859 402 859Q421 859 431 870T446 907L506 877Q505 831 481 805T417 778Q395 778 376 785T332 806Q298 825 282 825Q244 825
235 778L169 812Z" />
<glyph unicode="&#xd6;" glyph-name="Odieresis" horiz-adv-x="683" d="M246 -10T178 34T74 160T38 350Q38 459 73 540T177 665T341 710Q437 710 505 666T608 540T644 350Q644 241 609 160T505 35T341 -10Q246 -10 178 34ZM432 87T478 157T524 350Q524 473 478
543T341 613Q251 613 205 543T158 350Q158 227 204 157T341 87Q432 87 478 157ZM203 779T183 798T162 847Q162 876 182 895T234 915Q264 915 283 896T303 847Q303 818 284 799T234 779Q203 779 183 798ZM421 779T401 798T381 847Q381 876 401 895T452 915Q482 915
502 896T522 847Q522 818 502 799T452 779Q421 779 401 798Z" />
<glyph unicode="&#xd7;" glyph-name="multiply" horiz-adv-x="548" d="M60 143L202 282L60 423L133 494L275 354L415 494L488 423L347 282L488 140L415 69L275 210L133 72L60 143Z" />
<glyph unicode="&#xd8;" glyph-name="Oslash" horiz-adv-x="683" d="M584 605T614 528T644 350Q644 241 609 160T505 35T341 -10Q248 -10 183 31L126 -71L81 -46L141 63Q91 110 65 183T38 350Q38 459 73 540T177 665T341 710Q421 710 483 678L534 771L579 746L526
651Q584 605 614 528ZM158 233T199 166L433 588Q392 613 341 613Q251 613 205 543T158 350Q158 233 199 166ZM432 87T478 157T524 350Q524 484 471 552L234 124Q277 87 341 87Q432 87 478 157Z" />
<glyph unicode="&#xd9;" glyph-name="Ugrave" horiz-adv-x="640" d="M191 -10T118 60T45 256V700H163V250Q163 172 204 130T320 87Q394 87 435 129T477 250V700H595V256Q595 130 522 60T320 -10Q191 -10 118 60ZM153 956H284L369 770H273L153 956Z" />
<glyph unicode="&#xda;" glyph-name="Uacute" horiz-adv-x="640" d="M191 -10T118 60T45 256V700H163V250Q163 172 204 130T320 87Q394 87 435 129T477 250V700H595V256Q595 130 522 60T320 -10Q191 -10 118 60ZM354 956H485L365 770H270L354 956Z" />
<glyph unicode="&#xdb;" glyph-name="Ucircumflex" horiz-adv-x="640" d="M191 -10T118 60T45 256V700H163V250Q163 172 204 130T320 87Q394 87 435 129T477 250V700H595V256Q595 130 522 60T320 -10Q191 -10 118 60ZM270 929Q284 946 295 952T326 959Q352 959
366 949T380 924Q380 921 378 915L376 910L504 772H384L318 859L257 772H139L270 929Z" />
<glyph unicode="&#xdc;" glyph-name="Udieresis" horiz-adv-x="640" d="M191 -10T118 60T45 256V700H163V250Q163 172 204 130T320 87Q394 87 435 129T477 250V700H595V256Q595 130 522 60T320 -10Q191 -10 118 60ZM182 779T162 798T141 847Q141 876 161 895T213
915Q243 915 262 896T282 847Q282 818 263 799T213 779Q182 779 162 798ZM400 779T380 798T360 847Q360 876 380 895T431 915Q461 915 481 896T501 847Q501 818 481 799T431 779Q400 779 380 798Z" />
<glyph unicode="&#xdd;" glyph-name="Yacute" horiz-adv-x="653" d="M270 269L38 700H166L327 377L487 700H615L384 269V0H270V269ZM361 956H492L372 770H277L361 956Z" />
<glyph unicode="&#xde;" glyph-name="Thorn" horiz-adv-x="588" d="M57 700H175V571H280Q406 571 478 514T550 350Q550 244 478 187T280 129H175V0H57V700ZM277 231Q350 231 390 262T430 350Q430 407 390 438T277 469H175V231H277Z" />
<glyph unicode="&#xdf;" glyph-name="germandbls" horiz-adv-x="607" d="M45 493Q45 555 76 604T162 682T289 710Q360 710 415 687T500 620T531 520Q531 465 501 428T417 374V372Q569 338 569 202Q569 106 512 48T351 -10Q313 -10 274 -3T205 16L236 104Q281 83
342 83Q395 83 422 115T449 203Q449 267 407 294T280 322H239V415H280Q346 415 378 440T411 520Q411 568 380 592T289 617Q227 617 195 586T162 495V-250H45V493Z" />
<glyph unicode="&#xe0;" glyph-name="agrave" horiz-adv-x="579" d="M189 -10T141 20T65 105T38 235Q38 314 65 372T144 463T264 495Q350 495 405 428V485H517V132Q517 96 522 73T541 27L447 -10Q419 21 415 68H412Q384 31 344 11T253 -10Q189 -10 141 20ZM337
83T370 123T403 229V255Q403 315 371 358T278 402Q219 402 187 358T155 235Q155 163 186 123T275 83Q337 83 370 123ZM111 741H242L327 555H231L111 741Z" />
<glyph unicode="&#xe1;" glyph-name="aacute" horiz-adv-x="579" d="M189 -10T141 20T65 105T38 235Q38 314 65 372T144 463T264 495Q350 495 405 428V485H517V132Q517 96 522 73T541 27L447 -10Q419 21 415 68H412Q384 31 344 11T253 -10Q189 -10 141 20ZM337
83T370 123T403 229V255Q403 315 371 358T278 402Q219 402 187 358T155 235Q155 163 186 123T275 83Q337 83 370 123ZM312 741H443L323 555H228L312 741Z" />
<glyph unicode="&#xe2;" glyph-name="acircumflex" horiz-adv-x="579" d="M189 -10T141 20T65 105T38 235Q38 314 65 372T144 463T264 495Q350 495 405 428V485H517V132Q517 96 522 73T541 27L447 -10Q419 21 415 68H412Q384 31 344 11T253 -10Q189 -10 141 20ZM337
83T370 123T403 229V255Q403 315 371 358T278 402Q219 402 187 358T155 235Q155 163 186 123T275 83Q337 83 370 123ZM228 714Q242 731 253 737T284 744Q310 744 324 734T338 709Q338 706 336 700L334 695L462 557H342L276 644L215 557H97L228 714Z" />
<glyph unicode="&#xe3;" glyph-name="atilde" horiz-adv-x="579" d="M189 -10T141 20T65 105T38 235Q38 314 65 372T144 463T264 495Q350 495 405 428V485H517V132Q517 96 522 73T541 27L447 -10Q419 21 415 68H412Q384 31 344 11T253 -10Q189 -10 141 20ZM337
83T370 123T403 229V255Q403 315 371 358T278 402Q219 402 187 358T155 235Q155 163 186 123T275 83Q337 83 370 123ZM106 597Q113 639 142 666T207 693Q232 693 252 685T296 662Q325 644 339 644Q358 644 368 655T383 692L443 662Q442 616 418 590T354 563Q332
563 313 570T269 591Q235 610 219 610Q181 610 172 563L106 597Z" />
<glyph unicode="&#xe4;" glyph-name="adieresis" horiz-adv-x="579" d="M189 -10T141 20T65 105T38 235Q38 314 65 372T144 463T264 495Q350 495 405 428V485H517V132Q517 96 522 73T541 27L447 -10Q419 21 415 68H412Q384 31 344 11T253 -10Q189 -10 141 20ZM337
83T370 123T403 229V255Q403 315 371 358T278 402Q219 402 187 358T155 235Q155 163 186 123T275 83Q337 83 370 123ZM140 564T120 583T99 632Q99 661 119 680T171 700Q201 700 220 681T240 632Q240 603 221 584T171 564Q140 564 120 583ZM358 564T338 583T318
632Q318 661 338 680T389 700Q419 700 439 681T459 632Q459 603 439 584T389 564Q358 564 338 583Z" />
<glyph unicode="&#xe5;" glyph-name="aring" horiz-adv-x="579" d="M189 -10T141 20T65 105T38 235Q38 314 65 372T144 463T264 495Q350 495 405 428V485H517V132Q517 96 522 73T541 27L447 -10Q419 21 415 68H412Q384 31 344 11T253 -10Q189 -10 141 20ZM337
83T370 123T403 229V255Q403 315 371 358T278 402Q219 402 187 358T155 235Q155 163 186 123T275 83Q337 83 370 123ZM230 532T195 559T159 637Q159 688 194 716T278 744Q326 744 361 716T397 637Q397 587 362 560T278 532Q230 532 195 559ZM297 596T309 607T322
637Q322 658 310 669T278 681Q259 681 247 670T234 637Q234 618 246 607T278 596Q297 596 309 607Z" />
<glyph unicode="&#xe6;" glyph-name="ae" horiz-adv-x="901" d="M143 -10T91 32T38 148Q38 222 92 263T241 304H377V313Q377 349 345 375T264 402Q219 402 184 388T114 345L55 411Q94 449 150 472T267 495Q324 495 368 472T438 409H439Q466 447 515 471T624 495Q743
495 803 429T863 258Q863 227 845 214T790 200H495V190Q494 146 532 116T633 85Q720 85 777 142L836 75Q753 -10 633 -10Q564 -10 511 19T435 92H434Q404 48 348 19T228 -10Q143 -10 91 32ZM746 290Q746 341 714 371T622 402Q585 402 556 388T510 349T494 300V290H746ZM305
85T341 115T378 189V214H237Q154 214 154 151Q154 85 242 85Q305 85 341 115Z" />
<glyph unicode="&#xe7;" glyph-name="ccedilla" horiz-adv-x="528" d="M461 37T419 17T329 -9L305 -45Q382 -60 382 -130Q382 -171 351 -197T265 -224Q204 -224 151 -184L182 -128Q218 -153 252 -153Q288 -153 288 -121Q288 -106 278 -98T249 -90Q244 -90 228
-92L206 -68L244 -6Q147 9 93 74T38 242Q38 360 106 427T295 495Q349 495 396 478T474 431L433 353Q407 375 373 387T300 400Q233 400 195 361T156 242Q156 165 195 125T304 85Q379 85 427 133L489 69Q461 37 419 17Z" />
<glyph unicode="&#xe8;" glyph-name="egrave" horiz-adv-x="554" d="M213 -10T156 20T69 107T38 239Q38 312 64 370T145 461T276 495Q353 495 407 462T489 374T516 256Q516 226 497 210T443 194H154Q154 145 191 115T291 85Q376 85 429 136L487 73Q455 34 405
12T291 -10Q213 -10 156 20ZM401 286Q401 336 367 369T276 402Q222 402 188 369T154 286H401ZM117 741H248L333 555H237L117 741Z" />
<glyph unicode="&#xe9;" glyph-name="eacute" horiz-adv-x="554" d="M213 -10T156 20T69 107T38 239Q38 312 64 370T145 461T276 495Q353 495 407 462T489 374T516 256Q516 226 497 210T443 194H154Q154 145 191 115T291 85Q376 85 429 136L487 73Q455 34 405
12T291 -10Q213 -10 156 20ZM401 286Q401 336 367 369T276 402Q222 402 188 369T154 286H401ZM318 741H449L329 555H234L318 741Z" />
<glyph unicode="&#xea;" glyph-name="ecircumflex" horiz-adv-x="554" d="M213 -10T156 20T69 107T38 239Q38 312 64 370T145 461T276 495Q353 495 407 462T489 374T516 256Q516 226 497 210T443 194H154Q154 145 191 115T291 85Q376 85 429 136L487 73Q455 34
405 12T291 -10Q213 -10 156 20ZM401 286Q401 336 367 369T276 402Q222 402 188 369T154 286H401ZM234 714Q248 731 259 737T290 744Q316 744 330 734T344 709Q344 706 342 700L340 695L468 557H348L282 644L221 557H103L234 714Z" />
<glyph unicode="&#xeb;" glyph-name="edieresis" horiz-adv-x="554" d="M213 -10T156 20T69 107T38 239Q38 312 64 370T145 461T276 495Q353 495 407 462T489 374T516 256Q516 226 497 210T443 194H154Q154 145 191 115T291 85Q376 85 429 136L487 73Q455 34 405
12T291 -10Q213 -10 156 20ZM401 286Q401 336 367 369T276 402Q222 402 188 369T154 286H401ZM146 564T126 583T105 632Q105 661 125 680T177 700Q207 700 226 681T246 632Q246 603 227 584T177 564Q146 564 126 583ZM364 564T344 583T324 632Q324 661 344 680T395
700Q425 700 445 681T465 632Q465 603 445 584T395 564Q364 564 344 583Z" />
<glyph unicode="&#xec;" glyph-name="igrave" horiz-adv-x="268" d="M76 485H192V0H76V485ZM-33 741H98L183 555H87L-33 741Z" />
<glyph unicode="&#xed;" glyph-name="iacute" horiz-adv-x="268" d="M76 485H192V0H76V485ZM168 741H299L179 555H84L168 741Z" />
<glyph unicode="&#xee;" glyph-name="icircumflex" horiz-adv-x="268" d="M76 485H192V0H76V485ZM84 714Q98 731 109 737T140 744Q166 744 180 734T194 709Q194 706 192 700L190 695L318 557H198L132 644L71 557H-47L84 714Z" />
<glyph unicode="&#xef;" glyph-name="idieresis" horiz-adv-x="268" d="M76 485H192V0H76V485ZM-4 564T-24 583T-45 632Q-45 661 -25 680T27 700Q57 700 76 681T96 632Q96 603 77 584T27 564Q-4 564 -24 583ZM214 564T194 583T174 632Q174 661 194 680T245 700Q275
700 295 681T315 632Q315 603 295 584T245 564Q214 564 194 583Z" />
<glyph unicode="&#xf0;" glyph-name="eth" horiz-adv-x="647" d="M237 -10T173 22T73 113T37 250Q37 327 71 385T169 475T319 507Q372 507 415 484L418 487Q379 549 321 586L171 517L132 601L231 645Q192 669 128 690L170 773Q225 755 262 739T340 697L492 768L532
684L425 634Q512 560 561 463T611 261Q611 186 575 124T473 26T321 -10Q237 -10 173 22ZM396 87T442 132T489 252Q489 325 443 368T323 411Q249 411 203 367T157 250Q157 176 202 132T321 87Q396 87 442 132Z" />
<glyph unicode="&#xf1;" glyph-name="ntilde" horiz-adv-x="563" d="M387 46T387 120V291Q387 347 365 373T296 400Q242 400 209 358T176 255V0H60V354Q60 386 56 408T38 455L141 495Q150 480 157 458T166 416Q194 451 237 473T329 495Q503 495 503 291V122Q503
69 524 29L419 -10Q387 46 387 120ZM114 597Q121 639 150 666T215 693Q240 693 260 685T304 662Q333 644 347 644Q366 644 376 655T391 692L451 662Q450 616 426 590T362 563Q340 563 321 570T277 591Q243 610 227 610Q189 610 180 563L114 597Z" />
<glyph unicode="&#xf2;" glyph-name="ograve" horiz-adv-x="561" d="M206 -11T151 21T67 110T38 242Q38 316 67 373T151 463T281 495Q356 495 410 463T494 374T523 242Q523 168 494 111T411 21T281 -11Q206 -11 151 21ZM342 84T373 126T405 242Q405 316 374 358T281
400Q220 400 188 358T156 242Q156 169 188 127T281 84Q342 84 373 126ZM114 741H245L330 555H234L114 741Z" />
<glyph unicode="&#xf3;" glyph-name="oacute" horiz-adv-x="561" d="M206 -11T151 21T67 110T38 242Q38 316 67 373T151 463T281 495Q356 495 410 463T494 374T523 242Q523 168 494 111T411 21T281 -11Q206 -11 151 21ZM342 84T373 126T405 242Q405 316 374 358T281
400Q220 400 188 358T156 242Q156 169 188 127T281 84Q342 84 373 126ZM315 741H446L326 555H231L315 741Z" />
<glyph unicode="&#xf4;" glyph-name="ocircumflex" horiz-adv-x="561" d="M206 -11T151 21T67 110T38 242Q38 316 67 373T151 463T281 495Q356 495 410 463T494 374T523 242Q523 168 494 111T411 21T281 -11Q206 -11 151 21ZM342 84T373 126T405 242Q405 316 374
358T281 400Q220 400 188 358T156 242Q156 169 188 127T281 84Q342 84 373 126ZM231 714Q245 731 256 737T287 744Q313 744 327 734T341 709Q341 706 339 700L337 695L465 557H345L279 644L218 557H100L231 714Z" />
<glyph unicode="&#xf5;" glyph-name="otilde" horiz-adv-x="561" d="M206 -11T151 21T67 110T38 242Q38 316 67 373T151 463T281 495Q356 495 410 463T494 374T523 242Q523 168 494 111T411 21T281 -11Q206 -11 151 21ZM342 84T373 126T405 242Q405 316 374 358T281
400Q220 400 188 358T156 242Q156 169 188 127T281 84Q342 84 373 126ZM109 597Q116 639 145 666T210 693Q235 693 255 685T299 662Q328 644 342 644Q361 644 371 655T386 692L446 662Q445 616 421 590T357 563Q335 563 316 570T272 591Q238 610 222 610Q184 610
175 563L109 597Z" />
<glyph unicode="&#xf6;" glyph-name="odieresis" horiz-adv-x="561" d="M206 -11T151 21T67 110T38 242Q38 316 67 373T151 463T281 495Q356 495 410 463T494 374T523 242Q523 168 494 111T411 21T281 -11Q206 -11 151 21ZM342 84T373 126T405 242Q405 316 374
358T281 400Q220 400 188 358T156 242Q156 169 188 127T281 84Q342 84 373 126ZM143 564T123 583T102 632Q102 661 122 680T174 700Q204 700 223 681T243 632Q243 603 224 584T174 564Q143 564 123 583ZM361 564T341 583T321 632Q321 661 341 680T392 700Q422 700
442 681T462 632Q462 603 442 584T392 564Q361 564 341 583Z" />
<glyph unicode="&#xf7;" glyph-name="divide" horiz-adv-x="548" d="M245 390T226 408T207 454Q207 481 226 500T274 519Q303 519 322 500T341 454Q341 427 322 409T274 390Q245 390 226 408ZM52 332H496V238H52V332ZM245 48T226 66T207 112Q207 139 226 158T274
177Q303 177 322 158T341 112Q341 85 322 67T274 48Q245 48 226 66Z" />
<glyph unicode="&#xf8;" glyph-name="oslash" horiz-adv-x="561" d="M472 421T497 366T523 242Q523 168 494 111T411 21T281 -11Q226 -11 178 8L134 -71L89 -46L133 33Q87 66 63 120T38 242Q38 316 67 373T151 463T281 495Q335 495 380 478L423 556L468 531L425
454Q472 421 497 366ZM156 171T186 129L331 391Q310 400 281 400Q220 400 188 358T156 242Q156 171 186 129ZM342 84T373 126T405 242Q405 316 373 359L226 95Q251 84 281 84Q342 84 373 126Z" />
<glyph unicode="&#xf9;" glyph-name="ugrave" horiz-adv-x="548" d="M148 -10T97 45T45 194V485H161V194Q161 139 186 112T263 85Q316 85 344 122T372 218V485H488V131Q488 99 492 77T510 30L407 -10Q398 4 391 27T382 69Q331 -10 233 -10Q148 -10 97 45ZM110
741H241L326 555H230L110 741Z" />
<glyph unicode="&#xfa;" glyph-name="uacute" horiz-adv-x="548" d="M148 -10T97 45T45 194V485H161V194Q161 139 186 112T263 85Q316 85 344 122T372 218V485H488V131Q488 99 492 77T510 30L407 -10Q398 4 391 27T382 69Q331 -10 233 -10Q148 -10 97 45ZM311
741H442L322 555H227L311 741Z" />
<glyph unicode="&#xfb;" glyph-name="ucircumflex" horiz-adv-x="548" d="M148 -10T97 45T45 194V485H161V194Q161 139 186 112T263 85Q316 85 344 122T372 218V485H488V131Q488 99 492 77T510 30L407 -10Q398 4 391 27T382 69Q331 -10 233 -10Q148 -10 97 45ZM227
714Q241 731 252 737T283 744Q309 744 323 734T337 709Q337 706 335 700L333 695L461 557H341L275 644L214 557H96L227 714Z" />
<glyph unicode="&#xfc;" glyph-name="udieresis" horiz-adv-x="548" d="M148 -10T97 45T45 194V485H161V194Q161 139 186 112T263 85Q316 85 344 122T372 218V485H488V131Q488 99 492 77T510 30L407 -10Q398 4 391 27T382 69Q331 -10 233 -10Q148 -10 97 45ZM139
564T119 583T98 632Q98 661 118 680T170 700Q200 700 219 681T239 632Q239 603 220 584T170 564Q139 564 119 583ZM357 564T337 583T317 632Q317 661 337 680T388 700Q418 700 438 681T458 632Q458 603 438 584T388 564Q357 564 337 583Z" />
<glyph unicode="&#xfd;" glyph-name="yacute" horiz-adv-x="582" d="M74 -135Q140 -112 180 -72T237 37L38 485H173L297 163L410 485H544L346 -6Q309 -97 256 -147T108 -229L74 -135ZM326 741H457L337 555H242L326 741Z" />
<glyph unicode="&#xfe;" glyph-name="thorn" horiz-adv-x="567" d="M47 704H163V432Q188 462 226 479T311 497Q376 497 425 466T502 378T529 244Q529 126 469 59T305 -8Q261 -8 225 9T163 57V-219H47V704ZM350 85T381 126T412 244Q412 318 381 360T291 403Q229
403 195 363T161 258V232Q161 171 194 128T287 85Q350 85 381 126Z" />
<glyph unicode="&#xff;" glyph-name="ydieresis" horiz-adv-x="582" d="M74 -135Q140 -112 180 -72T237 37L38 485H173L297 163L410 485H544L346 -6Q309 -97 256 -147T108 -229L74 -135ZM154 564T134 583T113 632Q113 661 133 680T185 700Q215 700 234 681T254
632Q254 603 235 584T185 564Q154 564 134 583ZM372 564T352 583T332 632Q332 661 352 680T403 700Q433 700 453 681T473 632Q473 603 453 584T403 564Q372 564 352 583Z" />
<glyph unicode="&#x2013;" glyph-name="endash" horiz-adv-x="619" d="M38 332H581V238H38V332Z" />
<glyph unicode="&#x2014;" glyph-name="emdash" horiz-adv-x="799" d="M38 332H761V238H38V332Z" />
<glyph unicode="&#x2018;" glyph-name="quoteleft" horiz-adv-x="240" d="M80 431T59 453T38 513Q38 566 72 611T171 687L202 629Q177 617 158 600T131 564Q157 565 175 547T193 503Q193 470 172 451T117 431Q80 431 59 453Z" />
<glyph unicode="&#x2019;" glyph-name="quoteright" horiz-adv-x="241" d="M38 489Q63 500 83 518T110 554Q84 553 66 571T48 615Q48 648 69 667T124 687Q160 687 181 665T202 605Q202 552 168 507T69 431L38 489Z" />
<glyph unicode="&#x201a;" glyph-name="quotesinglbase" horiz-adv-x="241" d="M38 -102Q63 -91 83 -73T110 -37Q84 -38 66 -20T48 24Q48 57 69 76T124 96Q160 96 181 74T202 14Q202 -39 168 -84T69 -160L38 -102Z" />
<glyph unicode="&#x201c;" glyph-name="quotedblleft" horiz-adv-x="425" d="M80 431T59 453T38 513Q38 566 72 611T171 687L202 629Q177 617 158 600T131 564Q157 565 175 547T193 503Q193 470 172 451T117 431Q80 431 59 453ZM265 431T244 453T223 513Q223 566
257 611T356 687L387 629Q362 617 343 600T316 564Q342 565 360 547T378 503Q378 470 357 451T302 431Q265 431 244 453Z" />
<glyph unicode="&#x201d;" glyph-name="quotedblright" horiz-adv-x="425" d="M38 489Q63 500 83 518T110 554Q84 553 66 571T48 615Q48 648 69 667T124 687Q160 687 181 665T202 605Q202 552 168 507T69 431L38 489ZM223 489Q248 500 268 518T295 554Q269 553
251 571T233 615Q233 648 254 667T309 687Q345 687 366 665T387 605Q387 552 353 507T254 431L223 489Z" />
<glyph unicode="&#x201e;" glyph-name="quotedblbase" horiz-adv-x="425" d="M38 -102Q63 -91 83 -73T110 -37Q84 -38 66 -20T48 24Q48 57 69 76T124 96Q160 96 181 74T202 14Q202 -39 168 -84T69 -160L38 -102ZM223 -102Q248 -91 268 -73T295 -37Q269 -38 251
-20T233 24Q233 57 254 76T309 96Q345 96 366 74T387 14Q387 -39 353 -84T254 -160L223 -102Z" />
<glyph unicode="&#x2022;" glyph-name="bullet" horiz-adv-x="387" d="M126 129T82 169T38 274Q38 340 82 381T194 423Q261 423 305 382T349 274Q349 209 305 169T194 129Q126 129 82 169Z" />
<glyph unicode="&#x2039;" glyph-name="guilsinglleft" horiz-adv-x="334" d="M46 236Q38 247 38 260Q38 273 46 284L173 477H296L157 260L296 43H173L46 236Z" />
<glyph unicode="&#x203a;" glyph-name="guilsinglright" horiz-adv-x="334" d="M177 260L38 477H161L288 284Q296 273 296 260Q296 247 288 236L161 43H38L177 260Z" />
</font>
</defs>
</svg>
