<?xml version="1.0" standalone="no"?>
<!DOCTYPE svg PUBLIC "-//W3C//DTD SVG 1.1//EN" "http://www.w3.org/Graphics/SVG/1.1/DTD/svg11.dtd">
<svg xmlns="http://www.w3.org/2000/svg">
<defs >
<font id="Niramit" horiz-adv-x="563" ><font-face
    font-family="Niramit SemiBold"
    units-per-em="1000"
    panose-1="0 0 7 0 0 0 0 0 0 0"
    ascent="1105"
    descent="-195"
    alphabetic="0" />
<glyph unicode=" " glyph-name="space" horiz-adv-x="258" />
<glyph unicode="!" glyph-name="exclam" horiz-adv-x="254" d="M148 700H267L171 206H71L148 700ZM56 0T38 16T20 59Q20 97 46 122T112 148Q141 148 159 132T177 89Q177 52 150 26T85 0Q56 0 38 16Z" />
<glyph unicode="&quot;" glyph-name="quotedbl" horiz-adv-x="352" d="M120 693H236L194 503H95L120 693ZM279 693H395L353 503H254L279 693Z" />
<glyph unicode="#" glyph-name="numbersign" horiz-adv-x="710" d="M594 417L552 270H652L635 176H524L473 0H358L409 176H257L206 0H91L142 176H28L45 270H170L212 417H95L112 511H240L292 690H407L355 511H507L559 690H674L622 511H720L703 417H594ZM479 417H327L285
270H437L479 417Z" />
<glyph unicode="$" glyph-name="dollar" horiz-adv-x="596" d="M463 355T506 311T549 207Q549 107 480 50T287 -10L271 -98H221L237 -8Q165 -1 107 28T15 105L98 176Q128 136 166 115T254 89L291 300L287 302Q104 372 104 494Q104 591 174 649T363 710L379 799H429L413
708Q471 703 521 681T605 626L530 547Q498 578 468 593T396 612L358 397L366 394Q463 355 506 311ZM226 479T245 459T312 417L346 612Q288 608 257 581T226 508Q226 479 245 459ZM363 90T395 117T427 191Q427 218 408 237T338 281L304 87Q363 90 395 117Z" />
<glyph unicode="%" glyph-name="percent" horiz-adv-x="791" d="M163 366T126 400T89 497Q89 560 113 608T182 683T284 710Q349 710 386 676T423 579Q423 516 398 468T329 393T227 366Q163 366 126 400ZM592 710H712L240 -10H120L592 710ZM270 458T289 488T308
566Q308 590 298 603T270 617Q241 617 222 586T203 509Q203 485 213 472T242 458Q270 458 289 488ZM483 -10T446 23T409 121Q409 184 433 232T502 307T605 334Q670 334 706 300T742 203Q742 140 718 92T649 17T547 -10Q483 -10 446 23ZM591 82T610 113T629 190Q629
214 619 227T590 241Q561 241 542 211T523 133Q523 109 533 96T562 82Q591 82 610 113Z" />
<glyph unicode="&amp;" glyph-name="ampersand" horiz-adv-x="740" d="M143 -10T86 36T28 159Q28 233 77 298T221 414Q197 446 186 473T174 532Q174 583 199 623T270 687T372 710Q439 710 478 677T518 588Q518 543 498 508T450 449T380 397L490 248Q508 293 515
345H632Q626 289 608 242T555 150L660 0H523L472 73Q377 -10 243 -10Q143 -10 86 36ZM356 488T378 512T401 571Q401 591 389 604T356 617Q327 617 308 596T289 541Q289 523 297 506T325 468Q356 488 378 512ZM308 87T349 103T420 147L278 338Q221 307 186 269T150
177Q150 135 180 111T264 87Q308 87 349 103Z" />
<glyph unicode="&apos;" glyph-name="quotesingle" horiz-adv-x="196" d="M119 693H239L197 503H95L119 693Z" />
<glyph unicode="(" glyph-name="parenleft" horiz-adv-x="333" d="M75 -51T57 19T38 166Q38 352 108 495T263 730H381Q295 635 226 493T156 162Q156 88 174 20T232 -118H113Q75 -51 57 19Z" />
<glyph unicode=")" glyph-name="parenright" horiz-adv-x="333" d="M64 -23T132 118T201 448Q201 523 183 591T127 730H245Q283 661 301 591T319 444Q319 263 252 121T95 -118H-24Q64 -23 132 118Z" />
<glyph unicode="*" glyph-name="asterisk" horiz-adv-x="436" d="M215 341T201 352T186 382Q186 386 190 400L211 457L162 423Q145 410 124 410Q105 410 92 422T78 458Q78 475 90 489T123 510L196 537L132 564Q105 575 105 601Q105 618 118 637Q127 650 141 657T169
664Q188 664 203 651L239 617V674Q238 699 258 716T305 733Q327 733 341 722T355 692Q355 683 352 674L333 617L381 651Q401 664 419 664Q433 664 444 657T460 637Q463 627 463 618Q463 600 452 586T420 564L346 537L410 510Q439 499 439 473Q439 456 426 439Q416
425 403 418T374 410Q354 410 341 423L305 457L304 400Q303 374 284 358T236 341Q215 341 201 352Z" />
<glyph unicode="+" glyph-name="plus" horiz-adv-x="548" d="M510 238H332L300 56H182L214 238H36L53 332H231L263 514H381L349 332H527L510 238Z" />
<glyph unicode="," glyph-name="comma" horiz-adv-x="239" d="M-13 -60Q12 -50 34 -33T68 4Q45 4 30 19T15 55Q15 89 41 113T105 137Q137 137 154 121T171 75Q171 19 126 -33T7 -117L-13 -60Z" />
<glyph unicode="-" glyph-name="hyphen" horiz-adv-x="513" d="M55 332H491L475 238H39L55 332Z" />
<glyph unicode="." glyph-name="period" horiz-adv-x="217" d="M41 0T25 16T8 56Q8 88 33 112T91 136Q118 136 134 120T151 80Q151 48 126 24T67 0Q41 0 25 16Z" />
<glyph unicode="/" glyph-name="slash" horiz-adv-x="467" d="M394 710H512L115 -2H-3L394 710Z" />
<glyph unicode="0" glyph-name="zero" horiz-adv-x="645" d="M212 -10T161 22T81 112T53 246Q53 388 94 492T216 653T407 710Q475 710 526 679T604 589T632 456Q632 314 591 209T471 47T280 -10Q212 -10 161 22ZM362 87T410 132T485 258T512 447Q512 525 482 569T390
613Q324 613 276 570T201 445T174 255Q174 174 204 131T297 87Q362 87 410 132Z" />
<glyph unicode="1" glyph-name="one" horiz-adv-x="370" d="M238 521L133 444L79 521L311 690Q340 710 361 710Q383 710 396 691Q409 674 409 658Q409 638 383 620L372 611L264 0H146L238 521Z" />
<glyph unicode="2" glyph-name="two" horiz-adv-x="631" d="M26 0T15 5T3 27Q3 39 7 52Q15 81 27 90T62 100Q97 150 146 187T275 273Q347 316 388 347T458 420T486 518Q486 613 383 613Q310 613 267 574T200 445L90 456Q115 574 198 642T399 710Q499 710 553 663T607
532Q607 457 574 402T494 310T369 225Q308 189 271 162T207 102H438L477 164L574 129L494 0H53Q26 0 15 5Z" />
<glyph unicode="3" glyph-name="three" horiz-adv-x="659" d="M181 -10T114 42T32 196L146 232Q159 87 311 87Q400 87 450 133T500 262Q500 307 476 330T407 353Q384 353 358 346L340 326Q320 306 303 306Q286 306 263 325Q248 337 248 350Q248 361 268 388L448
606H268L223 517L141 576L206 700H616Q639 700 650 695T661 677Q661 665 651 645Q638 620 626 613T589 606H568L428 436Q452 444 479 444Q543 444 583 399T623 277Q623 190 584 125T470 25T294 -10Q181 -10 114 42Z" />
<glyph unicode="4" glyph-name="four" horiz-adv-x="628" d="M369 145H65Q44 145 32 155T20 181Q20 204 41 224L501 685Q523 709 549 709Q567 709 581 696Q601 679 601 661Q601 648 586 631L570 613L504 239H594L577 145H487L461 0H343L369 145ZM391 239L436 496L181
239H391Z" />
<glyph unicode="5" glyph-name="five" horiz-adv-x="632" d="M185 -10T120 21T16 111L102 182Q140 130 182 109T287 87Q344 87 388 112T456 184T480 291Q480 350 446 379T354 408Q297 408 253 383T166 303L84 334L171 613Q155 617 155 632Q155 639 162 660Q171
684 182 692T215 700H630L613 602H270L224 454Q294 505 383 505Q485 505 543 455T601 310Q601 218 559 145T442 31T271 -10Q185 -10 120 21Z" />
<glyph unicode="6" glyph-name="six" horiz-adv-x="632" d="M171 -10T110 51T48 232Q48 366 96 475T228 647T418 710Q517 710 567 666T621 541L517 508Q510 561 484 587T399 613Q343 613 296 582T215 495T168 362H173Q214 412 269 439T389 467Q486 467 541 417T596
280Q596 196 557 130T448 27T287 -10Q171 -10 110 51ZM354 87T392 109T453 172T475 264Q475 314 444 342T355 370Q304 370 264 348T202 286T180 197Q180 145 212 116T304 87Q354 87 392 109Z" />
<glyph unicode="7" glyph-name="seven" horiz-adv-x="607" d="M168 115T207 205T310 375T472 548Q490 565 498 602H212V552L100 508V632Q100 661 119 680T168 700H616Q638 700 646 694T653 667Q652 637 640 621T608 605Q601 572 591 551T554 504Q452 405 399 337T317
192T268 0H150Q168 115 207 205Z" />
<glyph unicode="8" glyph-name="eight" horiz-adv-x="631" d="M155 -10T92 33T28 157Q28 232 74 286T189 364Q154 381 134 414T114 485Q114 548 151 599T253 680T398 710Q500 710 557 667T614 548Q614 481 576 433T486 364Q533 345 560 310T587 226Q587 157 547
104T436 20T271 -10Q155 -10 92 33ZM409 404T451 439T493 531Q493 571 464 592T381 613Q314 613 274 579T234 489Q234 449 263 427T344 404Q409 404 451 439ZM371 87T419 122T467 220Q467 265 432 290T329 315Q248 315 199 277T150 177Q150 134 185 111T288 87Q371
87 419 122Z" />
<glyph unicode="9" glyph-name="nine" horiz-adv-x="632" d="M169 -10T115 34T55 156L158 190Q172 87 287 87Q370 87 426 154T503 338H499Q412 233 293 233Q192 233 134 284T76 421Q76 504 116 570T227 673T387 710Q502 710 562 647T623 468Q623 331 579 223T454
52T269 -10Q169 -10 115 34ZM370 330T409 352T470 414T492 504Q492 555 461 584T370 613Q321 613 282 591T220 528T198 436Q198 385 229 358T319 330Q370 330 409 352Z" />
<glyph unicode=":" glyph-name="colon" horiz-adv-x="226" d="M109 370T92 386T74 429Q74 463 101 489T163 516Q191 516 207 499T224 455Q224 421 198 396T137 370Q109 370 92 386ZM45 3T28 19T10 62Q10 96 37 122T98 149Q126 149 143 132T161 88Q161 54 135 29T73
3Q45 3 28 19Z" />
<glyph unicode=";" glyph-name="semicolon" horiz-adv-x="235" d="M117 369T100 385T83 428Q83 463 109 489T171 515Q199 515 216 498T233 454Q233 421 206 395T145 369Q117 369 100 385ZM-13 -60Q12 -50 34 -33T68 4Q45 4 30 19T15 55Q15 89 41 113T105 137Q136
137 151 121T167 77Q167 19 124 -34T7 -118L-13 -60Z" />
<glyph unicode="&lt;" glyph-name="less" horiz-adv-x="615" d="M73 217Q58 224 51 232T43 255Q43 283 59 302T99 321Q106 321 109 320L120 318L627 521L607 410L214 261L554 112L535 1L73 217Z" />
<glyph unicode="=" glyph-name="equal" horiz-adv-x="548" d="M97 422H514L498 328H80L97 422ZM65 242H483L466 148H49L65 242Z" />
<glyph unicode="&gt;" glyph-name="greater" horiz-adv-x="615" d="M17 112L410 261L70 410L89 521L524 318L535 320Q539 321 547 321Q564 321 573 311T583 282Q583 253 570 239T536 217L-3 1L17 112Z" />
<glyph unicode="?" glyph-name="question" horiz-adv-x="526" d="M201 244Q210 296 239 329T321 404Q371 442 395 471T419 544Q419 613 339 613Q289 613 251 587T183 505L94 550Q132 625 203 667T359 710Q446 710 493 669T541 558Q541 510 524 475T483 417T418
365Q372 331 349 306T319 244L313 206H195L201 244ZM188 0T171 16T153 59Q153 97 179 122T245 148Q275 148 292 132T310 89Q310 52 284 26T219 0Q188 0 171 16Z" />
<glyph unicode="@" glyph-name="at" horiz-adv-x="870" d="M273 -34T200 1T89 100T50 252Q50 387 111 497T279 670T522 734Q684 734 774 662T864 460Q864 369 830 292T736 170T604 125Q570 125 544 145T509 199H507Q480 163 442 144T363 124Q302 124 266 163T229
269Q229 352 264 423T358 537T486 580Q520 580 543 566T579 528L593 566H682L581 279Q575 263 575 250Q575 233 584 224T608 214Q644 214 675 247T726 335T745 454Q745 547 686 592T506 637Q410 637 334 590T214 457T170 264Q170 167 227 115T392 63Q504 63 594
101L578 11Q494 -34 375 -34Q273 -34 200 1ZM463 215T506 343Q523 394 523 433Q523 464 511 480T475 497Q442 497 411 466T361 385T341 282Q341 248 355 232T393 215Q463 215 506 343Z" />
<glyph unicode="A" glyph-name="A" horiz-adv-x="697" d="M359 664Q388 718 439 718Q468 718 484 707T501 676Q501 667 498 660T493 650L619 0H500L467 187H223L123 0H-4L359 664ZM457 281L411 554L267 281H457Z" />
<glyph unicode="B" glyph-name="B" horiz-adv-x="612" d="M130 587Q131 593 131 603Q131 615 128 621T119 635T112 649Q112 654 115 660Q124 681 145 699T185 718Q203 718 217 700H416Q505 700 555 660T605 549Q605 480 571 435T478 366L477 363Q570 323 570 239Q570
171 536 117T440 31T296 0H26L130 587ZM352 411Q411 411 447 444T483 533Q483 568 461 587T393 606H249L215 411H352ZM308 94Q372 94 411 132T450 233Q450 273 422 295T342 317H198L159 94H308Z" />
<glyph unicode="C" glyph-name="C" horiz-adv-x="643" d="M243 -10T181 24T87 119T54 263Q54 396 101 497T238 654T448 710Q516 710 570 687T652 621L591 540Q563 577 527 595T431 613Q358 613 300 571T208 451T175 275Q175 185 219 136T348 87Q399 87 441 104T521
157L579 91Q531 44 464 17T329 -10Q243 -10 181 24Z" />
<glyph unicode="D" glyph-name="D" horiz-adv-x="653" d="M130 587Q131 593 131 602Q131 614 128 621T118 637T112 650Q112 655 115 661Q125 682 145 700T185 718Q204 718 216 700H354Q440 700 505 668T605 575T640 433Q640 304 592 206T454 54T245 0H26L130 587ZM254
102Q334 102 394 141T486 253T519 421Q519 511 477 554T335 598H249L162 102H254Z" />
<glyph unicode="E" glyph-name="E" horiz-adv-x="543" d="M130 587Q131 593 131 602Q131 614 128 621T118 637T112 650Q112 655 115 661Q126 681 146 699T185 718Q204 718 216 700H578L560 598H250L217 416H444L427 318H200L162 102H481L464 0H26L130 587Z" />
<glyph unicode="F" glyph-name="F" horiz-adv-x="534" d="M130 587Q131 593 131 602Q131 614 128 621T118 637T112 650Q112 655 115 661Q126 681 146 699T185 718Q204 718 216 700H578L560 598H250L215 403H442L425 306H198L144 0H26L130 587Z" />
<glyph unicode="G" glyph-name="G" horiz-adv-x="666" d="M237 -10T177 24T86 120T54 263Q54 397 101 498T237 654T446 710Q514 710 568 687T650 621L589 540Q561 577 525 595T429 613Q356 613 298 571T208 451T175 275Q175 185 217 136T340 87Q380 87 406 93T460
114L491 288H334L352 386H560Q579 403 597 403Q616 403 630 385T646 346Q647 337 644 333T634 322Q624 313 617 303T607 273L569 63Q500 23 444 7T321 -10Q237 -10 177 24Z" />
<glyph unicode="H" glyph-name="H" horiz-adv-x="625" d="M132 700H250L201 418H490L539 700H657L534 0H416L472 318H183L127 0H9L132 700Z" />
<glyph unicode="I" glyph-name="I" horiz-adv-x="299" d="M171 700H289L166 0H48L171 700Z" />
<glyph unicode="J" glyph-name="J" horiz-adv-x="444" d="M104 -10T63 3T-6 42L56 124Q106 89 164 89Q210 89 236 112T271 185L362 700H480L389 188Q373 94 314 42T149 -10Q104 -10 63 3Z" />
<glyph unicode="K" glyph-name="K" horiz-adv-x="614" d="M132 700H250L205 441L483 700H627L265 359L535 0H389L178 290L127 0H9L132 700Z" />
<glyph unicode="L" glyph-name="L" horiz-adv-x="521" d="M35 -16T20 3T5 43Q5 50 8 54T18 64Q29 75 35 84T45 114L148 700H266L161 102H462L444 0H91Q75 -16 54 -16Q35 -16 20 3Z" />
<glyph unicode="M" glyph-name="M" horiz-adv-x="790" d="M312 -11T306 23L240 461L116 -1H-4L177 637L175 646Q173 654 173 659Q173 681 191 699T243 718Q278 718 292 704T311 659L383 178L626 659Q642 690 661 704T716 718Q743 718 756 706T770 676Q770 661
760 646L754 638L710 -1H592L630 461L430 59V49Q431 21 409 5T354 -11Q312 -11 306 23Z" />
<glyph unicode="N" glyph-name="N" horiz-adv-x="623" d="M126 604Q127 607 127 613Q127 624 120 635T113 653Q113 660 117 669Q127 692 148 705T192 718Q225 718 238 691L451 213L537 700H655L532 0H432L221 470L138 0H20L126 604Z" />
<glyph unicode="O" glyph-name="O" horiz-adv-x="683" d="M222 -10T167 22T82 115T53 254Q53 389 98 492T227 652T424 710Q500 710 556 678T641 585T671 446Q671 311 626 208T496 48T297 -10Q222 -10 167 22ZM384 87T437 131T520 256T550 438Q550 521 515 567T407
613Q338 613 285 569T203 445T173 262Q173 179 208 133T315 87Q384 87 437 131Z" />
<glyph unicode="P" glyph-name="P" horiz-adv-x="603" d="M128 601Q129 605 129 611Q129 624 121 635T112 653Q112 659 115 666Q123 687 143 702T185 718Q209 718 225 700H363Q481 700 544 649T608 510Q608 425 570 363T461 267T292 233H181L140 0H22L128 601ZM302
335Q388 335 437 378T486 497Q486 547 451 572T348 598H245L199 335H302Z" />
<glyph unicode="Q" glyph-name="Q" horiz-adv-x="683" d="M671 333T639 242T546 89T402 4L504 -162H362L276 -9Q172 -2 113 68T53 254Q53 389 98 492T227 652T424 710Q500 710 556 678T641 585T671 446Q671 333 639 242ZM384 87T437 131T520 256T550 438Q550 521
515 567T407 613Q338 613 285 569T203 445T173 262Q173 179 208 133T315 87Q384 87 437 131Z" />
<glyph unicode="R" glyph-name="R" horiz-adv-x="603" d="M129 601Q130 605 130 611Q130 623 121 634T112 652Q112 658 115 665Q124 687 143 702T186 718Q210 718 226 700H364Q483 700 546 651T609 515Q609 413 547 350T376 273L508 0H373L246 264H187L141 0H23L129
601ZM308 365Q487 365 487 509Q487 558 452 578T349 598H246L205 365H308Z" />
<glyph unicode="S" glyph-name="S" horiz-adv-x="596" d="M192 -10T123 20T15 105L98 176Q134 129 180 108T290 87Q355 87 391 114T427 191Q427 223 398 246T287 302Q104 372 104 494Q104 559 137 608T231 683T375 710Q444 710 505 688T605 626L530 547Q493 583
457 598T365 613Q298 613 262 586T226 508Q226 473 256 450T366 394Q463 355 506 311T549 207Q549 104 477 47T277 -10Q192 -10 123 20Z" />
<glyph unicode="T" glyph-name="T" horiz-adv-x="588" d="M299 598H99L117 700H635L617 598H417L312 0H194L299 598Z" />
<glyph unicode="U" glyph-name="U" horiz-adv-x="640" d="M212 -10T158 16T74 91T44 204Q44 226 49 256L127 700H245L166 250Q162 229 162 206Q162 148 195 118T294 87Q370 87 418 129T480 250L559 700H677L599 256Q576 126 498 58T284 -10Q212 -10 158 16Z" />
<glyph unicode="V" glyph-name="V" horiz-adv-x="682" d="M234 9T234 31Q234 46 246 62L120 700H237L329 185L601 700H726L363 36Q351 14 332 2T291 -10Q274 -10 260 -3Q234 9 234 31Z" />
<glyph unicode="W" glyph-name="W" horiz-adv-x="839" d="M113 8T113 36Q113 48 119 58L124 68L120 700H239L232 222L444 675Q452 692 467 701T503 710Q534 710 550 700T566 674Q566 666 561 656L556 646L604 224L764 700H883L655 68L657 58Q659 50 659 47Q659
30 646 16T609 -4Q593 -9 576 -9Q554 -9 543 4T528 49L474 520L252 49Q238 19 221 5T181 -9Q164 -9 149 -4Q113 8 113 36Z" />
<glyph unicode="X" glyph-name="X" horiz-adv-x="690" d="M304 375L142 700H269L382 466L576 700H713L436 375L611 0H483L359 285L134 0H-3L304 375Z" />
<glyph unicode="Y" glyph-name="Y" horiz-adv-x="653" d="M276 269L120 700H244L347 377L565 700H697L390 269L343 0H229L276 269Z" />
<glyph unicode="Z" glyph-name="Z" horiz-adv-x="628" d="M63 -12T56 -12Q36 -12 10 23Q4 32 4 39Q4 46 9 53T19 66T26 74L484 598H127L146 700H573L582 708Q595 719 613 719Q633 719 646 706Q665 686 665 670Q665 652 641 625L184 102H567L548 0H84L70 -8Q63
-12 56 -12Z" />
<glyph unicode="[" glyph-name="bracketleft" horiz-adv-x="265" d="M137 746H340L323 652H238L116 -40H201L185 -134H-18L137 746Z" />
<glyph unicode="\" glyph-name="backslash" horiz-adv-x="470" d="M122 710H241L388 -12H269L122 710Z" />
<glyph unicode="]" glyph-name="bracketright" horiz-adv-x="265" d="M-33 -40H52L173 652H88L105 746H308L153 -134H-50L-33 -40Z" />
<glyph unicode="^" glyph-name="asciicircum" horiz-adv-x="477" d="M270 697Q281 712 294 719T328 726Q351 726 364 717T378 691Q378 681 370 667L366 662L474 433H354L298 591L196 433H74L270 697Z" />
<glyph unicode="_" glyph-name="underscore" horiz-adv-x="583" d="M-11 -48H494L477 -142H-28L-11 -48Z" />
<glyph unicode="`" glyph-name="grave" horiz-adv-x="293" d="M124 726H254L306 540H211L124 726Z" />
<glyph unicode="a" glyph-name="a" horiz-adv-x="579" d="M130 -10T82 40T34 176Q34 264 70 337T169 452T310 495Q398 495 439 428L449 485H561L499 132Q494 99 494 82Q494 54 505 27L404 -10Q385 19 385 53L386 68H384Q349 30 305 10T211 -10Q130 -10 82 40ZM311
83T351 124T403 229L407 255Q410 272 410 288Q410 338 385 370T308 402Q264 402 228 374T172 297T151 189Q151 139 175 111T248 83Q311 83 351 124Z" />
<glyph unicode="b" glyph-name="b" horiz-adv-x="583" d="M2 26Q19 49 28 72T45 133L151 734H267L214 430Q245 459 288 477T375 495Q460 495 506 446T552 309Q552 221 516 148T418 33T281 -10Q231 -10 195 10T137 69Q125 21 90 -11L2 26ZM324 83T359 110T414 186T434
294Q434 402 333 402Q273 402 232 359T181 255L177 229Q174 211 174 193Q174 143 200 113T280 83Q324 83 359 110Z" />
<glyph unicode="c" glyph-name="c" horiz-adv-x="528" d="M152 -10T94 42T35 186Q35 275 74 345T182 455T341 495Q395 495 440 478T509 431L454 353Q432 375 400 387T329 400Q277 400 238 375T176 304T154 200Q154 143 186 114T278 85Q353 85 409 133L460 69Q422
33 367 12T257 -10Q152 -10 94 42Z" />
<glyph unicode="d" glyph-name="d" horiz-adv-x="583" d="M387 16T387 55L388 69Q317 -10 217 -10Q133 -10 84 40T34 177Q34 267 70 339T170 453T312 495Q397 495 439 430L493 734H609L503 133Q498 100 498 82Q498 52 508 26L407 -11Q387 16 387 55ZM313 83T353
123T405 229L410 255Q413 272 413 288Q413 338 388 370T311 402Q266 402 230 374T172 298T151 189Q151 139 176 111T251 83Q313 83 353 123Z" />
<glyph unicode="e" glyph-name="e" horiz-adv-x="554" d="M149 -10T92 42T35 183Q35 272 72 343T174 455T321 495Q387 495 432 470T501 401T524 304Q524 242 501 218T436 194H148Q146 180 146 174Q146 133 178 109T265 85Q349 85 412 136L459 73Q419 33 366 12T249
-10Q149 -10 92 42ZM410 286Q412 302 412 308Q412 350 384 376T306 402Q252 402 212 369T164 286H410Z" />
<glyph unicode="f" glyph-name="f" horiz-adv-x="418" d="M144 391H56L98 485H160L176 575Q188 648 243 692T378 736Q401 736 428 729T474 712L437 626Q426 632 407 636T372 641Q340 641 319 624T292 573L276 485H419L379 391H260L191 0H75L144 391Z" />
<glyph unicode="g" glyph-name="g" horiz-adv-x="583" d="M94 -218T19 -177L69 -92Q123 -123 197 -123Q277 -123 315 -84T367 30L374 65Q344 35 304 18T220 0Q134 0 85 49T35 186Q35 274 69 345T165 456T301 497Q398 497 449 418Q462 467 495 498L584 460Q567
438 558 414T541 354L485 37Q462 -89 385 -153T180 -218Q94 -218 19 -177ZM314 93T354 136T406 240L409 258Q413 275 413 295Q413 344 386 373T306 403Q261 403 226 377T172 305T152 198Q152 93 254 93Q314 93 354 136Z" />
<glyph unicode="h" glyph-name="h" horiz-adv-x="549" d="M348 29T348 67Q348 87 353 120L384 291Q388 317 388 327Q388 400 311 400Q258 400 218 358T167 255L122 0H6L135 734H251L197 427Q230 459 272 477T357 495Q433 495 469 458T506 352Q506 324 500 291L470
122Q467 101 467 82Q467 49 475 29L362 -10Q348 29 348 67Z" />
<glyph unicode="i" glyph-name="i" horiz-adv-x="268" d="M161 557T142 574T123 619Q123 656 151 683T218 710Q248 710 267 693T287 647Q287 611 259 584T191 557Q161 557 142 574ZM120 485H236L150 0H34L120 485Z" />
<glyph unicode="j" glyph-name="j" horiz-adv-x="441" d="M333 557T314 574T295 619Q295 656 323 683T391 710Q421 710 440 693T459 648Q459 611 431 584T364 557Q333 557 314 574ZM60 -219T20 -205T-42 -167L15 -88Q57 -124 112 -124Q151 -124 172 -103T202 -30L293
485H409L319 -23Q302 -121 249 -170T103 -219Q60 -219 20 -205Z" />
<glyph unicode="k" glyph-name="k" horiz-adv-x="505" d="M138 734H254L184 334L362 485H505L230 256L445 0H296L156 174L125 0H9L138 734Z" />
<glyph unicode="l" glyph-name="l" horiz-adv-x="216" d="M138 734H254L125 0H9L138 734Z" />
<glyph unicode="m" glyph-name="m" horiz-adv-x="798" d="M597 30T597 65Q597 90 603 120L633 293Q638 320 638 337Q638 369 624 384T577 400Q533 400 505 371T468 291L417 0H303L355 294Q359 314 359 335Q359 400 299 400Q252 400 223 366T183 268L135 0H19L82
354Q86 377 86 400Q86 427 77 456L183 495Q195 465 195 433Q195 422 194 417Q222 454 261 474T340 495Q424 495 447 415Q484 456 525 475T617 495Q685 495 721 459T758 362Q758 340 754 320L719 122Q716 101 716 82Q716 49 724 29L612 -10Q597 30 597 65Z" />
<glyph unicode="n" glyph-name="n" d="M362 26T362 67Q362 90 367 120L398 291Q401 311 401 326Q401 400 325 400Q272 400 232 359T180 255L135 0H19L82 354Q87 382 87 400Q87 428 77 455L187 495Q200 465 200 430Q200 421 199 416Q233 452 280 473T375 495Q448
495 484 458T520 352Q520 324 514 291L484 122Q481 101 481 81Q481 50 488 29L376 -10Q362 26 362 67Z" />
<glyph unicode="o" glyph-name="o" horiz-adv-x="561" d="M144 -11T90 42T36 185Q36 274 73 344T176 455T327 495Q421 495 475 442T529 300Q529 211 492 140T389 29T238 -11Q144 -11 90 42ZM300 84T335 110T390 183T410 290Q410 342 384 371T310 400Q265 400 230
374T175 301T155 195Q155 141 180 113T254 84Q300 84 335 110Z" />
<glyph unicode="p" glyph-name="p" horiz-adv-x="583" d="M84 354Q90 384 90 405Q90 431 78 460L180 498Q200 468 200 431L199 418Q278 497 375 497Q456 497 504 447T552 308Q552 218 517 146T420 33T278 -8Q234 -8 201 9T147 57L99 -219H-17L84 354ZM323 85T358
111T414 185T434 293Q434 345 410 374T337 403Q275 403 234 363T181 258L177 232Q174 216 174 198Q174 149 200 117T277 85Q323 85 358 111Z" />
<glyph unicode="q" glyph-name="q" horiz-adv-x="585" d="M342 -187T342 -139Q342 -116 346 -96L374 57Q307 -8 219 -8Q134 -8 85 42T35 180Q35 268 70 340T166 455T302 497Q351 497 388 476T450 418Q464 469 496 498L585 460Q568 437 559 414T542 354L462 -96Q459
-114 459 -129Q459 -162 472 -191L363 -232Q342 -187 342 -139ZM315 85T355 128T406 232L411 258Q414 276 414 293Q414 343 387 373T307 403Q263 403 228 376T172 301T152 194Q152 141 177 113T255 85Q315 85 355 128Z" />
<glyph unicode="r" glyph-name="r" horiz-adv-x="409" d="M82 354Q87 382 87 400Q87 428 77 455L187 495Q200 465 200 430Q200 421 199 416Q232 456 265 475T339 495Q367 495 387 488T428 463L370 382Q344 400 313 400Q257 400 225 363T182 262L135 0H19L82 354Z" />
<glyph unicode="s" glyph-name="s" horiz-adv-x="500" d="M159 -10T104 14T12 83L91 154Q117 119 157 101T245 82Q284 82 306 96T328 137Q328 154 309 167T231 200Q151 227 116 258T80 336Q80 410 139 452T298 495Q349 495 393 480T471 438L416 360Q380 384 349
393T281 403Q241 403 220 390T198 352Q198 333 217 322T295 290Q376 263 411 232T446 154Q446 78 388 34T230 -10Q159 -10 104 14Z" />
<glyph unicode="t" glyph-name="t" horiz-adv-x="389" d="M155 -9T126 18T96 98Q96 117 99 136L144 391H56L98 485H162L181 593L303 645L275 485H403L363 391H260L215 134Q213 120 213 116Q213 99 222 92T251 84Q277 84 302 95L314 10Q296 3 267 -3T212 -9Q155
-9 126 18Z" />
<glyph unicode="u" glyph-name="u" horiz-adv-x="548" d="M119 -10T77 32T34 148Q34 173 38 194L90 485H206L154 194Q151 176 151 162Q151 123 171 104T236 85Q289 85 324 122T369 218L416 485H532L470 131Q465 101 465 83Q465 57 474 30L364 -10Q352 17 352 54Q352
64 353 69Q287 -10 190 -10Q119 -10 77 32Z" />
<glyph unicode="v" glyph-name="v" horiz-adv-x="562" d="M205 -10T192 0T178 26Q178 33 183 45L187 51L83 485H203L267 154L446 485H569L297 23Q287 6 272 -2T227 -10Q205 -10 192 0Z" />
<glyph unicode="w" glyph-name="w" horiz-adv-x="719" d="M148 -10T136 -1T124 26Q124 36 128 47L130 54L83 485H203L218 172L356 468Q363 481 376 488T414 495Q465 495 465 464Q465 452 461 441L453 420L480 172L605 485H725L528 54V47Q528 21 511 6T464 -10Q435
-10 422 0T407 30L376 319L241 30Q232 10 216 0T172 -10Q148 -10 136 -1Z" />
<glyph unicode="x" glyph-name="x" horiz-adv-x="539" d="M197 251L83 485H213L284 322L414 485H545L348 251L459 0H328L260 175L131 0H-3L197 251Z" />
<glyph unicode="y" glyph-name="y" horiz-adv-x="582" d="M9 -135Q79 -112 126 -72T202 37L82 485H216L283 163L453 485H588L303 -6Q251 -96 189 -147T26 -229L9 -135Z" />
<glyph unicode="z" glyph-name="z" horiz-adv-x="539" d="M65 -10T55 -10Q41 -10 29 0T8 32Q5 40 5 46Q5 65 31 81Q41 87 49 95L366 391H91L108 485H441Q461 485 470 490Q477 495 488 495Q499 495 510 489T529 470Q538 457 538 444Q538 426 517 408L180 94H473L457
0H104Q83 0 72 -6Q65 -10 55 -10Z" />
<glyph unicode="{" glyph-name="braceleft" horiz-adv-x="358" d="M113 -134T88 -112T62 -51Q62 -45 64 -29L107 216Q108 221 108 229Q108 259 79 259H43L59 353H96Q113 353 124 364T139 396L182 641Q190 688 226 717T313 746H409L392 652H325Q314 652 307 645T297
626L259 406Q252 369 239 346T194 306Q212 293 219 278T227 241Q227 226 224 206L184 -14V-20Q184 -40 203 -40H270L254 -134H158Q113 -134 88 -112Z" />
<glyph unicode="|" glyph-name="bar" horiz-adv-x="211" d="M147 800H265L99 -140H-19L147 800Z" />
<glyph unicode="}" glyph-name="braceright" horiz-adv-x="358" d="M-10 -40H57Q68 -40 76 -33T86 -14L124 206Q131 243 144 266T189 306Q171 319 164 334T156 371Q156 387 159 406L199 626V632Q199 652 179 652H112L128 746H225Q270 746 295 724T321 664Q321
649 319 641L276 396Q275 391 275 383Q275 353 304 353H340L323 259H287Q251 259 244 216L201 -29Q193 -76 157 -105T70 -134H-27L-10 -40Z" />
<glyph unicode="~" glyph-name="asciitilde" horiz-adv-x="598" d="M39 238Q73 285 116 309T208 333Q233 333 255 326T314 304Q343 291 365 284T409 277Q443 277 466 291T512 336L567 275Q535 226 493 202T402 177Q377 177 353 184T294 207Q262 221 241 227T198
234Q142 234 97 172L39 238Z" />
<glyph unicode="&#xa0;" glyph-name="uni00A0" horiz-adv-x="258" />
<glyph unicode="&#xa1;" glyph-name="exclamdown" horiz-adv-x="254" d="M111 316T94 332T76 375Q76 412 102 438T167 464Q197 464 215 448T233 405Q233 368 206 342T141 316Q111 316 94 332ZM81 258H181L102 -236H-17L81 258Z" />
<glyph unicode="&#xa2;" glyph-name="cent" horiz-adv-x="528" d="M460 69Q425 36 378 16T280 -9L264 -98H212L228 -9Q136 -2 86 49T35 186Q35 271 70 339T170 448T316 494L333 588H385L368 494Q414 490 451 473T509 431L454 353Q415 392 352 399L296 86Q360 91
409 133L460 69ZM154 152T177 124T245 88L299 398Q233 387 194 334T154 200Q154 152 177 124Z" />
<glyph unicode="&#xa3;" glyph-name="sterling" horiz-adv-x="586" d="M18 83Q64 94 106 129T174 211T202 304H50L89 398H188Q171 438 171 480Q171 542 206 595T302 679T437 710Q497 710 544 688T617 627L560 548Q513 613 420 613Q359 613 325 578T290 478Q290
436 311 398H483L443 304H321Q313 248 282 194T195 94H518L501 0H4L18 83Z" />
<glyph unicode="&#xa4;" glyph-name="currency" horiz-adv-x="607" d="M12 127L111 215Q83 253 83 303Q83 342 100 382T145 450L78 537L164 608L236 516Q296 543 357 543Q420 543 470 516L574 608L635 537L537 450Q559 419 559 372Q559 329 541 287T489 215L557
127L471 56L395 153Q336 130 285 130Q233 130 182 153L73 56L12 127ZM366 224T407 262T448 362Q448 403 420 426T341 449Q276 449 236 411T195 311Q195 269 222 247T301 224Q366 224 407 262Z" />
<glyph unicode="&#xa5;" glyph-name="yen" horiz-adv-x="653" d="M391 270H541L533 224H382L370 157H521L513 111H362L343 0H229L248 111H101L109 157H256L268 224H121L129 270H276L120 700H244L347 377L565 700H697L391 270Z" />
<glyph unicode="&#xa6;" glyph-name="brokenbar" horiz-adv-x="211" d="M147 800H265L195 406H77L147 800ZM50 254H168L99 -140H-19L50 254Z" />
<glyph unicode="&#xa7;" glyph-name="section" horiz-adv-x="503" d="M148 -58T94 -35T4 31L81 102Q106 69 145 52T231 34Q270 34 295 53T320 104Q320 125 299 142T221 179Q142 207 107 240T71 321Q71 365 94 402T155 466Q118 496 118 547Q118 627 178 674T339
722Q440 722 512 665L457 588Q424 610 392 620T322 630Q283 630 260 612T236 564Q236 542 255 529T335 496Q414 470 449 439T484 361Q484 317 462 277T401 206Q437 174 437 120Q437 67 409 27T331 -36T215 -58Q148 -58 94 -35ZM344 271T355 292T366 332Q366 370
310 395Q274 410 239 421Q215 408 202 387T188 341Q188 324 199 311T240 285Q258 277 324 250Q344 271 355 292Z" />
<glyph unicode="&#xa8;" glyph-name="dieresis" horiz-adv-x="418" d="M134 555T118 570T102 610Q102 643 126 667T185 691Q211 691 226 676T242 636Q242 603 218 579T161 555Q134 555 118 570ZM342 555T326 570T310 610Q310 643 334 667T393 691Q419 691 434
676T450 636Q450 603 426 579T369 555Q342 555 326 570Z" />
<glyph unicode="&#xa9;" glyph-name="copyright" horiz-adv-x="846" d="M284 -11T210 25T95 127T53 282Q53 400 114 498T279 653T507 710Q603 710 677 674T792 571T834 416Q834 298 774 201T609 46T380 -11Q284 -11 210 25ZM490 86T564 127T680 242T723 406Q723
506 659 559T490 613Q398 613 324 571T207 456T164 292Q164 192 228 139T397 86Q490 86 564 127ZM327 133T274 179T221 305Q221 378 255 437T350 530T486 564Q534 564 575 547T644 498L585 428Q564 450 535 461T473 473Q434 473 403 453T353 398T335 318Q335 272
362 248T439 224Q501 224 553 269L603 207Q516 133 413 133Q327 133 274 179Z" />
<glyph unicode="&#xaa;" glyph-name="ordfeminine" horiz-adv-x="425" d="M157 384T125 419T92 513Q92 572 115 618T180 691T275 718Q305 718 327 707T362 676L369 712H455L414 475Q410 458 410 442Q410 423 417 408L338 384Q325 405 326 434H325Q302 410 273
397T212 384Q157 384 125 419ZM280 453T305 476T339 542L342 559Q344 573 344 581Q344 611 327 630T279 649Q236 649 209 612T182 516Q182 453 242 453Q280 453 305 476Z" />
<glyph unicode="&#xab;" glyph-name="guillemotleft" horiz-adv-x="498" d="M46 236Q42 244 42 251Q42 268 55 284L216 477H331L154 260L254 43H140L46 236ZM217 236Q213 244 213 251Q213 268 226 284L387 477H502L325 260L425 43H311L217 236Z" />
<glyph unicode="&#xac;" glyph-name="logicalnot" horiz-adv-x="477" d="M320 238H39L55 332H455L415 105H297L320 238Z" />
<glyph unicode="&#xad;" glyph-name="uni00AD" horiz-adv-x="513" d="M55 332H491L475 238H39L55 332Z" />
<glyph unicode="&#xae;" glyph-name="registered" horiz-adv-x="846" d="M284 -11T210 25T95 127T53 282Q53 400 114 498T279 653T507 710Q603 710 677 674T792 571T834 416Q834 298 774 201T609 46T380 -11Q284 -11 210 25ZM490 86T564 127T680 242T723 406Q723
506 659 559T490 613Q398 613 324 571T207 456T164 292Q164 192 228 139T397 86Q490 86 564 127ZM315 479Q317 489 310 499T303 515Q303 522 308 531Q317 548 332 558T366 569Q386 569 394 553H501Q566 553 603 525T640 446Q640 387 605 347T503 293L575 150H465L406
280H378L355 150H257L315 479ZM452 355Q495 355 517 374T540 431Q540 478 477 478H413L391 355H452Z" />
<glyph unicode="&#xaf;" glyph-name="overscore" horiz-adv-x="414" d="M109 637H445L429 548H93L109 637Z" />
<glyph unicode="&#xb0;" glyph-name="degree" horiz-adv-x="342" d="M157 473T123 503T88 581Q88 624 110 659T172 715T259 736Q315 736 349 706T384 628Q384 585 362 550T300 494T213 473Q157 473 123 503ZM254 552T272 570T290 615Q290 635 278 646T246 658Q219
658 201 640T182 593Q182 574 194 563T227 552Q254 552 272 570Z" />
<glyph unicode="&#xb1;" glyph-name="plusminus" horiz-adv-x="548" d="M518 369L502 275H339L314 133H196L221 275H58L74 369H237L262 512H380L355 369H518ZM26 94H470L453 0H9L26 94Z" />
<glyph unicode="&#xb2;" glyph-name="uni00B2" horiz-adv-x="497" d="M97 414T87 419T76 441Q76 449 79 463Q87 490 97 499T124 509Q151 547 186 571T280 628Q324 651 350 668T392 709T409 766Q409 793 394 807T350 822Q305 822 278 799T235 711L132 721Q149 806
212 858T365 911Q442 911 482 876T523 779Q523 728 501 692T448 633T366 583Q326 561 302 546T262 510H392L420 557L510 524L444 414H120Q97 414 87 419Z" />
<glyph unicode="&#xb3;" glyph-name="uni00B3" horiz-adv-x="516" d="M207 403T156 441T94 554L202 586Q209 492 309 492Q365 492 396 518T427 593Q427 619 411 633T366 647Q362 647 344 644L333 632Q317 614 302 614Q287 614 261 633Q247 644 247 654Q247 666
265 687L371 813H277L245 752L171 807L219 900H522Q542 900 552 895T563 878Q563 866 554 848Q543 826 531 820T497 813H483L408 725Q422 730 444 730Q486 730 513 700T541 615Q541 552 510 504T423 430T293 403Q207 403 156 441Z" />
<glyph unicode="&#xb4;" glyph-name="acute" horiz-adv-x="293" d="M209 726H339L187 540H91L209 726Z" />
<glyph unicode="&#xb6;" glyph-name="paragraph" horiz-adv-x="669" d="M289 286Q189 287 135 329T80 449Q80 521 116 578T216 668T361 700H713L696 606H643L505 -180H387L525 606H463L324 -180H206L289 286Z" />
<glyph unicode="&#xb7;" glyph-name="middot" horiz-adv-x="217" d="M89 272T73 288T56 328Q56 360 81 384T140 408Q167 408 183 392T199 352Q199 320 174 296T116 272Q89 272 73 288Z" />
<glyph unicode="&#xb8;" glyph-name="cedilla" horiz-adv-x="316" d="M9 -224T-37 -184L3 -128Q36 -153 69 -153Q89 -153 100 -143T112 -115Q112 -90 78 -90Q73 -90 57 -92L39 -68L97 6H183L141 -45Q205 -57 205 -110Q205 -159 167 -191T69 -224Q9 -224 -37 -184Z" />
<glyph unicode="&#xb9;" glyph-name="uni00B9" horiz-adv-x="312" d="M235 740L175 695L125 766L297 891Q328 913 346 913Q365 913 375 892Q384 875 384 865Q384 855 372 843L363 835L289 412H178L235 740Z" />
<glyph unicode="&#xba;" glyph-name="ordmasculine" horiz-adv-x="413" d="M169 384T131 420T92 517Q92 610 146 664T292 718Q356 718 394 682T433 585Q433 493 379 439T233 384Q169 384 131 420ZM289 453T315 488T342 583Q342 613 326 631T279 649Q235 649 209
613T182 519Q182 489 198 471T245 453Q289 453 315 488Z" />
<glyph unicode="&#xbb;" glyph-name="guillemotright" horiz-adv-x="498" d="M181 260L81 477H195L289 284Q293 277 293 268Q293 251 281 236L119 43H4L181 260ZM353 260L253 477H367L461 284Q465 277 465 268Q465 251 453 236L291 43H176L353 260Z" />
<glyph unicode="&#xbc;" glyph-name="onequarter" horiz-adv-x="885" d="M212 571L152 526L102 597L274 722Q304 744 323 744Q342 744 352 723Q361 707 361 696Q361 684 349 674L339 667L266 243H154L212 571ZM615 710H735L263 -10H143L615 710ZM650 94H450Q430
94 419 103T407 128Q407 148 427 167L745 474Q767 496 790 496Q807 496 818 485Q839 467 839 451Q839 438 825 424L816 415L775 181H837L822 94H760L744 0H633L650 94ZM671 181L693 312L559 181H671Z" />
<glyph unicode="&#xbd;" glyph-name="onehalf" horiz-adv-x="967" d="M212 571L152 526L102 597L274 722Q304 744 323 744Q342 744 352 723Q361 707 361 696Q361 684 349 674L339 667L266 243H154L212 571ZM615 710H735L263 -10H143L615 710ZM493 -1T483 5T472
26Q472 35 475 48Q482 75 492 84T521 94Q548 132 584 157T677 213Q721 236 746 253T788 294T805 351Q805 407 746 407Q701 407 675 384T632 296L529 307Q545 392 607 444T761 496Q838 496 878 461T918 365Q918 313 897 277T844 219T762 169Q723 148 699 132T658
95H788L816 143L907 109L841 -1H517Q493 -1 483 5Z" />
<glyph unicode="&#xbe;" glyph-name="threequarters" horiz-adv-x="1043" d="M773 710H893L421 -10H301L773 710ZM174 211T123 249T61 362L168 394Q175 300 275 300Q331 300 362 326T393 401Q393 427 377 441T333 455Q328 455 310 452L300 440Q284 422 269 422Q253
422 228 441Q214 452 214 462Q214 474 232 495L338 621H243L212 560L138 615L186 708H488Q509 708 519 703T529 686Q529 676 520 656Q509 634 498 628T464 621H450L374 533Q389 538 410 538Q452 538 480 508T508 423Q508 360 477 312T389 238T260 211Q174 211 123
249ZM807 94H607Q587 94 576 103T565 127Q565 148 585 167L903 474Q925 496 948 496Q965 496 976 485Q997 467 997 451Q997 440 983 424L974 415L933 181H995L979 94H918L901 0H791L807 94ZM829 181L851 312L717 181H829Z" />
<glyph unicode="&#xbf;" glyph-name="questiondown" horiz-adv-x="526" d="M250 312T233 328T215 371Q215 408 241 434T306 460Q337 460 354 444T371 401Q371 364 345 338T280 312Q250 312 233 328ZM79 -250T31 -209T-17 -98Q-17 -50 0 -15T41 43T106 95Q152 129
175 154T206 216L212 254H330L324 216Q315 165 286 131T203 56Q169 30 150 12T117 -30T104 -84Q104 -117 124 -135T186 -153Q235 -153 273 -127T341 -45L430 -90Q391 -166 320 -208T166 -250Q79 -250 31 -209Z" />
<glyph unicode="&#xc0;" glyph-name="Agrave" horiz-adv-x="697" d="M359 664Q388 718 439 718Q468 718 484 707T501 676Q501 667 498 660T493 650L619 0H500L467 187H223L123 0H-4L359 664ZM457 281L411 554L267 281H457ZM313 956H444L496 770H400L313 956Z" />
<glyph unicode="&#xc1;" glyph-name="Aacute" horiz-adv-x="697" d="M359 664Q388 718 439 718Q468 718 484 707T501 676Q501 667 498 660T493 650L619 0H500L467 187H223L123 0H-4L359 664ZM457 281L411 554L267 281H457ZM514 956H645L493 770H397L514 956Z" />
<glyph unicode="&#xc2;" glyph-name="Acircumflex" horiz-adv-x="697" d="M359 664Q388 718 439 718Q468 718 484 707T501 676Q501 667 498 660T493 650L619 0H500L467 187H223L123 0H-4L359 664ZM457 281L411 554L267 281H457ZM426 929Q444 946 456 952T487 959Q510
959 522 950T534 928Q534 921 531 915L527 910L632 772H511L461 859L385 772H267L426 929Z" />
<glyph unicode="&#xc3;" glyph-name="Atilde" horiz-adv-x="697" d="M359 664Q388 718 439 718Q468 718 484 707T501 676Q501 667 498 660T493 650L619 0H500L467 187H223L123 0H-4L359 664ZM457 281L411 554L267 281H457ZM283 812Q298 854 331 881T401 908Q426
908 444 900T484 877Q498 867 506 863T524 859Q543 859 555 870T576 907L632 877Q623 832 594 805T525 778Q503 778 486 785T445 806Q428 816 418 820T398 825Q360 825 343 778L283 812Z" />
<glyph unicode="&#xc4;" glyph-name="Adieresis" horiz-adv-x="697" d="M359 664Q388 718 439 718Q468 718 484 707T501 676Q501 667 498 660T493 650L619 0H500L467 187H223L123 0H-4L359 664ZM457 281L411 554L267 281H457ZM315 779T298 795T281 835Q281 867
306 891T366 915Q392 915 408 900T424 860Q424 828 400 804T342 779Q315 779 298 795ZM533 779T517 795T500 835Q500 867 525 891T584 915Q611 915 627 900T643 860Q643 828 619 804T560 779Q533 779 517 795Z" />
<glyph unicode="&#xc5;" glyph-name="Aring" horiz-adv-x="697" d="M359 664Q388 718 439 718Q468 718 484 707T501 676Q501 667 498 660T493 650L619 0H500L467 187H223L123 0H-4L359 664ZM457 281L411 554L267 281H457ZM401 747T371 769T341 833Q341 867 360
896T411 942T480 959Q523 959 553 937T583 873Q583 838 564 809T513 764T443 747Q401 747 371 769ZM477 811T492 825T507 862Q507 878 497 887T470 896Q448 896 433 881T417 844Q417 828 427 820T454 811Q477 811 492 825Z" />
<glyph unicode="&#xc6;" glyph-name="AE" horiz-adv-x="827" d="M394 700H862L844 598H554L522 416H728L711 318H505L467 102H766L748 0H336L370 187H228L124 0H-3L394 700ZM386 281L438 578L273 281H386Z" />
<glyph unicode="&#xc7;" glyph-name="Ccedilla" horiz-adv-x="643" d="M358 613T300 571T208 451T175 275Q175 185 219 136T348 87Q399 87 441 104T521 157L579 91Q536 49 478 23T358 -9L328 -45Q392 -57 392 -110Q392 -159 354 -191T257 -224Q228 -224 201 -214T150
-184L190 -128Q221 -153 256 -153Q276 -153 287 -143T299 -115Q299 -90 264 -90Q259 -90 243 -92L225 -68L274 -6Q169 10 112 81T54 263Q54 396 101 497T238 654T448 710Q516 710 570 687T652 621L591 540Q563 577 527 595T431 613Q358 613 300 571Z" />
<glyph unicode="&#xc8;" glyph-name="Egrave" horiz-adv-x="543" d="M130 587Q131 593 131 602Q131 614 128 621T118 637T112 650Q112 655 115 661Q126 681 146 699T185 718Q204 718 216 700H578L560 598H250L217 416H444L427 318H200L162 102H481L464 0H26L130
587ZM244 956H375L427 770H331L244 956Z" />
<glyph unicode="&#xc9;" glyph-name="Eacute" horiz-adv-x="543" d="M130 587Q131 593 131 602Q131 614 128 621T118 637T112 650Q112 655 115 661Q126 681 146 699T185 718Q204 718 216 700H578L560 598H250L217 416H444L427 318H200L162 102H481L464 0H26L130
587ZM445 956H576L424 770H328L445 956Z" />
<glyph unicode="&#xca;" glyph-name="Ecircumflex" horiz-adv-x="543" d="M130 587Q131 593 131 602Q131 614 128 621T118 637T112 650Q112 655 115 661Q126 681 146 699T185 718Q204 718 216 700H578L560 598H250L217 416H444L427 318H200L162 102H481L464 0H26L130
587ZM357 929Q375 946 387 952T418 959Q441 959 453 950T465 928Q465 921 462 915L458 910L563 772H442L392 859L316 772H198L357 929Z" />
<glyph unicode="&#xcb;" glyph-name="Edieresis" horiz-adv-x="543" d="M130 587Q131 593 131 602Q131 614 128 621T118 637T112 650Q112 655 115 661Q126 681 146 699T185 718Q204 718 216 700H578L560 598H250L217 416H444L427 318H200L162 102H481L464 0H26L130
587ZM246 779T229 795T212 835Q212 867 237 891T297 915Q323 915 339 900T355 860Q355 828 331 804T273 779Q246 779 229 795ZM464 779T448 795T431 835Q431 867 456 891T515 915Q542 915 558 900T574 860Q574 828 550 804T491 779Q464 779 448 795Z" />
<glyph unicode="&#xcc;" glyph-name="Igrave" horiz-adv-x="299" d="M171 700H289L166 0H48L171 700ZM108 956H239L291 770H195L108 956Z" />
<glyph unicode="&#xcd;" glyph-name="Iacute" horiz-adv-x="299" d="M171 700H289L166 0H48L171 700ZM309 956H440L288 770H192L309 956Z" />
<glyph unicode="&#xce;" glyph-name="Icircumflex" horiz-adv-x="299" d="M171 700H289L166 0H48L171 700ZM221 929Q239 946 251 952T282 959Q305 959 317 950T329 928Q329 921 326 915L322 910L427 772H306L256 859L180 772H62L221 929Z" />
<glyph unicode="&#xcf;" glyph-name="Idieresis" horiz-adv-x="299" d="M171 700H289L166 0H48L171 700ZM110 779T93 795T76 835Q76 867 101 891T161 915Q187 915 203 900T219 860Q219 828 195 804T137 779Q110 779 93 795ZM328 779T312 795T295 835Q295 867 320
891T379 915Q406 915 422 900T438 860Q438 828 414 804T355 779Q328 779 312 795Z" />
<glyph unicode="&#xd0;" glyph-name="Eth" horiz-adv-x="679" d="M466 700T531 668T631 575T666 433Q666 304 618 206T480 54T271 0H52L106 306H51L66 392H121L156 587Q157 593 157 603Q157 615 154 622T144 637T138 650Q138 655 141 661Q151 681 171 699T211
718Q230 718 243 700H380Q466 700 531 668ZM361 102T420 141T512 253T545 421Q545 512 504 555T362 598H276L239 392H395L379 306H224L188 102H280Q361 102 420 141Z" />
<glyph unicode="&#xd1;" glyph-name="Ntilde" horiz-adv-x="623" d="M126 604Q127 607 127 613Q127 624 120 635T113 653Q113 660 117 669Q127 692 148 705T192 718Q225 718 238 691L451 213L537 700H655L532 0H432L221 470L138 0H20L126 604ZM254 812Q269 854
302 881T372 908Q397 908 415 900T455 877Q469 867 477 863T495 859Q514 859 526 870T547 907L603 877Q594 832 565 805T496 778Q474 778 457 785T416 806Q399 816 389 820T369 825Q331 825 314 778L254 812Z" />
<glyph unicode="&#xd2;" glyph-name="Ograve" horiz-adv-x="683" d="M222 -10T167 22T82 115T53 254Q53 389 98 492T227 652T424 710Q500 710 556 678T641 585T671 446Q671 311 626 208T496 48T297 -10Q222 -10 167 22ZM384 87T437 131T520 256T550 438Q550 521
515 567T407 613Q338 613 285 569T203 445T173 262Q173 179 208 133T315 87Q384 87 437 131ZM301 956H432L484 770H388L301 956Z" />
<glyph unicode="&#xd3;" glyph-name="Oacute" horiz-adv-x="683" d="M222 -10T167 22T82 115T53 254Q53 389 98 492T227 652T424 710Q500 710 556 678T641 585T671 446Q671 311 626 208T496 48T297 -10Q222 -10 167 22ZM384 87T437 131T520 256T550 438Q550 521
515 567T407 613Q338 613 285 569T203 445T173 262Q173 179 208 133T315 87Q384 87 437 131ZM502 956H633L481 770H385L502 956Z" />
<glyph unicode="&#xd4;" glyph-name="Ocircumflex" horiz-adv-x="683" d="M222 -10T167 22T82 115T53 254Q53 389 98 492T227 652T424 710Q500 710 556 678T641 585T671 446Q671 311 626 208T496 48T297 -10Q222 -10 167 22ZM384 87T437 131T520 256T550 438Q550
521 515 567T407 613Q338 613 285 569T203 445T173 262Q173 179 208 133T315 87Q384 87 437 131ZM414 929Q432 946 444 952T475 959Q498 959 510 950T522 928Q522 921 519 915L515 910L620 772H499L449 859L373 772H255L414 929Z" />
<glyph unicode="&#xd5;" glyph-name="Otilde" horiz-adv-x="683" d="M222 -10T167 22T82 115T53 254Q53 389 98 492T227 652T424 710Q500 710 556 678T641 585T671 446Q671 311 626 208T496 48T297 -10Q222 -10 167 22ZM384 87T437 131T520 256T550 438Q550 521
515 567T407 613Q338 613 285 569T203 445T173 262Q173 179 208 133T315 87Q384 87 437 131ZM271 812Q286 854 319 881T389 908Q414 908 432 900T472 877Q486 867 494 863T512 859Q531 859 543 870T564 907L620 877Q611 832 582 805T513 778Q491 778 474 785T433
806Q416 816 406 820T386 825Q348 825 331 778L271 812Z" />
<glyph unicode="&#xd6;" glyph-name="Odieresis" horiz-adv-x="683" d="M222 -10T167 22T82 115T53 254Q53 389 98 492T227 652T424 710Q500 710 556 678T641 585T671 446Q671 311 626 208T496 48T297 -10Q222 -10 167 22ZM384 87T437 131T520 256T550 438Q550
521 515 567T407 613Q338 613 285 569T203 445T173 262Q173 179 208 133T315 87Q384 87 437 131ZM303 779T286 795T269 835Q269 867 294 891T354 915Q380 915 396 900T412 860Q412 828 388 804T330 779Q303 779 286 795ZM521 779T505 795T488 835Q488 867 513 891T572
915Q599 915 615 900T631 860Q631 828 607 804T548 779Q521 779 505 795Z" />
<glyph unicode="&#xd7;" glyph-name="multiply" horiz-adv-x="548" d="M42 143L209 282L92 423L177 494L294 354L459 494L520 423L354 282L470 140L385 69L269 210L103 72L42 143Z" />
<glyph unicode="&#xd8;" glyph-name="Oslash" horiz-adv-x="683" d="M633 611T652 561T671 446Q671 311 626 208T496 48T297 -10Q210 -10 150 34L73 -71L32 -46L114 66Q53 136 53 254Q53 389 98 492T227 652T424 710Q503 710 559 675L629 771L670 746L597 646Q633
611 652 561ZM173 207T188 168L494 587Q460 613 407 613Q338 613 285 569T203 445T173 262Q173 207 188 168ZM384 87T437 131T520 256T550 438Q550 506 526 549L216 124Q250 87 315 87Q384 87 437 131Z" />
<glyph unicode="&#xd9;" glyph-name="Ugrave" horiz-adv-x="640" d="M212 -10T158 16T74 91T44 204Q44 226 49 256L127 700H245L166 250Q162 229 162 206Q162 148 195 118T294 87Q370 87 418 129T480 250L559 700H677L599 256Q576 126 498 58T284 -10Q212 -10
158 16ZM280 956H411L463 770H367L280 956Z" />
<glyph unicode="&#xda;" glyph-name="Uacute" horiz-adv-x="640" d="M212 -10T158 16T74 91T44 204Q44 226 49 256L127 700H245L166 250Q162 229 162 206Q162 148 195 118T294 87Q370 87 418 129T480 250L559 700H677L599 256Q576 126 498 58T284 -10Q212 -10
158 16ZM481 956H612L460 770H364L481 956Z" />
<glyph unicode="&#xdb;" glyph-name="Ucircumflex" horiz-adv-x="640" d="M212 -10T158 16T74 91T44 204Q44 226 49 256L127 700H245L166 250Q162 229 162 206Q162 148 195 118T294 87Q370 87 418 129T480 250L559 700H677L599 256Q576 126 498 58T284 -10Q212
-10 158 16ZM393 929Q411 946 423 952T454 959Q477 959 489 950T501 928Q501 921 498 915L494 910L599 772H478L428 859L352 772H234L393 929Z" />
<glyph unicode="&#xdc;" glyph-name="Udieresis" horiz-adv-x="640" d="M212 -10T158 16T74 91T44 204Q44 226 49 256L127 700H245L166 250Q162 229 162 206Q162 148 195 118T294 87Q370 87 418 129T480 250L559 700H677L599 256Q576 126 498 58T284 -10Q212 -10
158 16ZM282 779T265 795T248 835Q248 867 273 891T333 915Q359 915 375 900T391 860Q391 828 367 804T309 779Q282 779 265 795ZM500 779T484 795T467 835Q467 867 492 891T551 915Q578 915 594 900T610 860Q610 828 586 804T527 779Q500 779 484 795Z" />
<glyph unicode="&#xdd;" glyph-name="Yacute" horiz-adv-x="653" d="M276 269L120 700H244L347 377L565 700H697L390 269L343 0H229L276 269ZM488 956H619L467 770H371L488 956Z" />
<glyph unicode="&#xde;" glyph-name="Thorn" horiz-adv-x="588" d="M139 700H257L234 571H338Q446 571 509 522T572 389Q572 309 535 250T428 160T262 129H156L134 0H16L139 700ZM275 231Q357 231 403 268T450 374Q450 421 417 445T317 469H217L174 231H275Z" />
<glyph unicode="&#xdf;" glyph-name="germandbls" horiz-adv-x="607" d="M93 497Q111 599 181 656T367 714Q430 714 479 695T556 639T583 556Q583 490 545 440T441 373V371Q499 358 531 317T563 221Q563 153 531 101T441 19T308 -10Q270 -10 233 -3T166 16L213
104Q254 83 316 83Q373 83 407 119T442 216Q442 269 403 297T298 326H257L273 419H314Q384 419 423 452T462 544Q462 582 435 601T357 621Q296 621 259 590T210 499L77 -250H-40L93 497Z" />
<glyph unicode="&#xe0;" glyph-name="agrave" horiz-adv-x="579" d="M130 -10T82 40T34 176Q34 264 70 337T169 452T310 495Q398 495 439 428L449 485H561L499 132Q494 99 494 82Q494 54 505 27L404 -10Q385 19 385 53L386 68H384Q349 30 305 10T211 -10Q130 -10
82 40ZM311 83T351 124T403 229L407 255Q410 272 410 288Q410 338 385 370T308 402Q264 402 228 374T172 297T151 189Q151 139 175 111T248 83Q311 83 351 124ZM201 741H332L384 555H288L201 741Z" />
<glyph unicode="&#xe1;" glyph-name="aacute" horiz-adv-x="579" d="M130 -10T82 40T34 176Q34 264 70 337T169 452T310 495Q398 495 439 428L449 485H561L499 132Q494 99 494 82Q494 54 505 27L404 -10Q385 19 385 53L386 68H384Q349 30 305 10T211 -10Q130 -10
82 40ZM311 83T351 124T403 229L407 255Q410 272 410 288Q410 338 385 370T308 402Q264 402 228 374T172 297T151 189Q151 139 175 111T248 83Q311 83 351 124ZM402 741H533L381 555H285L402 741Z" />
<glyph unicode="&#xe2;" glyph-name="acircumflex" horiz-adv-x="579" d="M130 -10T82 40T34 176Q34 264 70 337T169 452T310 495Q398 495 439 428L449 485H561L499 132Q494 99 494 82Q494 54 505 27L404 -10Q385 19 385 53L386 68H384Q349 30 305 10T211 -10Q130
-10 82 40ZM311 83T351 124T403 229L407 255Q410 272 410 288Q410 338 385 370T308 402Q264 402 228 374T172 297T151 189Q151 139 175 111T248 83Q311 83 351 124ZM314 714Q332 731 344 737T375 744Q398 744 410 735T422 713Q422 706 419 700L415 695L520 557H399L349
644L273 557H155L314 714Z" />
<glyph unicode="&#xe3;" glyph-name="atilde" horiz-adv-x="579" d="M130 -10T82 40T34 176Q34 264 70 337T169 452T310 495Q398 495 439 428L449 485H561L499 132Q494 99 494 82Q494 54 505 27L404 -10Q385 19 385 53L386 68H384Q349 30 305 10T211 -10Q130 -10
82 40ZM311 83T351 124T403 229L407 255Q410 272 410 288Q410 338 385 370T308 402Q264 402 228 374T172 297T151 189Q151 139 175 111T248 83Q311 83 351 124ZM171 597Q186 639 219 666T289 693Q314 693 332 685T372 662Q386 652 394 648T412 644Q431 644 443
655T464 692L520 662Q511 617 482 590T413 563Q391 563 374 570T333 591Q316 601 306 605T286 610Q248 610 231 563L171 597Z" />
<glyph unicode="&#xe4;" glyph-name="adieresis" horiz-adv-x="579" d="M130 -10T82 40T34 176Q34 264 70 337T169 452T310 495Q398 495 439 428L449 485H561L499 132Q494 99 494 82Q494 54 505 27L404 -10Q385 19 385 53L386 68H384Q349 30 305 10T211 -10Q130
-10 82 40ZM311 83T351 124T403 229L407 255Q410 272 410 288Q410 338 385 370T308 402Q264 402 228 374T172 297T151 189Q151 139 175 111T248 83Q311 83 351 124ZM203 564T186 580T169 620Q169 652 194 676T254 700Q280 700 296 685T312 645Q312 613 288 589T230
564Q203 564 186 580ZM421 564T405 580T388 620Q388 652 413 676T472 700Q499 700 515 685T531 645Q531 613 507 589T448 564Q421 564 405 580Z" />
<glyph unicode="&#xe5;" glyph-name="aring" horiz-adv-x="579" d="M130 -10T82 40T34 176Q34 264 70 337T169 452T310 495Q398 495 439 428L449 485H561L499 132Q494 99 494 82Q494 54 505 27L404 -10Q385 19 385 53L386 68H384Q349 30 305 10T211 -10Q130 -10
82 40ZM311 83T351 124T403 229L407 255Q410 272 410 288Q410 338 385 370T308 402Q264 402 228 374T172 297T151 189Q151 139 175 111T248 83Q311 83 351 124ZM289 532T259 554T229 618Q229 652 248 681T299 727T368 744Q411 744 441 722T471 658Q471 623 452
594T401 549T331 532Q289 532 259 554ZM365 596T380 610T395 647Q395 663 385 672T358 681Q336 681 321 666T305 629Q305 613 315 605T342 596Q365 596 380 610Z" />
<glyph unicode="&#xe6;" glyph-name="ae" horiz-adv-x="901" d="M114 -10T68 27T22 124Q22 177 51 218T133 281T254 304H393L394 313Q397 349 370 375T294 402Q250 402 213 388T134 345L87 411Q132 449 191 472T310 495Q366 495 405 472T464 409H465Q500 448 553
471T668 495Q735 495 781 471T849 405T872 314Q872 263 860 238T829 207T784 200H490L488 190Q487 185 487 175Q487 136 518 111T607 85Q694 85 761 142L808 75Q760 33 708 12T593 -10Q526 -10 478 20T416 92H415Q375 45 318 18T189 -10Q114 -10 68 27ZM757 290Q759
306 759 313Q759 355 731 378T652 402Q615 402 583 387T530 349T508 300L507 290H757ZM279 85T321 115T370 189L375 214H234Q189 214 164 194T139 136Q139 85 216 85Q279 85 321 115Z" />
<glyph unicode="&#xe7;" glyph-name="ccedilla" horiz-adv-x="528" d="M427 37T381 17T286 -8L256 -45Q320 -57 320 -110Q320 -159 282 -191T185 -224Q156 -224 129 -214T78 -184L118 -128Q149 -153 184 -153Q204 -153 215 -143T227 -115Q227 -90 192 -90Q187
-90 171 -92L153 -68L203 -6Q122 7 79 57T35 186Q35 275 74 345T182 455T341 495Q395 495 440 478T509 431L454 353Q432 375 400 387T329 400Q277 400 238 375T176 304T154 200Q154 143 186 114T278 85Q353 85 409 133L460 69Q427 37 381 17Z" />
<glyph unicode="&#xe8;" glyph-name="egrave" horiz-adv-x="554" d="M149 -10T92 42T35 183Q35 272 72 343T174 455T321 495Q387 495 432 470T501 401T524 304Q524 242 501 218T436 194H148Q146 180 146 174Q146 133 178 109T265 85Q349 85 412 136L459 73Q419
33 366 12T249 -10Q149 -10 92 42ZM410 286Q412 302 412 308Q412 350 384 376T306 402Q252 402 212 369T164 286H410ZM207 741H338L390 555H294L207 741Z" />
<glyph unicode="&#xe9;" glyph-name="eacute" horiz-adv-x="554" d="M149 -10T92 42T35 183Q35 272 72 343T174 455T321 495Q387 495 432 470T501 401T524 304Q524 242 501 218T436 194H148Q146 180 146 174Q146 133 178 109T265 85Q349 85 412 136L459 73Q419
33 366 12T249 -10Q149 -10 92 42ZM410 286Q412 302 412 308Q412 350 384 376T306 402Q252 402 212 369T164 286H410ZM408 741H539L387 555H291L408 741Z" />
<glyph unicode="&#xea;" glyph-name="ecircumflex" horiz-adv-x="554" d="M149 -10T92 42T35 183Q35 272 72 343T174 455T321 495Q387 495 432 470T501 401T524 304Q524 242 501 218T436 194H148Q146 180 146 174Q146 133 178 109T265 85Q349 85 412 136L459 73Q419
33 366 12T249 -10Q149 -10 92 42ZM410 286Q412 302 412 308Q412 350 384 376T306 402Q252 402 212 369T164 286H410ZM320 714Q338 731 350 737T381 744Q404 744 416 735T428 713Q428 706 425 700L421 695L526 557H405L355 644L279 557H161L320 714Z" />
<glyph unicode="&#xeb;" glyph-name="edieresis" horiz-adv-x="554" d="M149 -10T92 42T35 183Q35 272 72 343T174 455T321 495Q387 495 432 470T501 401T524 304Q524 242 501 218T436 194H148Q146 180 146 174Q146 133 178 109T265 85Q349 85 412 136L459 73Q419
33 366 12T249 -10Q149 -10 92 42ZM410 286Q412 302 412 308Q412 350 384 376T306 402Q252 402 212 369T164 286H410ZM209 564T192 580T175 620Q175 652 200 676T260 700Q286 700 302 685T318 645Q318 613 294 589T236 564Q209 564 192 580ZM427 564T411 580T394
620Q394 652 419 676T478 700Q505 700 521 685T537 645Q537 613 513 589T454 564Q427 564 411 580Z" />
<glyph unicode="&#xec;" glyph-name="igrave" horiz-adv-x="268" d="M120 485H235L149 0H34L120 485ZM54 741H185L237 555H141L54 741Z" />
<glyph unicode="&#xed;" glyph-name="iacute" horiz-adv-x="268" d="M120 485H235L149 0H34L120 485ZM255 741H386L234 555H138L255 741Z" />
<glyph unicode="&#xee;" glyph-name="icircumflex" horiz-adv-x="268" d="M120 485H235L149 0H34L120 485ZM167 714Q185 731 197 737T228 744Q251 744 263 735T275 713Q275 706 272 700L268 695L373 557H252L202 644L126 557H8L167 714Z" />
<glyph unicode="&#xef;" glyph-name="idieresis" horiz-adv-x="268" d="M120 485H235L149 0H34L120 485ZM56 564T39 580T22 620Q22 652 47 676T107 700Q133 700 149 685T165 645Q165 613 141 589T83 564Q56 564 39 580ZM274 564T258 580T241 620Q241 652 266 676T325
700Q352 700 368 685T384 645Q384 613 360 589T301 564Q274 564 258 580Z" />
<glyph unicode="&#xf0;" glyph-name="eth" horiz-adv-x="647" d="M206 -10T151 17T66 91T36 201Q36 289 77 358T193 467T364 507Q389 507 415 501T460 483L464 485Q435 547 384 586L222 517L198 601L304 645Q267 670 209 690L266 773Q318 754 352 738T422 697L585
768L610 684L496 634Q555 575 588 498T621 335Q621 229 576 151T453 32T278 -10Q206 -10 151 17ZM353 87T398 113T468 184T494 286Q494 344 456 377T355 411Q297 411 252 386T182 315T157 215Q157 155 193 121T296 87Q353 87 398 113Z" />
<glyph unicode="&#xf1;" glyph-name="ntilde" d="M362 26T362 67Q362 90 367 120L398 291Q401 311 401 326Q401 400 325 400Q272 400 232 359T180 255L135 0H19L82 354Q87 382 87 400Q87 428 77 455L187 495Q200 465 200 430Q200 421 199 416Q233 452 280 473T375
495Q448 495 484 458T520 352Q520 324 514 291L484 122Q481 101 481 81Q481 50 488 29L376 -10Q362 26 362 67ZM179 597Q194 639 227 666T297 693Q322 693 340 685T380 662Q394 652 402 648T420 644Q439 644 451 655T472 692L528 662Q519 617 490 590T421 563Q399
563 382 570T341 591Q324 601 314 605T294 610Q256 610 239 563L179 597Z" />
<glyph unicode="&#xf2;" glyph-name="ograve" horiz-adv-x="561" d="M144 -11T90 42T36 185Q36 274 73 344T176 455T327 495Q421 495 475 442T529 300Q529 211 492 140T389 29T238 -11Q144 -11 90 42ZM300 84T335 110T390 183T410 290Q410 342 384 371T310 400Q265
400 230 374T175 301T155 195Q155 141 180 113T254 84Q300 84 335 110ZM204 741H335L387 555H291L204 741Z" />
<glyph unicode="&#xf3;" glyph-name="oacute" horiz-adv-x="561" d="M144 -11T90 42T36 185Q36 274 73 344T176 455T327 495Q421 495 475 442T529 300Q529 211 492 140T389 29T238 -11Q144 -11 90 42ZM300 84T335 110T390 183T410 290Q410 342 384 371T310 400Q265
400 230 374T175 301T155 195Q155 141 180 113T254 84Q300 84 335 110ZM405 741H536L384 555H288L405 741Z" />
<glyph unicode="&#xf4;" glyph-name="ocircumflex" horiz-adv-x="561" d="M144 -11T90 42T36 185Q36 274 73 344T176 455T327 495Q421 495 475 442T529 300Q529 211 492 140T389 29T238 -11Q144 -11 90 42ZM300 84T335 110T390 183T410 290Q410 342 384 371T310
400Q265 400 230 374T175 301T155 195Q155 141 180 113T254 84Q300 84 335 110ZM317 714Q335 731 347 737T378 744Q401 744 413 735T425 713Q425 706 422 700L418 695L523 557H402L352 644L276 557H158L317 714Z" />
<glyph unicode="&#xf5;" glyph-name="otilde" horiz-adv-x="561" d="M144 -11T90 42T36 185Q36 274 73 344T176 455T327 495Q421 495 475 442T529 300Q529 211 492 140T389 29T238 -11Q144 -11 90 42ZM300 84T335 110T390 183T410 290Q410 342 384 371T310 400Q265
400 230 374T175 301T155 195Q155 141 180 113T254 84Q300 84 335 110ZM174 597Q189 639 222 666T292 693Q317 693 335 685T375 662Q389 652 397 648T415 644Q434 644 446 655T467 692L523 662Q514 617 485 590T416 563Q394 563 377 570T336 591Q319 601 309 605T289
610Q251 610 234 563L174 597Z" />
<glyph unicode="&#xf6;" glyph-name="odieresis" horiz-adv-x="561" d="M144 -11T90 42T36 185Q36 274 73 344T176 455T327 495Q421 495 475 442T529 300Q529 211 492 140T389 29T238 -11Q144 -11 90 42ZM300 84T335 110T390 183T410 290Q410 342 384 371T310
400Q265 400 230 374T175 301T155 195Q155 141 180 113T254 84Q300 84 335 110ZM206 564T189 580T172 620Q172 652 197 676T257 700Q283 700 299 685T315 645Q315 613 291 589T233 564Q206 564 189 580ZM424 564T408 580T391 620Q391 652 416 676T475 700Q502 700
518 685T534 645Q534 613 510 589T451 564Q424 564 408 580Z" />
<glyph unicode="&#xf7;" glyph-name="divide" horiz-adv-x="548" d="M275 390T259 405T243 443Q243 477 265 498T323 519Q348 519 363 504T379 466Q379 432 357 411T300 390Q275 390 259 405ZM68 332H512L495 238H51L68 332ZM215 48T199 62T183 101Q183 135 205
156T262 177Q287 177 303 162T319 124Q319 90 297 69T240 48Q215 48 199 62Z" />
<glyph unicode="&#xf8;" glyph-name="oslash" horiz-adv-x="562" d="M495 427T512 388T529 300Q529 211 492 140T389 29T238 -11Q182 -11 139 9L81 -71L40 -46L99 34Q36 88 36 185Q36 274 73 344T176 455T327 495Q382 495 422 477L480 556L521 531L463 452Q495
427 512 388ZM155 156T169 130L359 390Q339 400 310 400Q265 400 230 374T175 301T155 195Q155 156 169 130ZM300 84T335 110T390 183T410 290Q410 332 394 357L203 95Q225 84 254 84Q300 84 335 110Z" />
<glyph unicode="&#xf9;" glyph-name="ugrave" horiz-adv-x="548" d="M119 -10T77 32T34 148Q34 173 38 194L90 485H206L154 194Q151 176 151 162Q151 123 171 104T236 85Q289 85 324 122T369 218L416 485H532L470 131Q465 101 465 83Q465 57 474 30L364 -10Q352
17 352 54Q352 64 353 69Q287 -10 190 -10Q119 -10 77 32ZM199 741H330L382 555H286L199 741Z" />
<glyph unicode="&#xfa;" glyph-name="uacute" horiz-adv-x="548" d="M119 -10T77 32T34 148Q34 173 38 194L90 485H206L154 194Q151 176 151 162Q151 123 171 104T236 85Q289 85 324 122T369 218L416 485H532L470 131Q465 101 465 83Q465 57 474 30L364 -10Q352
17 352 54Q352 64 353 69Q287 -10 190 -10Q119 -10 77 32ZM400 741H531L379 555H283L400 741Z" />
<glyph unicode="&#xfb;" glyph-name="ucircumflex" horiz-adv-x="548" d="M119 -10T77 32T34 148Q34 173 38 194L90 485H206L154 194Q151 176 151 162Q151 123 171 104T236 85Q289 85 324 122T369 218L416 485H532L470 131Q465 101 465 83Q465 57 474 30L364 -10Q352
17 352 54Q352 64 353 69Q287 -10 190 -10Q119 -10 77 32ZM312 714Q330 731 342 737T373 744Q396 744 408 735T420 713Q420 706 417 700L413 695L518 557H397L347 644L271 557H153L312 714Z" />
<glyph unicode="&#xfc;" glyph-name="udieresis" horiz-adv-x="548" d="M119 -10T77 32T34 148Q34 173 38 194L90 485H206L154 194Q151 176 151 162Q151 123 171 104T236 85Q289 85 324 122T369 218L416 485H532L470 131Q465 101 465 83Q465 57 474 30L364 -10Q352
17 352 54Q352 64 353 69Q287 -10 190 -10Q119 -10 77 32ZM201 564T184 580T167 620Q167 652 192 676T252 700Q278 700 294 685T310 645Q310 613 286 589T228 564Q201 564 184 580ZM419 564T403 580T386 620Q386 652 411 676T470 700Q497 700 513 685T529 645Q529
613 505 589T446 564Q419 564 403 580Z" />
<glyph unicode="&#xfd;" glyph-name="yacute" horiz-adv-x="582" d="M9 -135Q79 -112 126 -72T202 37L82 485H216L283 163L453 485H588L303 -6Q251 -96 189 -147T26 -229L9 -135ZM416 741H547L395 555H299L416 741Z" />
<glyph unicode="&#xfe;" glyph-name="thorn" horiz-adv-x="567" d="M130 704H246L197 432Q227 462 268 479T357 497Q439 497 486 444T534 301Q534 209 501 139T407 31T266 -8Q221 -8 187 9T131 57L83 -219H-33L130 704ZM330 85T372 142T415 293Q415 403 321 403Q259
403 218 363T165 258L160 232Q157 216 157 200Q157 150 183 118T260 85Q330 85 372 142Z" />
<glyph unicode="&#xff;" glyph-name="ydieresis" horiz-adv-x="582" d="M9 -135Q79 -112 126 -72T202 37L82 485H216L283 163L453 485H588L303 -6Q251 -96 189 -147T26 -229L9 -135ZM217 564T200 580T183 620Q183 652 208 676T268 700Q294 700 310 685T326 645Q326
613 302 589T244 564Q217 564 200 580ZM435 564T419 580T402 620Q402 652 427 676T486 700Q513 700 529 685T545 645Q545 613 521 589T462 564Q435 564 419 580Z" />
<glyph unicode="&#x2013;" glyph-name="endash" horiz-adv-x="619" d="M55 332H598L581 238H39L55 332Z" />
<glyph unicode="&#x2014;" glyph-name="emdash" horiz-adv-x="799" d="M55 332H778L761 238H39L55 332Z" />
<glyph unicode="&#x2018;" glyph-name="quoteleft" horiz-adv-x="240" d="M121 431T104 447T86 493Q86 548 131 601T251 687L271 629Q210 602 189 564Q213 564 227 550T242 513Q242 479 215 455T152 431Q121 431 104 447Z" />
<glyph unicode="&#x2019;" glyph-name="quoteright" horiz-adv-x="241" d="M83 489Q110 501 132 518T166 554Q143 554 129 568T114 604Q114 638 140 662T204 687Q235 687 252 671T269 625Q269 571 224 518T104 431L83 489Z" />
<glyph unicode="&#x201a;" glyph-name="quotesinglbase" horiz-adv-x="241" d="M-21 -102Q6 -90 28 -73T62 -37Q39 -37 25 -23T10 13Q10 47 36 71T100 96Q131 96 148 80T165 34Q165 -20 120 -73T0 -160L-21 -102Z" />
<glyph unicode="&#x201c;" glyph-name="quotedblleft" horiz-adv-x="425" d="M121 431T104 447T86 493Q86 548 131 601T251 687L272 629Q210 601 189 564Q213 564 227 550T241 514Q241 480 215 456T152 431Q121 431 104 447ZM305 431T288 447T271 493Q271 548
316 601T436 687L456 629Q395 601 374 564Q397 564 411 550T426 514Q426 480 400 456T337 431Q305 431 288 447Z" />
<glyph unicode="&#x201d;" glyph-name="quotedblright" horiz-adv-x="425" d="M83 489Q110 501 132 518T166 554Q143 554 129 568T114 604Q114 638 140 662T204 687Q235 687 252 671T270 625Q270 571 225 518T104 431L83 489ZM268 489Q295 501 317 518T351 554Q327
554 313 568T298 604Q298 638 324 662T388 687Q420 687 437 671T454 625Q454 570 409 517T289 431L268 489Z" />
<glyph unicode="&#x201e;" glyph-name="quotedblbase" horiz-adv-x="425" d="M-21 -102Q6 -90 28 -73T62 -37Q39 -37 25 -23T10 13Q10 47 36 71T100 96Q131 96 148 80T166 34Q166 -20 121 -73T0 -160L-21 -102ZM164 -102Q191 -90 213 -73T247 -37Q223 -37 209
-23T194 13Q194 47 220 71T284 96Q316 96 333 80T350 34Q350 -20 305 -73T185 -160L164 -102Z" />
<glyph unicode="&#x2022;" glyph-name="bullet" horiz-adv-x="387" d="M116 129T80 161T43 246Q43 294 68 334T135 399T227 423Q286 423 322 390T358 303Q358 255 334 215T267 152T175 129Q116 129 80 161Z" />
<glyph unicode="&#x2039;" glyph-name="guilsinglleft" horiz-adv-x="334" d="M46 236Q42 244 42 251Q42 268 55 284L216 477H338L161 260L261 43H140L46 236Z" />
<glyph unicode="&#x203a;" glyph-name="guilsinglright" horiz-adv-x="334" d="M181 260L81 477H203L297 284Q301 277 301 268Q301 251 289 236L127 43H4L181 260Z" />
</font>
</defs>
</svg>
