<?xml version="1.0" standalone="no"?>
<!DOCTYPE svg PUBLIC "-//W3C//DTD SVG 1.1//EN" "http://www.w3.org/Graphics/SVG/1.1/DTD/svg11.dtd">
<svg xmlns="http://www.w3.org/2000/svg">
<defs >
<font id="Niramit" horiz-adv-x="546" ><font-face
    font-family="Niramit"
    units-per-em="1000"
    panose-1="0 0 5 0 0 0 0 0 0 0"
    ascent="1105"
    descent="-195"
    alphabetic="0" />
<glyph unicode=" " glyph-name="space" horiz-adv-x="258" />
<glyph unicode="!" glyph-name="exclam" horiz-adv-x="242" d="M159 700H245L148 197H79L159 700ZM57 0T43 13T28 48Q28 77 49 98T101 119Q123 119 137 106T152 71Q152 42 131 21T80 0Q57 0 43 13Z" />
<glyph unicode="&quot;" glyph-name="quotedbl" horiz-adv-x="305" d="M127 693H212L171 503H102L127 693ZM256 693H341L300 503H230L256 693Z" />
<glyph unicode="#" glyph-name="numbersign" horiz-adv-x="687" d="M568 429L517 258H620L608 188H497L441 0H358L414 188H234L178 0H95L151 188H37L49 258H171L222 429H104L117 499H243L299 690H382L326 499H506L562 690H645L589 499H689L676 429H568ZM485 429H305L254
258H434L485 429Z" />
<glyph unicode="$" glyph-name="dollar" horiz-adv-x="579" d="M441 344T482 302T524 198Q524 104 458 49T279 -10L263 -98H213L229 -9Q159 -3 106 24T20 94L83 149Q141 75 241 64L285 312Q285 312 285 312T284 313Q196 347 154 392T111 498Q111 591 178 648T355
710L371 799H421L405 709Q512 699 579 637L522 576Q495 602 464 616T392 635L347 381L349 380Q441 344 482 302ZM200 470T223 447T301 400L342 637Q274 632 237 598T200 505Q200 470 223 447ZM359 66T397 100T435 192Q435 225 413 246T332 293L291 62Q359 66 397
100Z" />
<glyph unicode="%" glyph-name="percent" horiz-adv-x="750" d="M167 366T132 400T97 499Q97 597 146 653T277 710Q339 710 373 674T407 578Q407 479 358 423T226 366Q167 366 132 400ZM587 710H673L202 -10H116L587 710ZM275 434T300 471T325 571Q325 603 310
622T270 641Q229 641 204 603T179 503Q179 472 194 453T234 434Q275 434 300 471ZM454 -10T419 24T384 123Q384 221 433 277T564 334Q626 334 660 298T694 202Q694 103 645 47T513 -10Q454 -10 419 24ZM562 58T587 95T612 195Q612 227 597 246T557 265Q516 265
491 227T466 127Q466 96 481 77T521 58Q562 58 587 95Z" />
<glyph unicode="&amp;" glyph-name="ampersand" horiz-adv-x="709" d="M141 -10T88 35T34 154Q34 229 85 296T233 416Q207 449 194 478T181 542Q181 617 230 663T361 710Q423 710 458 680T493 597Q493 550 471 513T420 452T351 403L481 215Q509 265 520 333H606Q591
229 527 143L623 0H521L467 84Q371 -10 235 -10Q141 -10 88 35ZM348 477T377 508T406 584Q406 609 392 624T350 639Q314 639 291 613T268 547Q268 523 278 503T310 457Q348 477 377 508ZM302 63T348 83T427 142L276 359Q123 280 123 166Q123 118 156 91T250 63Q302
63 348 83Z" />
<glyph unicode="&apos;" glyph-name="quotesingle" horiz-adv-x="177" d="M126 693H213L172 503H101L126 693Z" />
<glyph unicode="(" glyph-name="parenleft" horiz-adv-x="313" d="M45 19T45 171Q45 360 117 499T269 730H353Q274 636 203 495T132 166Q132 15 206 -118H120Q45 19 45 171Z" />
<glyph unicode=")" glyph-name="parenright" horiz-adv-x="313" d="M65 -26T134 113T204 440Q204 591 135 730H218Q291 587 291 433Q291 257 223 117T68 -118H-17Q65 -26 134 113Z" />
<glyph unicode="*" glyph-name="asterisk" horiz-adv-x="425" d="M214 353T204 361T194 384Q194 391 197 398L228 488L146 432Q132 423 118 423Q104 423 95 432T85 458Q85 471 94 482T118 499L219 537L132 575Q111 585 111 604Q111 616 120 629Q135 651 158 651Q173
651 183 642L245 586L246 676Q246 695 261 708T296 721Q312 721 322 712T332 689Q332 686 330 676L303 586L385 642Q398 651 413 651Q426 651 435 642T445 616Q445 603 436 592T412 575L311 537L399 499Q421 491 421 471Q421 458 411 445Q404 434 394 428T372 422Q360
422 348 432L286 488L281 398Q280 379 266 366T231 353Q214 353 204 361Z" />
<glyph unicode="+" glyph-name="plus" horiz-adv-x="524" d="M501 250H306L273 59H187L220 250H25L38 320H233L266 511H352L319 320H514L501 250Z" />
<glyph unicode="," glyph-name="comma" horiz-adv-x="225" d="M-8 -67Q20 -55 42 -36T72 3Q69 2 63 2Q44 2 32 14T19 45Q19 74 41 95T94 116Q120 116 134 102T148 63Q148 14 110 -33T8 -108L-8 -67Z" />
<glyph unicode="-" glyph-name="hyphen" horiz-adv-x="494" d="M60 320H464L452 250H48L60 320Z" />
<glyph unicode="." glyph-name="period" horiz-adv-x="204" d="M40 0T27 13T13 46Q13 72 34 92T82 112Q103 112 115 99T128 66Q128 40 108 20T62 0Q40 0 27 13Z" />
<glyph unicode="/" glyph-name="slash" horiz-adv-x="448" d="M402 710H487L88 -6H3L402 710Z" />
<glyph unicode="0" glyph-name="zero" horiz-adv-x="626" d="M207 -10T160 21T86 110T60 243Q60 384 99 489T214 652T398 710Q462 710 509 679T581 590T606 459Q606 320 569 215T457 50T271 -10Q207 -10 160 21ZM355 63T407 111T488 248T517 452Q517 637 385 637Q313
637 260 592T178 459T149 250Q149 153 182 108T284 63Q355 63 407 111Z" />
<glyph unicode="1" glyph-name="one" horiz-adv-x="341" d="M248 563L129 476L88 534L309 695Q330 710 346 710Q363 710 373 695Q383 680 383 671Q383 656 364 643L346 630L235 -1H149L248 563Z" />
<glyph unicode="2" glyph-name="two" horiz-adv-x="607" d="M24 0T16 4T7 19Q7 22 11 38Q18 61 27 67T58 73Q91 121 139 158T266 248Q344 299 389 334T465 419T496 530Q496 582 467 609T378 637Q298 637 251 594T180 461L99 469Q126 584 204 647T390 710Q483 710
534 665T585 539Q585 463 551 405T468 306T337 213Q270 170 231 140T164 74H431L468 132L539 106L471 0H46Q24 0 16 4Z" />
<glyph unicode="3" glyph-name="three" horiz-adv-x="637" d="M175 -10T113 40T37 189L121 216Q136 63 295 63Q391 63 448 117T505 263Q505 313 478 339T402 365Q367 365 339 355L318 333Q305 318 290 318Q277 318 261 331Q251 340 251 350Q251 362 267 381L470
630H255L208 540L146 583L207 700H599Q617 700 625 696T634 683Q634 674 627 660Q617 641 608 636T580 630H559L391 425Q413 433 442 433Q511 433 552 392T594 275Q594 191 555 127T444 26T282 -10Q175 -10 113 40Z" />
<glyph unicode="4" glyph-name="four" horiz-adv-x="607" d="M378 153H60Q44 153 35 160T26 180Q26 197 42 213L506 692Q521 709 541 709Q555 709 566 699Q579 687 579 675Q579 662 567 650L549 630L477 223H570L557 153H464L437 0H351L378 153ZM394 223L449 536L145
223H394Z" />
<glyph unicode="5" glyph-name="five" horiz-adv-x="609" d="M98 -10T21 98L85 153Q121 105 164 84T270 63Q331 63 379 93T455 176T483 295Q483 360 446 393T347 427Q287 427 239 400T148 316L83 340L177 634Q164 637 164 650Q164 656 169 671Q177 691 184 695T210
700H601L588 628H251L191 437Q269 500 367 500Q463 500 517 451T572 311Q572 220 532 147T419 32T258 -10Q98 -10 21 98Z" />
<glyph unicode="6" glyph-name="six" horiz-adv-x="613" d="M173 -10T114 50T55 227Q55 362 100 472T227 646T410 710Q499 710 545 667T596 541L520 517Q513 579 487 608T395 637Q298 637 233 555T145 342H148Q189 399 247 430T375 462Q465 462 517 411T569 275Q569
190 535 126T435 26T279 -10Q173 -10 114 50ZM347 63T389 88T456 160T480 269Q480 326 447 357T353 389Q297 389 252 362T180 289T153 186Q153 129 190 96T291 63Q347 63 389 88Z" />
<glyph unicode="7" glyph-name="seven" horiz-adv-x="590" d="M176 113T217 206T322 381T481 560Q494 573 499 588T510 628H192V567L110 535L109 651Q109 673 124 686T162 700H608Q622 700 627 697T633 684Q633 677 630 662Q626 643 617 637T592 630Q585 596 576
575T539 527Q441 427 386 353T297 197T243 0H157Q176 113 217 206Z" />
<glyph unicode="8" glyph-name="eight" horiz-adv-x="612" d="M152 -10T93 32T34 152Q34 227 80 284T206 365Q167 382 145 415T122 490Q122 552 157 602T253 681T389 710Q483 710 536 669T590 555Q590 487 551 438T451 365Q504 347 533 311T562 225Q562 156 524
103T418 20T262 -10Q152 -10 93 32ZM381 395T419 414T479 466T501 542Q501 589 468 613T376 637Q302 637 256 598T210 494Q210 447 243 421T333 395Q381 395 419 414ZM366 63T419 105T473 219Q473 271 434 299T322 328Q232 328 178 284T123 168Q123 118 162 91T275
63Q366 63 419 105Z" />
<glyph unicode="9" glyph-name="nine" horiz-adv-x="613" d="M178 -10T126 33T66 151L142 175Q150 120 182 92T279 63Q373 63 428 142T507 358H504Q419 238 288 238Q196 238 140 289T84 424Q84 509 121 573T225 674T380 710Q484 710 540 646T597 475Q597 337 557
227T441 53T266 -10Q178 -10 126 33ZM360 311T404 338T474 411T499 515Q499 571 465 604T367 637Q311 637 267 612T198 540T173 433Q173 374 205 343T305 311Q360 311 404 338Z" />
<glyph unicode=":" glyph-name="colon" horiz-adv-x="214" d="M110 382T96 396T81 432Q81 460 103 482T155 504Q177 504 191 490T205 454Q205 426 183 404T133 382Q110 382 96 396ZM44 3T30 17T15 53Q15 81 37 103T88 125Q110 125 125 110T140 74Q140 46 118 25T66
3Q44 3 30 17Z" />
<glyph unicode=";" glyph-name="semicolon" horiz-adv-x="223" d="M118 378T104 392T90 429Q90 457 112 479T162 501Q185 501 199 486T214 450Q214 423 192 401T141 378Q118 378 104 392ZM-8 -68Q20 -55 42 -37T72 1Q50 -2 35 11T19 44Q19 73 41 94T94 115Q120
115 133 102T146 64Q146 13 108 -34T8 -109L-8 -68Z" />
<glyph unicode="&lt;" glyph-name="less" horiz-adv-x="607" d="M71 223Q60 229 55 235T49 252Q49 274 61 288T92 303Q97 303 100 302L109 300L610 510L595 427L176 256L535 85L520 2L71 223Z" />
<glyph unicode="=" glyph-name="equal" horiz-adv-x="524" d="M83 396H495L483 326H71L83 396ZM56 244H468L456 174H44L56 244Z" />
<glyph unicode="&gt;" glyph-name="greater" horiz-adv-x="607" d="M19 85L439 256L79 427L94 510L521 300L530 302Q534 303 540 303Q553 303 560 295T568 273Q568 251 558 241T531 223L4 2L19 85Z" />
<glyph unicode="?" glyph-name="question" horiz-adv-x="510" d="M210 240Q219 293 248 328T330 406Q365 434 385 453T418 499T432 558Q432 596 408 616T336 637Q229 637 168 522L102 557Q140 629 206 669T352 710Q432 710 476 673T521 570Q521 524 505 490T465
432T402 379Q353 340 328 312T296 240L289 197H203L210 240ZM189 0T175 13T161 48Q161 77 182 98T234 119Q257 119 271 106T285 71Q285 42 264 21T213 0Q189 0 175 13Z" />
<glyph unicode="@" glyph-name="at" horiz-adv-x="851" d="M272 -22T202 13T94 110T57 255Q57 388 112 494T270 661T507 722Q662 722 750 653T838 458Q838 368 808 292T722 170T597 125Q561 125 535 146T504 206H503Q476 168 438 146T356 124Q299 124 263 166T226
273Q226 357 260 427T353 539T481 581Q519 581 544 564T579 517L597 567H664L563 279Q556 256 556 244Q556 221 569 208T603 194Q642 194 675 229T729 324T750 451Q750 551 689 600T499 649Q397 649 317 601T192 466T146 263Q146 160 207 106T381 51Q482 51 571
89L559 18Q476 -22 368 -22Q272 -22 202 13ZM463 195T513 337Q533 394 533 438Q533 475 518 494T472 514Q432 514 395 481T335 393T312 277Q312 234 329 215T380 195Q463 195 513 337Z" />
<glyph unicode="A" glyph-name="A" horiz-adv-x="662" d="M358 672Q382 718 422 718Q444 718 456 709T469 685Q469 677 461 663L581 0H493L461 191H192L92 0H-1L358 672ZM453 261L400 599L227 261H453Z" />
<glyph unicode="B" glyph-name="B" horiz-adv-x="591" d="M138 609Q139 614 139 623Q139 633 136 639T127 651T121 664Q121 679 140 698T178 718Q193 718 206 700H406Q490 700 535 660T580 554Q580 483 541 434T432 365L431 363Q483 347 513 313T543 230Q543 165
510 113T417 30T286 0H31L138 609ZM325 399Q401 399 446 438T491 544Q491 585 467 608T387 631H226L185 399H325ZM294 69Q367 69 411 112T455 227Q455 276 421 302T323 329H173L127 69H294Z" />
<glyph unicode="C" glyph-name="C" horiz-adv-x="621" d="M243 -10T184 23T92 117T59 261Q59 388 106 490T240 651T440 710Q500 710 549 690T627 632L580 569Q553 603 517 620T427 637Q348 637 285 590T185 460T148 269Q148 171 196 117T336 63Q434 63 503 128L548
78Q501 36 442 13T321 -10Q243 -10 184 23Z" />
<glyph unicode="D" glyph-name="D" horiz-adv-x="632" d="M137 609Q138 614 138 622Q138 638 130 649T121 665Q121 671 130 684T152 707T178 718Q191 718 205 700H342Q467 700 540 632T613 440Q613 310 567 211T434 56T230 0H30L137 609ZM237 74Q323 74 388 118T489
244T525 432Q525 531 480 578T332 626H226L129 74H237Z" />
<glyph unicode="E" glyph-name="E" horiz-adv-x="523" d="M138 609Q139 614 139 622Q139 638 130 649T121 666Q121 671 123 674Q130 688 146 703T178 718Q185 718 192 713T205 700H551L538 626H227L188 403H415L402 331H175L130 74H450L437 0H31L138 609Z" />
<glyph unicode="F" glyph-name="F" horiz-adv-x="514" d="M138 609Q139 614 139 622Q139 638 130 649T121 666Q121 671 123 674Q130 688 146 703T178 718Q185 718 192 713T205 700H551L538 626H227L186 392H413L400 320H173L117 0H31L138 609Z" />
<glyph unicode="G" glyph-name="G" horiz-adv-x="647" d="M238 -10T180 23T91 117T59 261Q59 388 106 490T240 651T440 710Q500 710 549 690T627 632L580 569Q553 603 517 620T427 637Q348 637 285 590T185 460T148 269Q148 170 194 117T331 63Q375 63 405 71T467
97L503 302H338L351 374H551Q560 382 566 385T582 389Q598 389 609 374T621 344Q621 337 619 333T609 323Q600 316 595 308T586 283L546 56Q480 19 430 5T316 -10Q238 -10 180 23Z" />
<glyph unicode="H" glyph-name="H" horiz-adv-x="613" d="M142 700H228L176 405H497L549 700H635L512 0H426L484 331H163L105 0H19L142 700Z" />
<glyph unicode="I" glyph-name="I" horiz-adv-x="287" d="M181 700H267L144 0H58L181 700Z" />
<glyph unicode="J" glyph-name="J" horiz-adv-x="431" d="M99 -10T61 2T-1 33L45 97Q66 82 94 73T149 64Q201 64 232 91T274 173L367 700H453L360 176Q345 90 285 40T135 -10Q99 -10 61 2Z" />
<glyph unicode="K" glyph-name="K" horiz-adv-x="590" d="M142 700H228L177 408L490 700H597L236 366L504 0H396L162 323L105 0H19L142 700Z" />
<glyph unicode="L" glyph-name="L" horiz-adv-x="494" d="M32 -13T21 0T9 30Q9 42 22 53Q31 61 36 69T45 93L152 700H238L128 74H431L418 0H78Q63 -13 48 -13Q32 -13 21 0Z" />
<glyph unicode="M" glyph-name="M" horiz-adv-x="773" d="M333 -11T324 -5T313 14L235 530L92 -1H3L186 652L182 662Q180 668 180 672Q180 689 194 703T234 718Q261 718 272 706T288 668L368 135L637 668Q650 693 666 705T709 718Q729 718 739 709T749 685Q749
670 742 662L734 652L686 -1H601L646 530L402 47L403 37Q405 16 389 3T347 -11Q333 -11 324 -5Z" />
<glyph unicode="N" glyph-name="N" horiz-adv-x="613" d="M135 619Q136 623 136 629Q136 641 129 651T122 667Q122 672 125 679Q132 695 148 706T182 718Q206 718 216 696L454 158L549 700H635L512 0H438L205 525L112 0H26L135 619Z" />
<glyph unicode="O" glyph-name="O" horiz-adv-x="664" d="M175 -10T117 59T58 250Q58 382 102 487T228 651T413 710Q526 710 586 640T646 450Q646 318 601 213T473 49T286 -10Q175 -10 117 59ZM373 63T431 113T523 250T557 448Q557 637 400 637Q327 637 269 587T179
449T146 252Q146 161 182 112T299 63Q373 63 431 113Z" />
<glyph unicode="P" glyph-name="P" horiz-adv-x="584" d="M136 615Q137 619 137 626Q137 639 129 651T121 669Q121 682 139 700T178 718Q195 718 209 700H350Q422 700 475 677T556 612T584 515Q584 436 547 376T440 283T277 250H158L114 0H28L136 615ZM287 323Q384
323 439 373T494 510Q494 567 456 596T339 626H224L171 323H287Z" />
<glyph unicode="Q" glyph-name="Q" horiz-adv-x="664" d="M646 337T612 243T517 87T373 1L473 -163H367L279 -10Q171 -8 115 61T58 250Q58 382 102 487T228 651T413 710Q526 710 586 640T646 450Q646 337 612 243ZM373 63T431 113T523 250T557 448Q557 637 400
637Q327 637 269 587T179 449T146 252Q146 161 182 112T299 63Q373 63 431 113Z" />
<glyph unicode="R" glyph-name="R" horiz-adv-x="582" d="M137 615Q138 619 138 626Q138 638 130 649T122 668Q122 676 130 688T152 709T179 718Q196 718 210 700H351Q461 700 522 654T584 526Q584 459 555 407T471 323T345 286L481 0H382L249 280H164L115 0H29L137
615ZM293 353Q393 353 443 395T494 521Q494 574 457 600T340 626H225L177 353H293Z" />
<glyph unicode="S" glyph-name="S" horiz-adv-x="579" d="M180 -10T119 18T20 94L83 149Q152 62 275 62Q351 62 393 96T435 192Q435 218 421 236T376 272T284 313Q196 347 154 392T111 498Q111 562 143 610T235 684T372 710Q437 710 489 691T579 637L522 576Q490
606 452 621T359 637Q284 637 242 602T200 505Q200 464 234 438T349 380Q441 344 482 302T524 198Q524 101 453 46T262 -10Q180 -10 119 18Z" />
<glyph unicode="T" glyph-name="T" horiz-adv-x="556" d="M304 626H104L117 700H603L590 626H390L280 0H194L304 626Z" />
<glyph unicode="U" glyph-name="U" horiz-adv-x="632" d="M171 -10T112 45T52 192Q52 214 57 244L137 700H223L142 238Q137 210 137 190Q137 127 175 95T286 63Q368 63 422 107T492 238L573 700H659L579 244Q557 118 480 54T275 -10Q171 -10 112 45Z" />
<glyph unicode="V" glyph-name="V" horiz-adv-x="666" d="M241 6T241 23Q241 35 251 49L127 700H212L313 134L612 700H703L338 28Q328 10 313 0T283 -10Q271 -10 260 -4Q241 6 241 23Z" />
<glyph unicode="W" glyph-name="W" horiz-adv-x="832" d="M120 1T120 23Q120 33 126 43L133 55L127 700H213L209 161L457 684Q469 710 499 710Q523 710 535 703T547 683Q547 678 543 668L538 658L597 161L782 700H869L639 55L642 43Q643 40 643 34Q643 6 604 -6Q586
-10 580 -10Q562 -10 553 2T540 40L477 565L227 40Q215 14 201 2T169 -10Q162 -10 146 -6Q120 1 120 23Z" />
<glyph unicode="X" glyph-name="X" horiz-adv-x="667" d="M310 375L149 700H242L367 441L583 700H682L407 375L581 0H488L350 311L103 0H4L310 375Z" />
<glyph unicode="Y" glyph-name="Y" horiz-adv-x="631" d="M281 271L127 700H217L333 350L572 700H668L363 271L316 0H234L281 271Z" />
<glyph unicode="Z" glyph-name="Z" horiz-adv-x="621" d="M54 -11T46 -11Q31 -11 12 16Q8 24 8 26Q8 32 14 40T28 57L522 626H140L153 700H581L591 709Q601 719 616 719Q630 719 641 708Q654 694 654 682Q654 667 634 644L138 74H548L535 0H70L59 -7Q54 -11 46 -11Z" />
<glyph unicode="[" glyph-name="bracketleft" horiz-adv-x="266" d="M150 746H321L309 676H224L93 -64H178L166 -134H-5L150 746Z" />
<glyph unicode="\" glyph-name="backslash" horiz-adv-x="450" d="M129 710H214L362 -11H276L129 710Z" />
<glyph unicode="]" glyph-name="bracketright" horiz-adv-x="266" d="M-18 -64H67L198 676H113L125 746H296L141 -134H-30L-18 -64Z" />
<glyph unicode="^" glyph-name="asciicircum" horiz-adv-x="444" d="M269 700Q278 713 287 717T311 722Q328 722 338 715T349 696Q349 689 343 681L339 676L435 437H351L291 622L171 437H81L269 700Z" />
<glyph unicode="_" glyph-name="underscore" horiz-adv-x="564" d="M-6 -52H468L456 -122H-18L-6 -52Z" />
<glyph unicode="`" glyph-name="grave" horiz-adv-x="274" d="M131 722H225L279 543H210L131 722Z" />
<glyph unicode="a" glyph-name="a" horiz-adv-x="566" d="M135 -10T88 43T41 179Q41 267 76 339T172 453T309 495Q407 495 448 415L460 485H542L479 125Q473 92 473 69Q473 41 483 18L409 -10Q394 14 394 50Q394 56 396 74L393 75Q357 34 311 12T214 -10Q135 -10
88 43ZM308 60T355 105T414 221L421 263Q424 280 424 295Q424 350 394 387T304 425Q255 425 215 394T151 307T127 186Q127 127 154 94T237 60Q308 60 355 105Z" />
<glyph unicode="b" glyph-name="b" horiz-adv-x="570" d="M7 17Q24 39 33 63T50 126L157 734H241L185 416Q218 451 263 473T358 495Q445 495 488 445T531 308Q531 219 497 146T403 32T268 -10Q217 -10 178 13T118 76Q113 48 100 25T73 -11L7 17ZM320 60T359 91T422
178T445 301Q445 425 333 425Q288 425 251 402T189 342T157 263L150 221Q147 205 147 189Q147 133 179 97T271 60Q320 60 359 91Z" />
<glyph unicode="c" glyph-name="c" horiz-adv-x="515" d="M155 -10T99 43T42 187Q42 275 79 345T183 455T335 495Q383 495 425 479T492 436L449 376Q431 397 398 410T326 424Q268 424 223 395T154 314T129 195Q129 130 164 96T269 61Q303 61 338 73T400 108L439
58Q404 27 353 9T252 -10Q155 -10 99 43Z" />
<glyph unicode="d" glyph-name="d" horiz-adv-x="570" d="M404 -2T400 14T395 51Q395 58 397 76Q323 -10 218 -10Q133 -10 88 41T42 178Q42 272 77 344T173 455T312 495Q362 495 396 474T450 416L506 734H590L483 126Q478 97 478 69Q478 38 487 17L411 -11Q404
-2 400 14ZM309 60T357 107T416 221L423 263Q426 280 426 295Q426 351 396 388T308 425Q257 425 216 394T152 308T128 185Q128 127 155 94T240 60Q309 60 357 107Z" />
<glyph unicode="e" glyph-name="e" horiz-adv-x="543" d="M153 -10T98 42T43 181Q43 275 76 346T171 456T314 495Q378 495 421 468T485 397T506 305Q506 244 487 225T436 206H128Q125 190 125 173Q125 121 158 91T254 61Q338 61 403 111L438 62Q400 28 351 9T244
-10Q153 -10 98 42ZM421 275Q424 292 424 307Q424 359 394 392T305 425Q259 425 224 403T168 347T140 275H421Z" />
<glyph unicode="f" glyph-name="f" horiz-adv-x="395" d="M151 415H67L97 485H163L182 589Q195 660 241 698T360 736Q381 736 404 731T445 717L418 652Q389 665 355 665Q279 665 265 588L247 485H388L358 415H235L162 0H78L151 415Z" />
<glyph unicode="g" glyph-name="g" horiz-adv-x="568" d="M133 -218T95 -209T28 -184L65 -119Q89 -132 120 -139T187 -147Q279 -147 321 -101T378 29L387 79Q355 42 312 21T219 0Q137 0 90 51T42 188Q42 277 75 347T167 456T304 496Q406 496 453 410Q459 438 471
461T498 497L564 469Q547 446 538 421T521 359L462 26Q440 -95 368 -156T174 -218Q133 -218 95 -209ZM286 70T323 93T384 154T415 232L421 265Q424 282 424 299Q424 354 392 390T302 426Q252 426 212 396T150 313T127 193Q127 136 154 103T241 70Q286 70 323 93Z"
/>
<glyph unicode="h" glyph-name="h" horiz-adv-x="539" d="M360 30T360 67Q360 89 364 109L398 299Q402 319 402 340Q402 383 380 403T313 424Q273 424 239 402T181 343T150 264L103 0H19L148 734H232L176 416Q208 453 252 474T345 495Q415 495 451 458T487 353Q487
323 482 298L448 109Q445 93 445 77Q445 44 456 20L375 -10Q360 30 360 67Z" />
<glyph unicode="i" glyph-name="i" horiz-adv-x="244" d="M161 590T147 604T132 640Q132 668 154 689T205 710Q228 710 243 696T258 660Q258 633 236 612T184 590Q161 590 147 604ZM123 485H207L121 0H37L123 485Z" />
<glyph unicode="j" glyph-name="j" horiz-adv-x="418" d="M335 590T321 604T306 640Q306 668 328 689T379 710Q402 710 417 696T432 661Q432 633 410 612T358 590Q335 590 321 604ZM54 -219T20 -207T-37 -176L6 -117Q46 -149 100 -149Q146 -149 170 -124T205 -35L297
485H381L289 -32Q271 -129 225 -174T91 -219Q54 -219 20 -207Z" />
<glyph unicode="k" glyph-name="k" horiz-adv-x="487" d="M148 734H232L159 315L371 485H478L197 257L424 0H315L139 207L103 0H19L148 734Z" />
<glyph unicode="l" glyph-name="l" horiz-adv-x="204" d="M148 734H232L103 0H19L148 734Z" />
<glyph unicode="m" glyph-name="m" horiz-adv-x="793" d="M614 30T614 67Q614 89 618 109L652 301Q658 339 658 353Q658 388 641 406T584 424Q531 424 496 388T451 294L399 0H317L370 301Q374 321 374 342Q374 424 300 424Q245 424 208 381T158 271L110 0H26L90
363Q95 396 95 415Q95 445 86 467L166 496Q167 494 172 476T178 431Q178 419 177 412Q203 451 244 473T326 495Q419 495 438 404Q469 447 512 471T608 495Q675 495 709 461T743 364Q743 340 739 317L702 109Q699 93 699 77Q699 44 710 20L629 -10Q614 30 614 67Z"
/>
<glyph unicode="n" glyph-name="n" d="M367 30T367 67Q367 89 371 109L405 299Q409 320 409 342Q409 384 388 404T321 424Q281 424 246 402T188 343T157 264L110 0H26L90 363Q95 393 95 413Q95 441 86 466L166 495Q177 466 177 428Q177 415 176 409Q210 450 257
472T354 495Q422 495 458 458T494 353Q494 331 489 298L455 109Q452 93 452 77Q452 44 463 20L382 -10Q367 30 367 67Z" />
<glyph unicode="o" glyph-name="o" horiz-adv-x="548" d="M146 -10T95 43T43 182Q43 276 76 346T172 456T320 495Q405 495 456 442T508 303Q508 209 475 139T380 29T231 -10Q146 -10 95 43ZM296 61T336 90T399 173T421 296Q421 357 390 390T307 424Q254 424 214
395T152 313T130 190Q130 125 160 93T243 61Q296 61 336 90Z" />
<glyph unicode="p" glyph-name="p" horiz-adv-x="570" d="M91 359Q97 394 97 416Q97 445 86 469L163 497Q170 487 175 471T180 435Q180 428 178 410Q214 450 259 473T358 496Q437 496 484 445T531 309Q531 218 498 146T404 32T263 -9Q214 -9 179 12T124 70L73
-219H-11L91 359ZM318 61T358 91T422 175T445 297Q445 426 335 426Q289 426 251 404T189 345T157 265L150 223Q147 207 147 191Q147 136 177 99T266 61Q318 61 358 91Z" />
<glyph unicode="q" glyph-name="q" horiz-adv-x="570" d="M352 -199T352 -159Q352 -140 357 -113L390 70Q356 33 313 12T222 -9Q138 -9 90 42T42 179Q42 268 75 340T169 454T305 496Q357 496 395 473T455 410Q462 438 473 461T499 497L566 469Q550 448 541 425T525
359L441 -113Q437 -139 437 -150Q437 -177 448 -202L368 -232Q352 -199 352 -159ZM289 61T326 84T386 144T417 223L424 265Q427 282 427 297Q427 353 395 389T304 426Q254 426 214 395T151 310T128 189Q128 131 156 96T244 61Q289 61 326 84Z" />
<glyph unicode="r" glyph-name="r" horiz-adv-x="396" d="M90 363Q95 393 95 413Q95 441 86 466L166 495Q177 466 177 428Q177 415 176 409Q209 452 244 473T323 495Q347 495 364 490T402 470L358 409Q335 424 304 424Q247 424 208 381T157 267L110 0H26L90 363Z" />
<glyph unicode="s" glyph-name="s" horiz-adv-x="485" d="M150 -10T99 11T16 70L77 125Q100 94 141 77T228 59Q281 59 308 78T336 134Q336 156 315 171T230 210Q154 238 119 269T84 347Q84 417 138 456T287 495Q336 495 377 481T446 443L403 383Q372 406 342 416T276
426Q227 426 198 407T169 353Q169 328 191 315T277 276Q355 245 388 216T421 142Q421 70 367 30T218 -10Q150 -10 99 11Z" />
<glyph unicode="t" glyph-name="t" horiz-adv-x="369" d="M152 -9T125 17T98 90Q98 106 101 124L152 415H67L97 485H165L187 608L275 645L246 485H371L342 415H236L185 123Q182 108 182 97Q182 77 192 69T226 60Q258 60 285 72L294 9Q278 2 252 -3T201 -9Q152 -9 125 17Z" />
<glyph unicode="u" glyph-name="u" horiz-adv-x="532" d="M124 -10T83 32T42 143Q42 165 46 185L100 485H184L131 186Q127 166 127 145Q127 104 150 83T223 61Q283 61 324 106T377 215L425 485H509L445 122Q440 92 440 71Q440 43 449 19L369 -10Q356 27 359 76Q291
-10 193 -10Q124 -10 83 32Z" />
<glyph unicode="v" glyph-name="v" horiz-adv-x="541" d="M202 -10T192 -2T181 18Q181 25 186 33L190 40L89 485H174L247 115L449 485H540L270 16Q262 2 251 -4T220 -10Q202 -10 192 -2Z" />
<glyph unicode="w" glyph-name="w" horiz-adv-x="712" d="M151 -10T142 -3T132 18Q132 25 135 32L139 42L89 485H177L200 121L367 475Q372 484 380 489T409 495Q448 495 448 470Q448 464 444 452L436 431L472 121L623 485H711L511 42V32Q511 14 498 2T463 -10Q441
-10 432 -3T420 21L381 361L222 21Q214 5 202 -2T169 -10Q151 -10 142 -3Z" />
<glyph unicode="x" glyph-name="x" horiz-adv-x="512" d="M206 251L90 485H182L265 303L413 485H511L312 251L425 0H331L253 196L104 0H4L206 251Z" />
<glyph unicode="y" glyph-name="y" horiz-adv-x="568" d="M14 -160Q154 -112 209 26L89 485H183L265 114L468 485H567L280 -13Q231 -99 173 -149T27 -230L14 -160Z" />
<glyph unicode="z" glyph-name="z" horiz-adv-x="528" d="M53 -10T47 -10Q25 -10 12 25Q10 33 10 35Q10 43 15 49T33 64Q44 70 54 80L396 415H103L115 485H444Q464 485 472 491Q478 495 485 495Q503 495 516 475Q522 466 522 458Q522 444 506 428L139 70H451L439
0H91Q72 0 59 -7Q53 -10 47 -10Z" />
<glyph unicode="{" glyph-name="braceleft" horiz-adv-x="339" d="M109 -134T88 -114T67 -61Q67 -55 69 -41L114 217Q116 231 116 235Q116 271 82 271H52L64 341H94Q136 341 146 395L191 653Q198 694 228 720T304 746H384L371 676H310Q281 676 275 641L234 406Q227
368 213 345T166 306Q203 284 203 241Q203 230 199 206L157 -29Q156 -33 156 -40Q156 -64 180 -64H241L229 -134H149Q109 -134 88 -114Z" />
<glyph unicode="|" glyph-name="bar" horiz-adv-x="206" d="M160 800H246L80 -140H-6L160 800Z" />
<glyph unicode="}" glyph-name="braceright" horiz-adv-x="339" d="M-8 -64H54Q84 -64 90 -29L131 206Q138 244 152 267T199 306Q162 328 162 371Q162 382 166 406L208 641Q209 645 209 652Q209 676 185 676H123L135 746H216Q255 746 276 726T298 673Q298 667
296 653L250 395Q248 383 248 378Q248 360 257 351T283 341H313L300 271H270Q229 271 219 217L173 -41Q165 -83 136 -108T61 -134H-20L-8 -64Z" />
<glyph unicode="~" glyph-name="asciitilde" horiz-adv-x="589" d="M45 233Q76 278 116 302T203 326Q228 326 251 318T307 294Q338 279 359 271T404 263Q439 263 464 279T511 329L552 280Q523 234 483 210T397 186Q372 186 349 194T289 219Q254 235 234 242T193
249Q131 249 88 181L45 233Z" />
<glyph unicode="&#xa0;" glyph-name="uni00A0" horiz-adv-x="258" />
<glyph unicode="&#xa1;" glyph-name="exclamdown" horiz-adv-x="242" d="M118 345T104 358T89 393Q89 422 110 443T161 464Q184 464 198 451T213 416Q213 387 192 366T140 345Q118 345 104 358ZM92 267H161L80 -236H-6L92 267Z" />
<glyph unicode="&#xa2;" glyph-name="cent" horiz-adv-x="515" d="M400 490T435 475T492 436L449 376Q434 394 407 407T346 423L282 61Q314 63 345 75T400 108L439 58Q407 30 362 12T270 -9L254 -98H202L218 -8Q136 1 89 53T42 187Q42 270 75 337T168 446T306
494L323 588H375L358 494Q400 490 435 475ZM129 140T155 107T231 64L294 422Q219 410 174 348T129 195Q129 140 155 107Z" />
<glyph unicode="&#xa3;" glyph-name="sterling" horiz-adv-x="562" d="M17 63Q68 79 111 120T178 213T203 316H59L88 386H192Q182 406 177 432T172 483Q172 548 202 599T288 680T421 710Q476 710 520 691T588 636L545 577Q500 637 408 637Q337 637 298 596T259
481Q259 431 282 386H450L420 316H289Q285 249 249 182T152 70H487L475 0H6L17 63Z" />
<glyph unicode="&#xa4;" glyph-name="currency" horiz-adv-x="618" d="M29 115L129 202Q98 241 98 299Q98 344 116 388T167 463L100 549L162 601L233 511Q294 543 362 543Q431 543 480 511L583 601L628 549L528 463Q554 427 554 376Q554 328 533 281T475 202L545
115L482 63L408 157Q348 130 290 130Q229 130 180 157L73 63L29 115ZM377 200T425 247T473 368Q473 418 441 445T350 473Q274 473 226 427T178 306Q178 255 210 228T302 200Q377 200 425 247Z" />
<glyph unicode="&#xa5;" glyph-name="yen" horiz-adv-x="631" d="M363 271H532L524 225H355L343 157H512L504 111H335L316 0H234L253 111H90L98 157H261L273 225H110L118 271H281L127 700H217L333 350L572 700H668L363 271Z" />
<glyph unicode="&#xa6;" glyph-name="brokenbar" horiz-adv-x="206" d="M160 800H246L176 406H90L160 800ZM63 254H149L80 -140H-6L63 254Z" />
<glyph unicode="&#xa7;" glyph-name="section" horiz-adv-x="494" d="M133 -59T85 -41T10 10L64 65Q85 41 121 26T204 11Q259 11 292 37T326 108Q326 137 301 156T208 202Q131 232 98 261T65 336Q65 378 88 417T154 482Q139 494 132 514T124 558Q124 633 180 677T332
722Q383 722 424 709T493 671L450 613Q395 653 319 653Q269 653 239 630T209 566Q209 538 233 522T325 481Q399 454 432 425T466 349Q466 302 443 264T382 197Q395 185 403 163T411 115Q411 36 353 -11T192 -59Q133 -59 85 -41ZM353 252T367 279T382 330Q382 354
363 372T301 408Q239 432 209 448Q180 431 164 406T147 352Q147 331 164 314T225 278Q310 241 329 231Q353 252 367 279Z" />
<glyph unicode="&#xa8;" glyph-name="dieresis" horiz-adv-x="387" d="M131 567T118 580T104 613Q104 639 124 659T172 679Q193 679 206 666T219 633Q219 607 199 587T152 567Q131 567 118 580ZM329 567T316 580T302 613Q302 639 323 659T371 679Q392 679 404
666T417 634Q417 607 397 587T351 567Q329 567 316 580Z" />
<glyph unicode="&#xa9;" glyph-name="copyright" horiz-adv-x="847" d="M283 -11T211 26T100 129T61 283Q61 405 119 502T279 655T507 710Q604 710 676 673T788 569T827 415Q827 294 769 197T609 44T380 -11Q283 -11 211 26ZM493 62T572 107T697 233T743 412Q743
521 679 579T494 637Q395 637 316 591T191 465T145 286Q145 178 210 120T393 62Q493 62 572 107ZM358 122T314 145T246 209T222 303Q222 381 256 443T351 540T490 575Q535 575 577 560T644 515L599 459Q582 480 549 493T480 506Q430 506 391 481T329 410T306 309Q306
191 435 191Q466 191 500 202T559 236L598 188Q560 156 511 139T415 122Q358 122 314 145Z" />
<glyph unicode="&#xaa;" glyph-name="ordfeminine" horiz-adv-x="423" d="M163 384T130 417T97 509Q97 567 120 614T186 690T283 718Q314 718 337 706T372 671L380 712H448L405 468Q401 438 401 430Q401 413 407 401L343 384Q335 398 335 422L336 437H335Q313
412 282 398T218 384Q163 384 130 417ZM280 440T311 465T350 536L355 565Q357 579 357 586Q357 619 338 640T281 662Q233 662 201 621T169 516Q169 479 187 460T240 440Q280 440 311 465Z" />
<glyph unicode="&#xab;" glyph-name="guillemotleft" horiz-adv-x="456" d="M52 241Q49 247 49 253Q49 267 59 279L223 476H308L131 260L231 43H146L52 241ZM197 241Q194 247 194 253Q194 267 204 279L368 476H453L276 260L376 43H291L197 241Z" />
<glyph unicode="&#xac;" glyph-name="logicalnot" horiz-adv-x="466" d="M337 250H48L60 320H435L400 117H314L337 250Z" />
<glyph unicode="&#xad;" glyph-name="uni00AD" horiz-adv-x="494" d="M60 320H464L452 250H48L60 320Z" />
<glyph unicode="&#xae;" glyph-name="registered" horiz-adv-x="847" d="M283 -11T211 26T100 129T61 283Q61 405 119 502T279 655T507 710Q604 710 676 673T788 569T827 415Q827 294 769 197T609 44T380 -11Q283 -11 211 26ZM493 62T572 107T697 233T743 412Q743
521 679 579T494 637Q395 637 316 591T191 465T145 286Q145 178 210 120T393 62Q493 62 572 107ZM325 508Q327 519 320 528T312 544Q312 548 315 554Q331 586 361 586Q376 586 384 572H494Q561 572 601 542T642 461Q642 395 604 352T489 298L574 131H490L414 291H361L333
131H258L325 508ZM445 349Q504 349 534 375T565 452Q565 485 543 499T478 513H400L371 349H445Z" />
<glyph unicode="&#xaf;" glyph-name="overscore" horiz-adv-x="398" d="M116 631H420L408 565H104L116 631Z" />
<glyph unicode="&#xb0;" glyph-name="degree" horiz-adv-x="350" d="M169 485T139 511T108 582Q108 646 150 685T261 724Q311 724 341 698T372 627Q372 563 330 524T219 485Q169 485 139 511ZM262 543T282 563T303 618Q303 640 289 653T251 667Q218 667 198 646T177
591Q177 569 191 556T229 543Q262 543 282 563Z" />
<glyph unicode="&#xb1;" glyph-name="plusminus" horiz-adv-x="524" d="M483 332L471 262H308L281 111H195L222 262H59L71 332H234L261 483H347L320 332H483ZM25 70H437L425 0H13L25 70Z" />
<glyph unicode="&#xb2;" glyph-name="uni00B2" horiz-adv-x="474" d="M96 413T88 416T80 430Q80 437 83 448Q89 468 96 474T120 481Q145 516 179 542T270 602Q321 633 350 655T400 707T420 776Q420 809 401 826T346 844Q294 844 263 817T215 726L140 733Q159 815
217 862T356 910Q426 910 463 877T501 785Q501 732 478 694T422 629T333 569Q290 543 264 524T219 482H384L412 525L476 501L422 413H114Q96 413 88 416Z" />
<glyph unicode="&#xb3;" glyph-name="uni00B3" horiz-adv-x="494" d="M204 403T157 439T100 547L177 571Q187 469 294 469Q357 469 393 502T430 593Q430 625 413 641T363 658Q342 658 327 653L314 639Q302 625 289 625Q277 625 261 638Q252 646 252 654Q252 665
266 681L393 836H264L232 775L177 814L221 900H507Q538 900 538 885Q538 876 531 863Q523 847 514 842T489 836H475L373 714Q386 719 409 719Q455 719 483 690T511 607Q511 547 482 501T402 429T283 403Q204 403 157 439Z" />
<glyph unicode="&#xb4;" glyph-name="acute" horiz-adv-x="274" d="M218 722H312L169 543H100L218 722Z" />
<glyph unicode="&#xb6;" glyph-name="paragraph" horiz-adv-x="640" d="M300 310Q194 310 142 348T89 462Q89 531 122 585T216 669T352 700H677L664 630H612L469 -180H383L526 630H442L299 -180H213L300 310Z" />
<glyph unicode="&#xb7;" glyph-name="middot" horiz-adv-x="204" d="M90 284T77 297T63 330Q63 356 84 376T132 396Q153 396 165 383T178 350Q178 324 158 304T112 284Q90 284 77 297Z" />
<glyph unicode="&#xb8;" glyph-name="cedilla" horiz-adv-x="317" d="M10 -217T-30 -185L0 -140Q31 -163 66 -163Q88 -163 100 -151T113 -118Q113 -90 73 -90Q62 -90 56 -91L40 -69L99 6H165L117 -53Q181 -62 181 -114Q181 -160 147 -188T59 -217Q10 -217 -30 -185Z" />
<glyph unicode="&#xb9;" glyph-name="uni00B9" horiz-adv-x="299" d="M252 781L178 726L141 779L302 896Q324 912 338 912Q353 912 360 897Q367 884 367 877Q367 867 356 858L344 848L267 412H187L252 781Z" />
<glyph unicode="&#xba;" glyph-name="ordmasculine" horiz-adv-x="417" d="M174 384T136 420T98 516Q98 607 152 662T294 718Q355 718 393 682T431 586Q431 495 377 440T235 384Q174 384 136 420ZM295 440T326 479T357 584Q357 619 337 640T284 662Q233 662 202
623T171 518Q171 483 191 462T245 440Q295 440 326 479Z" />
<glyph unicode="&#xbb;" glyph-name="guillemotright" horiz-adv-x="456" d="M188 260L87 476H172L267 279Q270 273 270 265Q270 254 266 248T260 241L96 43H11L188 260ZM334 260L233 476H318L413 279Q416 273 416 265Q416 254 412 248T406 241L242 43H157L334 260Z" />
<glyph unicode="&#xbc;" glyph-name="onequarter" horiz-adv-x="821" d="M221 601L146 546L109 598L270 715Q292 731 306 731Q320 731 329 716Q335 706 335 697Q335 685 324 677L312 668L235 232H155L221 601ZM596 710H682L211 -10H125L596 710ZM609 102H395Q380
102 372 109T364 127Q364 142 378 156L702 481Q717 496 734 496Q747 496 755 488Q768 476 768 464Q768 453 758 443L747 431L700 166H764L753 102H689L671 0H591L609 102ZM624 166L656 351L474 166H624Z" />
<glyph unicode="&#xbd;" glyph-name="onehalf" horiz-adv-x="898" d="M221 601L146 546L109 598L270 715Q292 731 306 731Q320 731 329 716Q335 706 335 697Q335 685 324 677L312 668L235 232H155L221 601ZM596 710H682L211 -10H125L596 710ZM447 0T439 3T431
18Q431 24 434 36Q440 56 447 61T471 67Q496 102 530 127T620 188Q671 219 700 241T749 293T769 363Q769 431 696 431Q645 431 614 403T567 313L492 320Q511 403 568 450T707 497Q776 497 813 464T851 373Q851 320 828 281T773 217T685 157Q644 132 617 112T571
68H735L761 112L827 88L773 0H465Q447 0 439 3Z" />
<glyph unicode="&#xbe;" glyph-name="threequarters" horiz-adv-x="975" d="M750 710H836L365 -10H279L750 710ZM170 211T123 247T66 355L143 379Q153 277 260 277Q323 277 359 310T396 401Q396 433 379 449T329 466Q308 466 293 461L280 447Q268 433 255 433Q243
433 227 446Q218 454 218 462Q218 473 232 489L359 644H230L198 583L143 622L187 708H473Q488 708 495 705T503 693Q503 685 497 671Q489 655 480 650T455 644H441L339 522Q352 527 375 527Q421 527 449 498T477 415Q477 355 448 309T368 237T249 211Q170 211 123
247ZM762 102H548Q534 102 526 109T517 126Q517 141 532 156L855 481Q870 496 887 496Q899 496 908 488Q922 475 922 464Q922 456 911 443L900 431L854 166H918L906 102H842L824 0H744L762 102ZM778 166L810 351L628 166H778Z" />
<glyph unicode="&#xbf;" glyph-name="questiondown" horiz-adv-x="510" d="M252 341T238 354T224 389Q224 418 245 439T296 460Q320 460 334 447T348 412Q348 383 327 362T275 341Q252 341 238 354ZM77 -250T33 -213T-12 -110Q-12 -64 4 -30T44 28T107 82Q154
119 179 148T213 220L221 263H307L299 220Q289 167 260 132T178 56Q143 27 124 8T91 -38T77 -98Q77 -136 101 -156T173 -177Q279 -177 340 -62L406 -97Q368 -169 302 -209T157 -250Q77 -250 33 -213Z" />
<glyph unicode="&#xc0;" glyph-name="Agrave" horiz-adv-x="662" d="M358 672Q382 718 422 718Q444 718 456 709T469 685Q469 677 461 663L581 0H493L461 191H192L92 0H-1L358 672ZM453 261L400 599L227 261H453ZM318 952H413L466 773H397L318 952Z" />
<glyph unicode="&#xc1;" glyph-name="Aacute" horiz-adv-x="662" d="M358 672Q382 718 422 718Q444 718 456 709T469 685Q469 677 461 663L581 0H493L461 191H192L92 0H-1L358 672ZM453 261L400 599L227 261H453ZM512 952H606L463 773H394L512 952Z" />
<glyph unicode="&#xc2;" glyph-name="Acircumflex" horiz-adv-x="662" d="M358 672Q382 718 422 718Q444 718 456 709T469 685Q469 677 461 663L581 0H493L461 191H192L92 0H-1L358 672ZM453 261L400 599L227 261H453ZM424 930Q438 944 446 949T468 954Q485 954
495 947T505 930Q505 926 501 920L497 915L597 779H507L448 877L358 779H270L424 930Z" />
<glyph unicode="&#xc3;" glyph-name="Atilde" horiz-adv-x="662" d="M358 672Q382 718 422 718Q444 718 456 709T469 685Q469 677 461 663L581 0H493L461 191H192L92 0H-1L358 672ZM453 261L400 599L227 261H453ZM281 813Q293 850 322 874T385 899Q409 899 425
891T465 867Q478 857 487 852T505 847Q524 847 537 859T559 898L603 874Q594 835 566 811T503 787Q482 787 466 794T430 816Q416 827 405 832T382 838Q346 838 326 787L281 813Z" />
<glyph unicode="&#xc4;" glyph-name="Adieresis" horiz-adv-x="662" d="M358 672Q382 718 422 718Q444 718 456 709T469 685Q469 677 461 663L581 0H493L461 191H192L92 0H-1L358 672ZM453 261L400 599L227 261H453ZM310 779T297 792T283 825Q283 851 304 871T352
891Q373 891 386 878T399 845Q399 819 379 799T332 779Q310 779 297 792ZM514 779T500 792T486 826Q486 851 507 871T556 891Q576 891 589 878T603 845Q603 819 583 799T536 779Q514 779 500 792Z" />
<glyph unicode="&#xc5;" glyph-name="Aring" horiz-adv-x="662" d="M358 672Q382 718 422 718Q444 718 456 709T469 685Q469 677 461 663L581 0H493L461 191H192L92 0H-1L358 672ZM453 261L400 599L227 261H453ZM389 752T362 773T335 832Q335 881 372 915T462
950Q501 950 528 929T555 870Q555 838 538 811T492 768T427 752Q389 752 362 773ZM462 802T479 819T497 862Q497 881 485 891T454 901Q428 901 411 884T393 841Q393 823 405 813T436 802Q462 802 479 819Z" />
<glyph unicode="&#xc6;" glyph-name="AE" horiz-adv-x="810" d="M421 700H838L825 626H535L496 403H702L689 331H483L438 74H737L724 0H343L377 191H210L97 0H4L421 700ZM389 261L451 610L247 261H389Z" />
<glyph unicode="&#xc7;" glyph-name="Ccedilla" horiz-adv-x="621" d="M500 710T549 690T627 632L580 569Q553 603 517 620T427 637Q348 637 285 590T185 460T148 269Q148 171 196 117T336 63Q434 63 503 128L548 78Q507 40 455 18T347 -9L311 -53Q375 -62 375
-114Q375 -160 342 -188T254 -217Q230 -217 206 -209T161 -185L193 -139Q223 -162 259 -162Q280 -162 293 -150T306 -119Q306 -104 295 -97T264 -90Q254 -90 248 -91L231 -69L280 -8Q179 5 119 77T59 261Q59 388 106 490T240 651T440 710Q500 710 549 690Z" />
<glyph unicode="&#xc8;" glyph-name="Egrave" horiz-adv-x="523" d="M138 609Q139 614 139 622Q139 638 130 649T121 666Q121 671 123 674Q130 688 146 703T178 718Q185 718 192 713T205 700H551L538 626H227L188 403H415L402 331H175L130 74H450L437 0H31L138
609ZM255 952H350L403 773H334L255 952Z" />
<glyph unicode="&#xc9;" glyph-name="Eacute" horiz-adv-x="523" d="M138 609Q139 614 139 622Q139 638 130 649T121 666Q121 671 123 674Q130 688 146 703T178 718Q185 718 192 713T205 700H551L538 626H227L188 403H415L402 331H175L130 74H450L437 0H31L138
609ZM449 952H543L400 773H331L449 952Z" />
<glyph unicode="&#xca;" glyph-name="Ecircumflex" horiz-adv-x="523" d="M138 609Q139 614 139 622Q139 638 130 649T121 666Q121 671 123 674Q130 688 146 703T178 718Q185 718 192 713T205 700H551L538 626H227L188 403H415L402 331H175L130 74H450L437 0H31L138
609ZM361 930Q375 944 383 949T405 954Q422 954 432 947T442 930Q442 926 438 920L434 915L534 779H444L385 877L295 779H207L361 930Z" />
<glyph unicode="&#xcb;" glyph-name="Edieresis" horiz-adv-x="523" d="M138 609Q139 614 139 622Q139 638 130 649T121 666Q121 671 123 674Q130 688 146 703T178 718Q185 718 192 713T205 700H551L538 626H227L188 403H415L402 331H175L130 74H450L437 0H31L138
609ZM247 779T234 792T220 825Q220 851 241 871T289 891Q310 891 323 878T336 845Q336 819 316 799T269 779Q247 779 234 792ZM451 779T437 792T423 826Q423 851 444 871T493 891Q513 891 526 878T540 845Q540 819 520 799T473 779Q451 779 437 792Z" />
<glyph unicode="&#xcc;" glyph-name="Igrave" horiz-adv-x="287" d="M181 700H267L144 0H58L181 700ZM124 952H219L272 773H203L124 952Z" />
<glyph unicode="&#xcd;" glyph-name="Iacute" horiz-adv-x="287" d="M181 700H267L144 0H58L181 700ZM318 952H412L269 773H200L318 952Z" />
<glyph unicode="&#xce;" glyph-name="Icircumflex" horiz-adv-x="287" d="M181 700H267L144 0H58L181 700ZM230 930Q244 944 252 949T274 954Q291 954 301 947T311 930Q311 926 307 920L303 915L403 779H313L254 877L164 779H76L230 930Z" />
<glyph unicode="&#xcf;" glyph-name="Idieresis" horiz-adv-x="287" d="M181 700H267L144 0H58L181 700ZM116 779T103 792T89 825Q89 851 110 871T158 891Q179 891 192 878T205 845Q205 819 185 799T138 779Q116 779 103 792ZM320 779T306 792T292 826Q292 851
313 871T362 891Q382 891 395 878T409 845Q409 819 389 799T342 779Q320 779 306 792Z" />
<glyph unicode="&#xd0;" glyph-name="Eth" horiz-adv-x="671" d="M506 700T579 632T652 440Q652 310 606 211T473 56T269 0H69L125 316H59L71 382H136L176 609Q177 614 177 622Q177 638 169 649T160 665Q160 671 169 684T191 707T217 718Q230 718 244 700H381Q506
700 579 632ZM362 74T427 118T528 244T564 432Q564 531 519 578T371 626H265L222 382H384L372 316H211L168 74H276Q362 74 427 118Z" />
<glyph unicode="&#xd1;" glyph-name="Ntilde" horiz-adv-x="613" d="M135 619Q136 623 136 629Q136 641 129 651T122 667Q122 672 125 679Q132 695 148 706T182 718Q206 718 216 696L454 158L549 700H635L512 0H438L205 525L112 0H26L135 619ZM259 813Q271 850
300 874T363 899Q387 899 403 891T443 867Q456 857 465 852T483 847Q502 847 515 859T537 898L581 874Q572 835 544 811T481 787Q460 787 444 794T408 816Q394 827 383 832T360 838Q324 838 304 787L259 813Z" />
<glyph unicode="&#xd2;" glyph-name="Ograve" horiz-adv-x="664" d="M175 -10T117 59T58 250Q58 382 102 487T228 651T413 710Q526 710 586 640T646 450Q646 318 601 213T473 49T286 -10Q175 -10 117 59ZM373 63T431 113T523 250T557 448Q557 637 400 637Q327
637 269 587T179 449T146 252Q146 161 182 112T299 63Q373 63 431 113ZM312 952H407L460 773H391L312 952Z" />
<glyph unicode="&#xd3;" glyph-name="Oacute" horiz-adv-x="664" d="M175 -10T117 59T58 250Q58 382 102 487T228 651T413 710Q526 710 586 640T646 450Q646 318 601 213T473 49T286 -10Q175 -10 117 59ZM373 63T431 113T523 250T557 448Q557 637 400 637Q327
637 269 587T179 449T146 252Q146 161 182 112T299 63Q373 63 431 113ZM506 952H600L457 773H388L506 952Z" />
<glyph unicode="&#xd4;" glyph-name="Ocircumflex" horiz-adv-x="664" d="M175 -10T117 59T58 250Q58 382 102 487T228 651T413 710Q526 710 586 640T646 450Q646 318 601 213T473 49T286 -10Q175 -10 117 59ZM373 63T431 113T523 250T557 448Q557 637 400 637Q327
637 269 587T179 449T146 252Q146 161 182 112T299 63Q373 63 431 113ZM418 930Q432 944 440 949T462 954Q479 954 489 947T499 930Q499 926 495 920L491 915L591 779H501L442 877L352 779H264L418 930Z" />
<glyph unicode="&#xd5;" glyph-name="Otilde" horiz-adv-x="664" d="M175 -10T117 59T58 250Q58 382 102 487T228 651T413 710Q526 710 586 640T646 450Q646 318 601 213T473 49T286 -10Q175 -10 117 59ZM373 63T431 113T523 250T557 448Q557 637 400 637Q327
637 269 587T179 449T146 252Q146 161 182 112T299 63Q373 63 431 113ZM275 813Q287 850 316 874T379 899Q403 899 419 891T459 867Q472 857 481 852T499 847Q518 847 531 859T553 898L597 874Q588 835 560 811T497 787Q476 787 460 794T424 816Q410 827 399 832T376
838Q340 838 320 787L275 813Z" />
<glyph unicode="&#xd6;" glyph-name="Odieresis" horiz-adv-x="664" d="M175 -10T117 59T58 250Q58 382 102 487T228 651T413 710Q526 710 586 640T646 450Q646 318 601 213T473 49T286 -10Q175 -10 117 59ZM373 63T431 113T523 250T557 448Q557 637 400 637Q327
637 269 587T179 449T146 252Q146 161 182 112T299 63Q373 63 431 113ZM304 779T291 792T277 825Q277 851 298 871T346 891Q367 891 380 878T393 845Q393 819 373 799T326 779Q304 779 291 792ZM508 779T494 792T480 826Q480 851 501 871T550 891Q570 891 583 878T597
845Q597 819 577 799T530 779Q508 779 494 792Z" />
<glyph unicode="&#xd7;" glyph-name="multiply" horiz-adv-x="524" d="M54 147L218 285L103 423L165 475L280 338L441 475L485 423L323 285L436 147L374 95L261 233L98 95L54 147Z" />
<glyph unicode="&#xd8;" glyph-name="Oslash" horiz-adv-x="664" d="M588 638Q646 568 646 450Q646 318 601 213T473 49T286 -10Q201 -10 145 32L70 -71L29 -46L111 66Q58 134 58 250Q58 382 102 487T228 651T413 710Q497 710 552 670L626 771L667 746L588 638ZM146
185T165 141L504 604Q465 637 400 637Q327 637 269 587T179 449T146 252Q146 185 165 141ZM557 521T534 564L194 99Q232 63 299 63Q373 63 431 113T523 250T557 448Q557 521 534 564Z" />
<glyph unicode="&#xd9;" glyph-name="Ugrave" horiz-adv-x="632" d="M171 -10T112 45T52 192Q52 214 57 244L137 700H223L142 238Q137 210 137 190Q137 127 175 95T286 63Q368 63 422 107T492 238L573 700H659L579 244Q557 118 480 54T275 -10Q171 -10 112 45ZM298
952H393L446 773H377L298 952Z" />
<glyph unicode="&#xda;" glyph-name="Uacute" horiz-adv-x="632" d="M171 -10T112 45T52 192Q52 214 57 244L137 700H223L142 238Q137 210 137 190Q137 127 175 95T286 63Q368 63 422 107T492 238L573 700H659L579 244Q557 118 480 54T275 -10Q171 -10 112 45ZM492
952H586L443 773H374L492 952Z" />
<glyph unicode="&#xdb;" glyph-name="Ucircumflex" horiz-adv-x="632" d="M171 -10T112 45T52 192Q52 214 57 244L137 700H223L142 238Q137 210 137 190Q137 127 175 95T286 63Q368 63 422 107T492 238L573 700H659L579 244Q557 118 480 54T275 -10Q171 -10 112
45ZM404 930Q418 944 426 949T448 954Q465 954 475 947T485 930Q485 926 481 920L477 915L577 779H487L428 877L338 779H250L404 930Z" />
<glyph unicode="&#xdc;" glyph-name="Udieresis" horiz-adv-x="632" d="M171 -10T112 45T52 192Q52 214 57 244L137 700H223L142 238Q137 210 137 190Q137 127 175 95T286 63Q368 63 422 107T492 238L573 700H659L579 244Q557 118 480 54T275 -10Q171 -10 112
45ZM290 779T277 792T263 825Q263 851 284 871T332 891Q353 891 366 878T379 845Q379 819 359 799T312 779Q290 779 277 792ZM494 779T480 792T466 826Q466 851 487 871T536 891Q556 891 569 878T583 845Q583 819 563 799T516 779Q494 779 480 792Z" />
<glyph unicode="&#xdd;" glyph-name="Yacute" horiz-adv-x="631" d="M281 271L127 700H217L333 350L572 700H668L363 271L316 0H234L281 271ZM492 952H586L443 773H374L492 952Z" />
<glyph unicode="&#xde;" glyph-name="Thorn" horiz-adv-x="580" d="M152 700H238L215 568H334Q400 568 450 546T529 483T557 388Q557 267 479 200T257 132H138L115 0H29L152 700ZM267 206Q362 206 415 253T468 383Q468 494 318 494H202L151 206H267Z" />
<glyph unicode="&#xdf;" glyph-name="germandbls" horiz-adv-x="592" d="M106 510Q123 605 189 659T363 714Q423 714 468 694T539 639T564 561Q564 489 522 439T409 374V373Q471 360 505 319T540 219Q540 152 511 100T425 19T294 -10Q258 -10 222 -4T159 13L193
79Q233 59 301 59Q366 59 408 99T451 206Q451 271 409 306T291 341H254L266 410H303Q383 410 429 448T475 553Q475 595 445 620T356 645Q288 645 245 611T191 512L54 -250H-31L106 510Z" />
<glyph unicode="&#xe0;" glyph-name="agrave" horiz-adv-x="566" d="M135 -10T88 43T41 179Q41 267 76 339T172 453T309 495Q407 495 448 415L460 485H542L479 125Q473 92 473 69Q473 41 483 18L409 -10Q394 14 394 50Q394 56 396 74L393 75Q357 34 311 12T214
-10Q135 -10 88 43ZM308 60T355 105T414 221L421 263Q424 280 424 295Q424 350 394 387T304 425Q255 425 215 394T151 307T127 186Q127 127 154 94T237 60Q308 60 355 105ZM221 737H316L369 558H300L221 737Z" />
<glyph unicode="&#xe1;" glyph-name="aacute" horiz-adv-x="566" d="M135 -10T88 43T41 179Q41 267 76 339T172 453T309 495Q407 495 448 415L460 485H542L479 125Q473 92 473 69Q473 41 483 18L409 -10Q394 14 394 50Q394 56 396 74L393 75Q357 34 311 12T214
-10Q135 -10 88 43ZM308 60T355 105T414 221L421 263Q424 280 424 295Q424 350 394 387T304 425Q255 425 215 394T151 307T127 186Q127 127 154 94T237 60Q308 60 355 105ZM415 737H509L366 558H297L415 737Z" />
<glyph unicode="&#xe2;" glyph-name="acircumflex" horiz-adv-x="566" d="M135 -10T88 43T41 179Q41 267 76 339T172 453T309 495Q407 495 448 415L460 485H542L479 125Q473 92 473 69Q473 41 483 18L409 -10Q394 14 394 50Q394 56 396 74L393 75Q357 34 311 12T214
-10Q135 -10 88 43ZM308 60T355 105T414 221L421 263Q424 280 424 295Q424 350 394 387T304 425Q255 425 215 394T151 307T127 186Q127 127 154 94T237 60Q308 60 355 105ZM327 715Q341 729 349 734T371 739Q388 739 398 732T408 715Q408 711 404 705L400 700L500
564H410L351 662L261 564H173L327 715Z" />
<glyph unicode="&#xe3;" glyph-name="atilde" horiz-adv-x="566" d="M135 -10T88 43T41 179Q41 267 76 339T172 453T309 495Q407 495 448 415L460 485H542L479 125Q473 92 473 69Q473 41 483 18L409 -10Q394 14 394 50Q394 56 396 74L393 75Q357 34 311 12T214
-10Q135 -10 88 43ZM308 60T355 105T414 221L421 263Q424 280 424 295Q424 350 394 387T304 425Q255 425 215 394T151 307T127 186Q127 127 154 94T237 60Q308 60 355 105ZM184 598Q196 635 225 659T288 684Q312 684 328 676T368 652Q381 642 390 637T408 632Q427
632 440 644T462 683L506 659Q497 620 469 596T406 572Q385 572 369 579T333 601Q319 612 308 617T285 623Q249 623 229 572L184 598Z" />
<glyph unicode="&#xe4;" glyph-name="adieresis" horiz-adv-x="566" d="M135 -10T88 43T41 179Q41 267 76 339T172 453T309 495Q407 495 448 415L460 485H542L479 125Q473 92 473 69Q473 41 483 18L409 -10Q394 14 394 50Q394 56 396 74L393 75Q357 34 311 12T214
-10Q135 -10 88 43ZM308 60T355 105T414 221L421 263Q424 280 424 295Q424 350 394 387T304 425Q255 425 215 394T151 307T127 186Q127 127 154 94T237 60Q308 60 355 105ZM213 564T200 577T186 610Q186 636 207 656T255 676Q276 676 289 663T302 630Q302 604 282
584T235 564Q213 564 200 577ZM417 564T403 577T389 611Q389 636 410 656T459 676Q479 676 492 663T506 630Q506 604 486 584T439 564Q417 564 403 577Z" />
<glyph unicode="&#xe5;" glyph-name="aring" horiz-adv-x="566" d="M135 -10T88 43T41 179Q41 267 76 339T172 453T309 495Q407 495 448 415L460 485H542L479 125Q473 92 473 69Q473 41 483 18L409 -10Q394 14 394 50Q394 56 396 74L393 75Q357 34 311 12T214
-10Q135 -10 88 43ZM308 60T355 105T414 221L421 263Q424 280 424 295Q424 350 394 387T304 425Q255 425 215 394T151 307T127 186Q127 127 154 94T237 60Q308 60 355 105ZM292 537T265 558T238 617Q238 666 275 700T365 735Q404 735 431 714T458 655Q458 623 441
596T395 553T330 537Q292 537 265 558ZM365 587T382 604T400 647Q400 666 388 676T357 686Q331 686 314 669T296 626Q296 608 308 598T339 587Q365 587 382 604Z" />
<glyph unicode="&#xe6;" glyph-name="ae" horiz-adv-x="886" d="M109 -10T68 23T27 115Q27 169 54 209T131 272T246 295H398L401 310Q403 324 403 330Q403 371 374 398T294 425Q209 425 137 372L102 423Q143 456 198 475T309 495Q369 495 405 470T458 398H459Q530
495 664 495Q761 495 806 446T851 316Q851 267 840 244T815 215T780 209H469L466 195Q463 180 463 167Q463 119 497 90T594 61Q680 61 747 114L782 62Q740 28 689 9T582 -10Q516 -10 470 21T411 101H410Q372 51 315 21T184 -10Q109 -10 68 23ZM766 277Q770 305
770 316Q770 368 740 396T650 425Q605 425 569 406T510 356T483 295L480 277H766ZM250 61T288 79T351 128T381 192L387 227H230Q175 227 144 200T112 125Q112 61 203 61Q250 61 288 79Z" />
<glyph unicode="&#xe7;" glyph-name="ccedilla" horiz-adv-x="515" d="M383 495T425 479T492 436L449 376Q431 397 398 410T326 424Q268 424 223 395T154 314T129 195Q129 130 164 96T269 61Q303 61 338 73T400 108L439 58Q408 31 366 14T279 -9L243 -53Q307 -62
307 -114Q307 -160 274 -188T186 -217Q162 -217 138 -209T93 -185L125 -139Q155 -162 191 -162Q212 -162 225 -150T238 -119Q238 -104 227 -97T196 -90Q186 -90 180 -91L163 -69L212 -7Q132 4 87 55T42 187Q42 275 79 345T183 455T335 495Q383 495 425 479Z" />
<glyph unicode="&#xe8;" glyph-name="egrave" horiz-adv-x="543" d="M153 -10T98 42T43 181Q43 275 76 346T171 456T314 495Q378 495 421 468T485 397T506 305Q506 244 487 225T436 206H128Q125 190 125 173Q125 121 158 91T254 61Q338 61 403 111L438 62Q400
28 351 9T244 -10Q153 -10 98 42ZM421 275Q424 292 424 307Q424 359 394 392T305 425Q259 425 224 403T168 347T140 275H421ZM220 737H315L368 558H299L220 737Z" />
<glyph unicode="&#xe9;" glyph-name="eacute" horiz-adv-x="543" d="M153 -10T98 42T43 181Q43 275 76 346T171 456T314 495Q378 495 421 468T485 397T506 305Q506 244 487 225T436 206H128Q125 190 125 173Q125 121 158 91T254 61Q338 61 403 111L438 62Q400
28 351 9T244 -10Q153 -10 98 42ZM421 275Q424 292 424 307Q424 359 394 392T305 425Q259 425 224 403T168 347T140 275H421ZM414 737H508L365 558H296L414 737Z" />
<glyph unicode="&#xea;" glyph-name="ecircumflex" horiz-adv-x="543" d="M153 -10T98 42T43 181Q43 275 76 346T171 456T314 495Q378 495 421 468T485 397T506 305Q506 244 487 225T436 206H128Q125 190 125 173Q125 121 158 91T254 61Q338 61 403 111L438 62Q400
28 351 9T244 -10Q153 -10 98 42ZM421 275Q424 292 424 307Q424 359 394 392T305 425Q259 425 224 403T168 347T140 275H421ZM326 715Q340 729 348 734T370 739Q387 739 397 732T407 715Q407 711 403 705L399 700L499 564H409L350 662L260 564H172L326 715Z" />
<glyph unicode="&#xeb;" glyph-name="edieresis" horiz-adv-x="543" d="M153 -10T98 42T43 181Q43 275 76 346T171 456T314 495Q378 495 421 468T485 397T506 305Q506 244 487 225T436 206H128Q125 190 125 173Q125 121 158 91T254 61Q338 61 403 111L438 62Q400
28 351 9T244 -10Q153 -10 98 42ZM421 275Q424 292 424 307Q424 359 394 392T305 425Q259 425 224 403T168 347T140 275H421ZM212 564T199 577T185 610Q185 636 206 656T254 676Q275 676 288 663T301 630Q301 604 281 584T234 564Q212 564 199 577ZM416 564T402
577T388 611Q388 636 409 656T458 676Q478 676 491 663T505 630Q505 604 485 584T438 564Q416 564 402 577Z" />
<glyph unicode="&#xec;" glyph-name="igrave" horiz-adv-x="244" d="M124 485H207L121 0H38L124 485ZM65 737H160L213 558H144L65 737Z" />
<glyph unicode="&#xed;" glyph-name="iacute" horiz-adv-x="244" d="M124 485H207L121 0H38L124 485ZM259 737H353L210 558H141L259 737Z" />
<glyph unicode="&#xee;" glyph-name="icircumflex" horiz-adv-x="244" d="M124 485H207L121 0H38L124 485ZM171 715Q185 729 193 734T215 739Q232 739 242 732T252 715Q252 711 248 705L244 700L344 564H254L195 662L105 564H17L171 715Z" />
<glyph unicode="&#xef;" glyph-name="idieresis" horiz-adv-x="244" d="M124 485H207L121 0H38L124 485ZM57 564T44 577T30 610Q30 636 51 656T99 676Q120 676 133 663T146 630Q146 604 126 584T79 564Q57 564 44 577ZM261 564T247 577T233 611Q233 636 254 656T303
676Q323 676 336 663T350 630Q350 604 330 584T283 564Q261 564 247 577Z" />
<glyph unicode="&#xf0;" glyph-name="eth" horiz-adv-x="626" d="M201 -10T149 17T68 91T39 196Q39 285 78 356T189 467T359 508Q435 508 483 466L487 468Q470 513 446 546T383 611L227 545L209 608L324 656Q284 687 219 710L261 773Q309 755 343 737T410 694L568
762L587 699L466 647Q530 588 564 510T598 344Q598 233 554 153T435 32T267 -10Q201 -10 149 17ZM344 63T395 92T475 175T505 299Q505 365 463 400T348 435Q282 435 232 406T155 324T128 206Q128 139 168 101T280 63Q344 63 395 92Z" />
<glyph unicode="&#xf1;" glyph-name="ntilde" d="M367 30T367 67Q367 89 371 109L405 299Q409 320 409 342Q409 384 388 404T321 424Q281 424 246 402T188 343T157 264L110 0H26L90 363Q95 393 95 413Q95 441 86 466L166 495Q177 466 177 428Q177 415 176 409Q210
450 257 472T354 495Q422 495 458 458T494 353Q494 331 489 298L455 109Q452 93 452 77Q452 44 463 20L382 -10Q367 30 367 67ZM182 598Q194 635 223 659T286 684Q310 684 326 676T366 652Q379 642 388 637T406 632Q425 632 438 644T460 683L504 659Q495 620 467
596T404 572Q383 572 367 579T331 601Q317 612 306 617T283 623Q247 623 227 572L182 598Z" />
<glyph unicode="&#xf2;" glyph-name="ograve" horiz-adv-x="548" d="M146 -10T95 43T43 182Q43 276 76 346T172 456T320 495Q405 495 456 442T508 303Q508 209 475 139T380 29T231 -10Q146 -10 95 43ZM296 61T336 90T399 173T421 296Q421 357 390 390T307 424Q254
424 214 395T152 313T130 190Q130 125 160 93T243 61Q296 61 336 90ZM219 737H314L367 558H298L219 737Z" />
<glyph unicode="&#xf3;" glyph-name="oacute" horiz-adv-x="548" d="M146 -10T95 43T43 182Q43 276 76 346T172 456T320 495Q405 495 456 442T508 303Q508 209 475 139T380 29T231 -10Q146 -10 95 43ZM296 61T336 90T399 173T421 296Q421 357 390 390T307 424Q254
424 214 395T152 313T130 190Q130 125 160 93T243 61Q296 61 336 90ZM413 737H507L364 558H295L413 737Z" />
<glyph unicode="&#xf4;" glyph-name="ocircumflex" horiz-adv-x="548" d="M146 -10T95 43T43 182Q43 276 76 346T172 456T320 495Q405 495 456 442T508 303Q508 209 475 139T380 29T231 -10Q146 -10 95 43ZM296 61T336 90T399 173T421 296Q421 357 390 390T307
424Q254 424 214 395T152 313T130 190Q130 125 160 93T243 61Q296 61 336 90ZM325 715Q339 729 347 734T369 739Q386 739 396 732T406 715Q406 711 402 705L398 700L498 564H408L349 662L259 564H171L325 715Z" />
<glyph unicode="&#xf5;" glyph-name="otilde" horiz-adv-x="548" d="M146 -10T95 43T43 182Q43 276 76 346T172 456T320 495Q405 495 456 442T508 303Q508 209 475 139T380 29T231 -10Q146 -10 95 43ZM296 61T336 90T399 173T421 296Q421 357 390 390T307 424Q254
424 214 395T152 313T130 190Q130 125 160 93T243 61Q296 61 336 90ZM182 598Q194 635 223 659T286 684Q310 684 326 676T366 652Q379 642 388 637T406 632Q425 632 438 644T460 683L504 659Q495 620 467 596T404 572Q383 572 367 579T331 601Q317 612 306 617T283
623Q247 623 227 572L182 598Z" />
<glyph unicode="&#xf6;" glyph-name="odieresis" horiz-adv-x="548" d="M146 -10T95 43T43 182Q43 276 76 346T172 456T320 495Q405 495 456 442T508 303Q508 209 475 139T380 29T231 -10Q146 -10 95 43ZM296 61T336 90T399 173T421 296Q421 357 390 390T307 424Q254
424 214 395T152 313T130 190Q130 125 160 93T243 61Q296 61 336 90ZM211 564T198 577T184 610Q184 636 205 656T253 676Q274 676 287 663T300 630Q300 604 280 584T233 564Q211 564 198 577ZM415 564T401 577T387 611Q387 636 408 656T457 676Q477 676 490 663T504
630Q504 604 484 584T437 564Q415 564 401 577Z" />
<glyph unicode="&#xf7;" glyph-name="divide" horiz-adv-x="524" d="M268 383T256 395T243 426Q243 451 260 467T304 483Q323 483 335 472T347 442Q347 416 330 400T287 383Q268 383 256 395ZM62 320H490L477 250H49L62 320ZM214 77T202 88T190 118Q190 144 207
160T250 177Q270 177 282 166T294 135Q294 109 277 93T233 77Q214 77 202 88Z" />
<glyph unicode="&#xf8;" glyph-name="oslash" horiz-adv-x="548" d="M479 421T493 385T508 303Q508 209 475 139T380 29T231 -10Q176 -10 135 13L74 -71L33 -46L97 41Q43 93 43 182Q43 276 76 346T172 456T320 495Q373 495 413 474L473 556L514 531L452 446Q479
421 493 385ZM130 142T147 111L366 410Q340 424 307 424Q254 424 214 395T152 313T130 190Q130 142 147 111ZM296 61T336 90T399 173T421 296Q421 345 401 376L181 76Q208 61 243 61Q296 61 336 90Z" />
<glyph unicode="&#xf9;" glyph-name="ugrave" horiz-adv-x="532" d="M124 -10T83 32T42 143Q42 165 46 185L100 485H184L131 186Q127 166 127 145Q127 104 150 83T223 61Q283 61 324 106T377 215L425 485H509L445 122Q440 92 440 71Q440 43 449 19L369 -10Q356
27 359 76Q291 -10 193 -10Q124 -10 83 32ZM210 737H305L358 558H289L210 737Z" />
<glyph unicode="&#xfa;" glyph-name="uacute" horiz-adv-x="532" d="M124 -10T83 32T42 143Q42 165 46 185L100 485H184L131 186Q127 166 127 145Q127 104 150 83T223 61Q283 61 324 106T377 215L425 485H509L445 122Q440 92 440 71Q440 43 449 19L369 -10Q356
27 359 76Q291 -10 193 -10Q124 -10 83 32ZM404 737H498L355 558H286L404 737Z" />
<glyph unicode="&#xfb;" glyph-name="ucircumflex" horiz-adv-x="532" d="M124 -10T83 32T42 143Q42 165 46 185L100 485H184L131 186Q127 166 127 145Q127 104 150 83T223 61Q283 61 324 106T377 215L425 485H509L445 122Q440 92 440 71Q440 43 449 19L369 -10Q356
27 359 76Q291 -10 193 -10Q124 -10 83 32ZM316 715Q330 729 338 734T360 739Q377 739 387 732T397 715Q397 711 393 705L389 700L489 564H399L340 662L250 564H162L316 715Z" />
<glyph unicode="&#xfc;" glyph-name="udieresis" horiz-adv-x="532" d="M124 -10T83 32T42 143Q42 165 46 185L100 485H184L131 186Q127 166 127 145Q127 104 150 83T223 61Q283 61 324 106T377 215L425 485H509L445 122Q440 92 440 71Q440 43 449 19L369 -10Q356
27 359 76Q291 -10 193 -10Q124 -10 83 32ZM202 564T189 577T175 610Q175 636 196 656T244 676Q265 676 278 663T291 630Q291 604 271 584T224 564Q202 564 189 577ZM406 564T392 577T378 611Q378 636 399 656T448 676Q468 676 481 663T495 630Q495 604 475 584T428
564Q406 564 392 577Z" />
<glyph unicode="&#xfd;" glyph-name="yacute" horiz-adv-x="568" d="M14 -160Q154 -112 209 26L89 485H183L265 114L468 485H567L280 -13Q231 -99 173 -149T27 -230L14 -160ZM423 737H517L374 558H305L423 737Z" />
<glyph unicode="&#xfe;" glyph-name="thorn" horiz-adv-x="562" d="M143 704H227L176 417Q208 453 252 474T346 496Q429 496 476 445T523 308Q523 217 490 145T396 32T254 -9Q205 -9 170 12T115 70L64 -219H-20L143 704ZM309 61T349 91T413 175T436 297Q436 358
412 392T326 426Q280 426 242 404T180 345T148 265L141 223Q138 207 138 191Q138 136 168 99T257 61Q309 61 349 91Z" />
<glyph unicode="&#xff;" glyph-name="ydieresis" horiz-adv-x="568" d="M14 -160Q154 -112 209 26L89 485H183L265 114L468 485H567L280 -13Q231 -99 173 -149T27 -230L14 -160ZM221 564T208 577T194 610Q194 636 215 656T263 676Q284 676 297 663T310 630Q310
604 290 584T243 564Q221 564 208 577ZM425 564T411 577T397 611Q397 636 418 656T467 676Q487 676 500 663T514 630Q514 604 494 584T447 564Q425 564 411 577Z" />
<glyph unicode="&#x2013;" glyph-name="endash" horiz-adv-x="604" d="M60 320H574L562 250H48L60 320Z" />
<glyph unicode="&#x2014;" glyph-name="emdash" horiz-adv-x="797" d="M60 320H767L755 250H48L60 320Z" />
<glyph unicode="&#x2018;" glyph-name="quoteleft" horiz-adv-x="221" d="M124 459T110 473T96 512Q96 561 133 608T232 687L248 645Q191 613 172 573Q195 576 210 564T225 530Q225 501 203 480T150 459Q124 459 110 473Z" />
<glyph unicode="&#x2019;" glyph-name="quoteright" horiz-adv-x="222" d="M92 501Q153 536 169 573Q147 570 132 582T117 615Q117 644 138 665T191 687Q218 687 232 673T246 634Q246 586 209 539T108 459L92 501Z" />
<glyph unicode="&#x201a;" glyph-name="quotesinglbase" horiz-adv-x="222" d="M-12 -90Q49 -55 65 -18Q43 -21 28 -9T13 24Q13 53 34 74T87 96Q114 96 127 82T141 43Q141 -5 104 -52T4 -132L-12 -90Z" />
<glyph unicode="&#x201c;" glyph-name="quotedblleft" horiz-adv-x="386" d="M124 459T110 473T96 512Q96 561 134 608T233 687L249 645Q188 610 172 573Q194 576 209 564T224 531Q224 502 203 481T150 459Q124 459 110 473ZM288 459T274 473T260 512Q260 561
298 608T397 687L413 645Q351 608 336 573Q358 576 373 564T388 531Q388 502 367 481T314 459Q288 459 274 473Z" />
<glyph unicode="&#x201d;" glyph-name="quotedblright" horiz-adv-x="386" d="M92 501Q153 534 169 573Q147 570 132 582T117 615Q117 644 138 665T191 687Q217 687 231 673T245 634Q245 587 209 539T108 459L92 501ZM256 501Q317 536 333 573Q311 570 296 582T281
615Q281 644 302 665T355 687Q381 687 395 673T409 634Q409 585 371 538T272 459L256 501Z" />
<glyph unicode="&#x201e;" glyph-name="quotedblbase" horiz-adv-x="386" d="M-12 -90Q49 -57 65 -18Q43 -21 28 -9T13 24Q13 53 34 74T87 96Q113 96 127 82T141 43Q141 -4 105 -52T4 -132L-12 -90ZM152 -90Q212 -58 229 -18Q207 -21 192 -9T177 24Q177 53 198
74T251 96Q277 96 291 82T305 43Q305 -4 269 -52T168 -132L152 -90Z" />
<glyph unicode="&#x2022;" glyph-name="bullet" horiz-adv-x="373" d="M116 141T83 171T50 249Q50 293 72 330T133 389T218 411Q273 411 305 381T337 301Q337 257 315 221T255 163T171 141Q116 141 83 171Z" />
<glyph unicode="&#x2039;" glyph-name="guilsinglleft" horiz-adv-x="314" d="M52 241Q49 247 49 253Q49 267 59 279L223 476H311L135 260L234 43H146L52 241Z" />
<glyph unicode="&#x203a;" glyph-name="guilsinglright" horiz-adv-x="314" d="M188 260L87 476H176L271 279Q274 273 274 265Q274 254 270 248T264 241L100 43H11L188 260Z" />
</font>
</defs>
</svg>
