<?xml version="1.0" standalone="no"?>
<!DOCTYPE svg PUBLIC "-//W3C//DTD SVG 20010904//EN"
 "http://www.w3.org/TR/2001/REC-SVG-20010904/DTD/svg10.dtd">
<svg version="1.0" xmlns="http://www.w3.org/2000/svg"
 width="652.000000pt" height="652.000000pt" viewBox="0 0 652.000000 652.000000"
 preserveAspectRatio="xMidYMid meet">
<metadata>
Created by potrace 1.11, written by Peter Selinger 2001-2013
</metadata>
<g transform="translate(0.000000,652.000000) scale(0.100000,-0.100000)"
fill="#000000" stroke="none">
<path d="M3005 5914 c-101 -85 -163 -142 -545 -494 -146 -135 -629 -573 -1073
-974 -638 -577 -809 -736 -815 -760 -4 -17 -5 -736 -2 -1597 l5 -1567 90 75
c84 70 477 411 949 823 111 96 490 426 842 732 600 521 642 559 648 595 8 54
8 3243 -1 3243 -5 0 -48 -34 -98 -76z"/>
<path d="M3420 4495 c0 -1194 3 -1495 13 -1489 21 13 187 154 282 239 50 45
218 191 375 325 157 134 449 388 649 564 201 177 369 324 375 329 12 8 -6 26
-256 246 -186 165 -258 230 -598 542 -266 243 -817 732 -831 737 -5 2 -9 -613
-9 -1493z"/>
<path d="M5319 4221 c-14 -14 -119 -107 -235 -206 -684 -588 -1553 -1348
-1549 -1356 3 -4 81 -75 174 -156 92 -81 379 -335 637 -563 258 -228 543 -480
634 -559 91 -80 208 -183 260 -230 52 -48 129 -115 170 -151 41 -36 156 -137
255 -225 197 -175 279 -245 289 -245 3 0 6 719 6 1599 l0 1599 -47 38 c-27 21
-140 122 -253 224 -246 223 -290 260 -304 259 -6 -1 -23 -13 -37 -28z"/>
<path d="M3420 1325 l0 -1005 1138 0 1137 1 -60 56 c-33 30 -125 112 -205 181
-80 69 -194 172 -255 227 -60 56 -164 148 -231 206 -66 57 -349 307 -628 554
-637 564 -888 785 -892 785 -2 0 -4 -452 -4 -1005z"/>
<path d="M3025 2228 c-67 -58 -387 -338 -1033 -902 -238 -208 -432 -381 -430
-385 9 -22 625 -580 661 -598 52 -27 38 -26 500 -24 l377 1 0 980 c0 539 -3
980 -7 980 -5 0 -35 -24 -68 -52z"/>
<path d="M1254 688 c-102 -85 -319 -274 -369 -320 l-50 -48 458 0 c251 0 457
3 456 8 -1 9 -420 395 -434 399 -6 2 -33 -16 -61 -39z"/>
</g>
</svg>
